<svg xmlns="http://www.w3.org/2000/svg" xmlns:xlink="http://www.w3.org/1999/xlink" width="80" zoomAndPan="magnify" viewBox="0 0 60 37.5" height="50" preserveAspectRatio="xMidYMid meet" version="1.0"><defs><clipPath id="b76518be36"><path d="M 5.785156 25 L 53.894531 25 L 53.894531 35.8125 L 5.785156 35.8125 Z M 5.785156 25 " clip-rule="nonzero"/></clipPath><clipPath id="2900090746"><path d="M 5.785156 13 L 53.894531 13 L 53.894531 26 L 5.785156 26 Z M 5.785156 13 " clip-rule="nonzero"/></clipPath><clipPath id="31f257ad8c"><path d="M 5.785156 1.023438 L 53.894531 1.023438 L 53.894531 14 L 5.785156 14 Z M 5.785156 1.023438 " clip-rule="nonzero"/></clipPath></defs><g clip-path="url(#b76518be36)"><path fill="#ffcd05" d="M 5.800781 30.460938 C 5.800781 33.414062 8.191406 35.8125 11.144531 35.8125 L 48.535156 35.8125 C 51.488281 35.8125 53.878906 33.414062 53.878906 30.460938 L 53.878906 25.109375 L 5.800781 25.109375 Z M 5.800781 30.460938 " fill-opacity="1" fill-rule="nonzero"/></g><g clip-path="url(#2900090746)"><path fill="#ed1f24" d="M 5.800781 13.066406 L 53.878906 13.066406 L 53.878906 25.109375 L 5.800781 25.109375 Z M 5.800781 13.066406 " fill-opacity="1" fill-rule="nonzero"/></g><g clip-path="url(#31f257ad8c)"><path fill="#141414" d="M 48.535156 1.023438 L 11.144531 1.023438 C 8.191406 1.023438 5.800781 3.421875 5.800781 6.375 L 5.800781 13.066406 L 53.878906 13.066406 L 53.878906 6.375 C 53.878906 3.421875 51.488281 1.023438 48.535156 1.023438 Z M 48.535156 1.023438 " fill-opacity="1" fill-rule="nonzero"/></g></svg>