<svg xmlns="http://www.w3.org/2000/svg" xmlns:xlink="http://www.w3.org/1999/xlink" width="80" zoomAndPan="magnify" viewBox="0 0 60 37.5" height="50" preserveAspectRatio="xMidYMid meet" version="1.0"><defs><clipPath id="d90c749f2b"><path d="M 6.074219 1.234375 L 54.183594 1.234375 L 54.183594 36.019531 L 6.074219 36.019531 Z M 6.074219 1.234375 " clip-rule="nonzero"/></clipPath><clipPath id="91dc0f9171"><path d="M 6.074219 11 L 54.183594 11 L 54.183594 26 L 6.074219 26 Z M 6.074219 11 " clip-rule="nonzero"/></clipPath></defs><g clip-path="url(#d90c749f2b)"><path fill="#75aadb" d="M 54.167969 30.667969 C 54.167969 33.625 51.777344 36.019531 48.828125 36.019531 L 11.429688 36.019531 C 8.480469 36.019531 6.089844 33.625 6.089844 30.667969 L 6.089844 6.585938 C 6.089844 3.628906 8.480469 1.234375 11.429688 1.234375 L 48.828125 1.234375 C 51.777344 1.234375 54.167969 3.628906 54.167969 6.585938 Z M 54.167969 30.667969 " fill-opacity="1" fill-rule="nonzero"/></g><g clip-path="url(#91dc0f9171)"><path fill="#eeeeee" d="M 6.089844 11.9375 L 54.167969 11.9375 L 54.167969 25.316406 L 6.089844 25.316406 Z M 6.089844 11.9375 " fill-opacity="1" fill-rule="nonzero"/></g><path fill="#fcbf49" d="M 30.128906 11.9375 L 30.78125 15.347656 L 32.683594 12.445312 L 31.984375 15.84375 L 34.851562 13.894531 L 32.902344 16.769531 L 36.296875 16.066406 L 33.402344 17.972656 L 36.804688 18.625 L 33.402344 19.28125 L 36.296875 21.1875 L 32.902344 20.484375 L 34.851562 23.355469 L 31.984375 21.40625 L 32.683594 24.804688 L 30.78125 21.90625 L 30.128906 25.316406 L 29.476562 21.90625 L 27.574219 24.804688 L 28.273438 21.40625 L 25.40625 23.355469 L 27.351562 20.484375 L 23.960938 21.1875 L 26.855469 19.28125 L 23.453125 18.625 L 26.855469 17.972656 L 23.960938 16.066406 L 27.351562 16.769531 L 25.40625 13.894531 L 28.273438 15.84375 L 27.574219 12.445312 L 29.476562 15.347656 Z M 30.128906 11.9375 " fill-opacity="1" fill-rule="nonzero"/><path fill="#843511" d="M 30.128906 13.714844 L 30.453125 15.410156 L 30.605469 16.21875 L 31.058594 15.53125 L 32.003906 14.089844 L 31.65625 15.777344 L 31.488281 16.585938 L 32.171875 16.125 L 33.59375 15.15625 L 32.628906 16.582031 L 32.167969 17.265625 L 32.972656 17.097656 L 34.65625 16.75 L 33.21875 17.695312 L 32.53125 18.148438 L 33.339844 18.304688 L 35.03125 18.625 L 33.339844 18.949219 L 32.53125 19.105469 L 33.21875 19.558594 L 34.65625 20.507812 L 32.972656 20.15625 L 32.164062 19.988281 L 32.625 20.671875 L 33.59375 22.097656 L 32.167969 21.128906 L 31.488281 20.667969 L 31.65625 21.476562 L 32.003906 23.164062 L 31.058594 21.722656 L 30.605469 21.035156 L 30.453125 21.84375 L 30.128906 23.535156 L 29.804688 21.84375 L 29.652344 21.035156 L 29.199219 21.722656 L 28.253906 23.164062 L 28.601562 21.476562 L 28.765625 20.667969 L 28.085938 21.132812 L 26.660156 22.097656 L 27.628906 20.671875 L 28.089844 19.988281 L 27.28125 20.15625 L 25.597656 20.507812 L 27.035156 19.558594 L 27.722656 19.105469 L 26.914062 18.949219 L 25.226562 18.625 L 26.917969 18.304688 L 27.726562 18.148438 L 27.035156 17.695312 L 25.601562 16.746094 L 27.285156 17.09375 L 28.089844 17.261719 L 27.628906 16.578125 L 26.660156 15.152344 L 28.085938 16.121094 L 28.765625 16.585938 L 28.597656 15.777344 L 28.25 14.089844 L 29.195312 15.53125 L 29.648438 16.21875 L 29.804688 15.410156 L 30.128906 13.714844 M 30.128906 11.9375 L 29.476562 15.347656 L 27.574219 12.445312 L 28.273438 15.847656 L 25.40625 13.898438 L 27.351562 16.769531 L 23.960938 16.070312 L 26.855469 17.976562 L 23.453125 18.625 L 26.855469 19.28125 L 23.960938 21.1875 L 27.351562 20.484375 L 25.40625 23.355469 L 28.273438 21.40625 L 27.574219 24.804688 L 29.476562 21.90625 L 30.128906 25.316406 L 30.78125 21.90625 L 32.683594 24.804688 L 31.984375 21.40625 L 34.851562 23.355469 L 32.902344 20.484375 L 36.296875 21.1875 L 33.402344 19.28125 L 36.804688 18.625 L 33.402344 17.972656 L 36.296875 16.066406 L 32.902344 16.769531 L 34.851562 13.894531 L 31.984375 15.84375 L 32.683594 12.445312 L 30.78125 15.34375 Z M 32.683594 12.445312 L 32.691406 12.445312 Z M 34.851562 13.894531 L 34.855469 13.894531 Z M 36.296875 16.066406 L 36.304688 16.066406 Z M 36.296875 16.066406 " fill-opacity="1" fill-rule="nonzero"/><path fill="#fcbf49" d="M 32.800781 18.625 C 32.800781 18.980469 32.730469 19.324219 32.597656 19.652344 C 32.460938 19.976562 32.269531 20.269531 32.015625 20.519531 C 31.765625 20.769531 31.476562 20.964844 31.152344 21.097656 C 30.824219 21.234375 30.484375 21.300781 30.128906 21.300781 C 29.773438 21.300781 29.433594 21.234375 29.105469 21.097656 C 28.78125 20.964844 28.492188 20.769531 28.238281 20.519531 C 27.988281 20.269531 27.796875 19.976562 27.660156 19.652344 C 27.527344 19.324219 27.457031 18.980469 27.457031 18.625 C 27.457031 18.273438 27.527344 17.929688 27.660156 17.601562 C 27.796875 17.273438 27.988281 16.984375 28.238281 16.734375 C 28.492188 16.484375 28.78125 16.289062 29.105469 16.15625 C 29.433594 16.019531 29.773438 15.949219 30.128906 15.949219 C 30.484375 15.949219 30.824219 16.019531 31.152344 16.15625 C 31.476562 16.289062 31.765625 16.484375 32.015625 16.734375 C 32.269531 16.984375 32.460938 17.273438 32.597656 17.601562 C 32.730469 17.929688 32.800781 18.273438 32.800781 18.625 Z M 32.800781 18.625 " fill-opacity="1" fill-rule="nonzero"/><path fill="#843511" d="M 30.128906 21.46875 C 28.5625 21.46875 27.289062 20.195312 27.289062 18.625 C 27.289062 17.058594 28.5625 15.785156 30.128906 15.785156 C 31.695312 15.785156 32.96875 17.058594 32.96875 18.625 C 32.96875 20.195312 31.695312 21.46875 30.128906 21.46875 Z M 30.128906 16.117188 C 28.746094 16.117188 27.625 17.242188 27.625 18.625 C 27.625 20.011719 28.746094 21.136719 30.128906 21.136719 C 31.507812 21.136719 32.632812 20.011719 32.632812 18.625 C 32.632812 17.242188 31.507812 16.117188 30.128906 16.117188 Z M 30.128906 16.117188 " fill-opacity="1" fill-rule="nonzero"/><path fill="#c16540" d="M 29.863281 18.324219 C 29.863281 18.53125 29.515625 18.699219 29.085938 18.699219 C 28.652344 18.699219 28.304688 18.53125 28.304688 18.324219 C 28.304688 18.117188 28.652344 17.949219 29.085938 17.949219 C 29.515625 17.949219 29.863281 18.117188 29.863281 18.324219 Z M 31.9375 18.292969 C 31.9375 18.078125 31.582031 17.902344 31.144531 17.902344 C 30.707031 17.902344 30.351562 18.074219 30.351562 18.292969 C 30.351562 18.507812 30.707031 18.683594 31.144531 18.683594 C 31.582031 18.683594 31.9375 18.507812 31.9375 18.292969 Z M 31.9375 18.292969 " fill-opacity="1" fill-rule="nonzero"/><path fill="#ed8662" d="M 29.410156 19.796875 C 29.410156 19.628906 29.738281 19.488281 30.144531 19.488281 C 30.546875 19.488281 30.875 19.625 30.875 19.796875 C 30.875 19.964844 30.546875 20.101562 30.144531 20.101562 C 29.738281 20.101562 29.410156 19.964844 29.410156 19.796875 Z M 29.410156 19.796875 " fill-opacity="1" fill-rule="nonzero"/></svg>