<svg xmlns="http://www.w3.org/2000/svg" xmlns:xlink="http://www.w3.org/1999/xlink" width="80" zoomAndPan="magnify" viewBox="0 0 60 37.5" height="50" preserveAspectRatio="xMidYMid meet" version="1.0"><defs><clipPath id="fd6572bc2e"><path d="M 6.246094 1.355469 L 53.613281 1.355469 L 53.613281 35.402344 L 6.246094 35.402344 Z M 6.246094 1.355469 " clip-rule="nonzero"/></clipPath><clipPath id="40e221ff34"><path d="M 6.246094 1.355469 L 32 1.355469 L 32 19 L 6.246094 19 Z M 6.246094 1.355469 " clip-rule="nonzero"/></clipPath><clipPath id="da402c5837"><path d="M 7 1.355469 L 32 1.355469 L 32 19 L 7 19 Z M 7 1.355469 " clip-rule="nonzero"/></clipPath></defs><g clip-path="url(#fd6572bc2e)"><path fill="#00247d" d="M 48.339844 1.355469 L 11.519531 1.355469 C 11.25 1.355469 10.984375 1.375 10.726562 1.414062 L 10.71875 3.710938 L 7.128906 3.707031 C 6.582031 4.535156 6.261719 5.527344 6.261719 6.59375 L 6.261719 30.164062 C 6.261719 33.058594 8.613281 35.402344 11.519531 35.402344 L 48.339844 35.402344 C 51.242188 35.402344 53.597656 33.058594 53.597656 30.164062 L 53.597656 6.59375 C 53.597656 3.703125 51.242188 1.355469 48.339844 1.355469 Z M 48.339844 1.355469 " fill-opacity="1" fill-rule="nonzero"/></g><path fill="#ffffff" d="M 18.09375 28.886719 L 16.488281 30.363281 L 16.648438 28.191406 L 14.484375 27.863281 L 16.289062 26.628906 L 15.199219 24.742188 L 17.292969 25.378906 L 18.09375 23.351562 L 18.898438 25.378906 L 20.992188 24.742188 L 19.898438 26.628906 L 21.707031 27.863281 L 19.542969 28.191406 L 19.703125 30.363281 Z M 43.011719 7.332031 L 41.960938 8.296875 L 42.066406 6.875 L 40.648438 6.660156 L 41.832031 5.855469 L 41.121094 4.617188 L 42.488281 5.035156 L 43.011719 3.710938 L 43.539062 5.035156 L 44.910156 4.617188 L 44.195312 5.855469 L 45.375 6.660156 L 43.960938 6.875 L 44.066406 8.296875 Z M 37.753906 15.1875 L 36.703125 16.15625 L 36.804688 14.734375 L 35.390625 14.519531 L 36.574219 13.710938 L 35.859375 12.476562 L 37.226562 12.894531 L 37.753906 11.566406 L 38.28125 12.894531 L 39.648438 12.476562 L 38.933594 13.710938 L 40.117188 14.519531 L 38.703125 14.734375 L 38.804688 16.15625 Z M 49.585938 12.566406 L 48.539062 13.535156 L 48.640625 12.113281 L 47.226562 11.898438 L 48.40625 11.09375 L 47.695312 9.855469 L 49.0625 10.273438 L 49.585938 8.949219 L 50.113281 10.273438 L 51.484375 9.855469 L 50.769531 11.09375 L 51.949219 11.898438 L 50.535156 12.113281 L 50.640625 13.535156 Z M 43.011719 30.902344 L 41.960938 31.867188 L 42.066406 30.445312 L 40.648438 30.230469 L 41.832031 29.425781 L 41.121094 28.1875 L 42.488281 28.605469 L 43.011719 27.28125 L 43.539062 28.605469 L 44.910156 28.1875 L 44.195312 29.425781 L 45.375 30.230469 L 43.960938 30.445312 L 44.066406 31.867188 Z M 47.023438 15.761719 L 47.410156 16.542969 L 48.273438 16.664062 L 47.648438 17.273438 L 47.796875 18.128906 L 47.023438 17.726562 L 46.25 18.128906 L 46.398438 17.273438 L 45.773438 16.664062 L 46.636719 16.542969 Z M 47.023438 15.761719 " fill-opacity="1" fill-rule="nonzero"/><g clip-path="url(#40e221ff34)"><path fill="#00247d" d="M 31.246094 18.378906 L 31.246094 1.355469 L 11.519531 1.355469 C 11.097656 1.355469 10.726562 1.414062 10.726562 1.414062 L 10.71875 3.710938 L 7.128906 3.707031 C 7.128906 3.707031 7.074219 3.785156 6.964844 3.976562 C 6.515625 4.746094 6.261719 5.640625 6.261719 6.59375 L 6.261719 18.378906 Z M 31.246094 18.378906 " fill-opacity="1" fill-rule="nonzero"/><path fill="#eeeeee" d="M 31.246094 1.355469 L 28.179688 1.355469 L 22.039062 5.636719 L 22.039062 1.355469 L 15.464844 1.355469 L 15.464844 4.71875 L 10.726562 1.414062 C 9.917969 1.539062 9.160156 1.839844 8.527344 2.285156 L 14.710938 6.59375 L 12.425781 6.59375 L 7.53125 3.179688 C 7.386719 3.347656 7.253906 3.519531 7.128906 3.707031 L 11.273438 6.59375 L 6.261719 6.59375 L 6.261719 13.140625 L 11.367188 13.140625 L 6.261719 16.765625 L 6.261719 18.378906 L 10.640625 18.378906 L 15.464844 15.015625 L 15.464844 18.378906 L 22.039062 18.378906 L 22.039062 14.097656 L 28.175781 18.378906 L 31.246094 18.378906 L 31.246094 15.722656 L 27.542969 13.140625 L 31.246094 13.140625 L 31.246094 6.59375 L 27.542969 6.59375 L 31.246094 4.011719 Z M 31.246094 1.355469 " fill-opacity="1" fill-rule="nonzero"/><path fill="#cf1b2b" d="M 20.722656 1.355469 L 16.78125 1.355469 L 16.78125 7.902344 L 6.261719 7.902344 L 6.261719 11.832031 L 16.78125 11.832031 L 16.78125 18.378906 L 20.722656 18.378906 L 20.722656 11.832031 L 31.246094 11.832031 L 31.246094 7.902344 L 20.722656 7.902344 Z M 20.722656 1.355469 " fill-opacity="1" fill-rule="nonzero"/></g><g clip-path="url(#da402c5837)"><path fill="#cf1b2b" d="M 31.246094 1.355469 L 29.324219 1.355469 L 22.039062 6.4375 L 22.039062 6.59375 L 24.105469 6.59375 L 31.246094 1.617188 Z M 8.527344 2.285156 C 8.15625 2.542969 7.824219 2.839844 7.53125 3.179688 L 12.425781 6.59375 L 14.707031 6.59375 Z M 14.722656 13.140625 L 7.226562 18.378906 L 9.496094 18.378906 L 15.464844 14.21875 L 15.464844 13.140625 Z M 31.246094 18.121094 L 31.246094 16.523438 L 26.394531 13.140625 L 24.105469 13.140625 Z M 31.246094 18.121094 " fill-opacity="1" fill-rule="nonzero"/></g></svg>