<svg xmlns="http://www.w3.org/2000/svg" xmlns:xlink="http://www.w3.org/1999/xlink" width="80" zoomAndPan="magnify" viewBox="0 0 60 37.5" height="50" preserveAspectRatio="xMidYMid meet" version="1.0"><defs><clipPath id="252047d09f"><path d="M 5.78125 1.023438 L 53.890625 1.023438 L 53.890625 35.808594 L 5.78125 35.808594 Z M 5.78125 1.023438 " clip-rule="nonzero"/></clipPath></defs><g clip-path="url(#252047d09f)"><path fill="#009b3a" d="M 53.878906 30.457031 C 53.878906 33.414062 51.484375 35.808594 48.535156 35.808594 L 11.136719 35.808594 C 8.1875 35.808594 5.796875 33.414062 5.796875 30.457031 L 5.796875 6.375 C 5.796875 3.417969 8.1875 1.023438 11.136719 1.023438 L 48.535156 1.023438 C 51.484375 1.023438 53.878906 3.417969 53.878906 6.375 Z M 53.878906 30.457031 " fill-opacity="1" fill-rule="nonzero"/></g><path fill="#fedf01" d="M 49.507812 18.417969 L 29.835938 33.300781 L 10.167969 18.417969 L 29.835938 3.53125 Z M 49.507812 18.417969 " fill-opacity="1" fill-rule="nonzero"/><path fill="#002776" d="M 38.429688 18.3125 C 38.429688 18.882812 38.375 19.445312 38.265625 20 C 38.15625 20.554688 37.992188 21.097656 37.773438 21.621094 C 37.558594 22.144531 37.292969 22.644531 36.976562 23.113281 C 36.664062 23.585938 36.304688 24.023438 35.902344 24.425781 C 35.503906 24.824219 35.066406 25.183594 34.597656 25.5 C 34.125 25.8125 33.628906 26.078125 33.105469 26.296875 C 32.582031 26.515625 32.042969 26.679688 31.488281 26.789062 C 30.933594 26.898438 30.371094 26.953125 29.804688 26.953125 C 29.238281 26.953125 28.679688 26.898438 28.121094 26.789062 C 27.566406 26.679688 27.027344 26.515625 26.503906 26.296875 C 25.980469 26.078125 25.484375 25.8125 25.011719 25.5 C 24.542969 25.183594 24.105469 24.824219 23.707031 24.425781 C 23.304688 24.023438 22.949219 23.585938 22.632812 23.113281 C 22.320312 22.644531 22.054688 22.144531 21.835938 21.621094 C 21.621094 21.097656 21.457031 20.554688 21.34375 20 C 21.234375 19.445312 21.179688 18.882812 21.179688 18.3125 C 21.179688 17.746094 21.234375 17.183594 21.34375 16.628906 C 21.457031 16.074219 21.621094 15.53125 21.835938 15.007812 C 22.054688 14.484375 22.320312 13.984375 22.632812 13.515625 C 22.949219 13.042969 23.304688 12.605469 23.707031 12.203125 C 24.105469 11.804688 24.542969 11.445312 25.011719 11.128906 C 25.484375 10.816406 25.980469 10.550781 26.503906 10.332031 C 27.027344 10.113281 27.566406 9.949219 28.121094 9.839844 C 28.679688 9.730469 29.238281 9.675781 29.804688 9.675781 C 30.371094 9.675781 30.933594 9.730469 31.488281 9.839844 C 32.042969 9.949219 32.582031 10.113281 33.105469 10.332031 C 33.628906 10.550781 34.125 10.816406 34.597656 11.128906 C 35.066406 11.445312 35.503906 11.804688 35.902344 12.203125 C 36.304688 12.605469 36.664062 13.042969 36.976562 13.515625 C 37.292969 13.984375 37.558594 14.484375 37.773438 15.007812 C 37.992188 15.53125 38.15625 16.074219 38.265625 16.628906 C 38.375 17.183594 38.429688 17.746094 38.429688 18.3125 Z M 38.429688 18.3125 " fill-opacity="1" fill-rule="nonzero"/><path fill="#cbe9d4" d="M 22.195312 14.25 C 21.75 15.082031 21.449219 15.996094 21.296875 16.957031 C 26.632812 16.570312 33.875 19.488281 36.980469 23.105469 C 37.519531 22.296875 37.917969 21.394531 38.160156 20.425781 C 34.324219 16.667969 27.585938 14.230469 22.195312 14.25 Z M 22.195312 14.25 " fill-opacity="1" fill-rule="nonzero"/><path fill="#88c9f9" d="M 21.824219 18.726562 L 23.160156 18.726562 L 23.160156 20.066406 L 21.824219 20.066406 Z M 23.160156 21.402344 L 24.496094 21.402344 L 24.496094 22.742188 L 23.160156 22.742188 Z M 23.160156 21.402344 " fill-opacity="1" fill-rule="nonzero"/><path fill="#55acee" d="M 25.832031 18.726562 L 27.164062 18.726562 L 27.164062 20.066406 L 25.832031 20.066406 Z M 28.5 20.066406 L 29.835938 20.066406 L 29.835938 21.402344 L 28.5 21.402344 Z M 33.84375 22.742188 L 35.179688 22.742188 L 35.179688 24.078125 L 33.84375 24.078125 Z M 29.835938 24.078125 L 31.171875 24.078125 L 31.171875 25.417969 L 29.835938 25.417969 Z M 33.84375 16.050781 L 35.179688 16.050781 L 35.179688 17.390625 L 33.84375 17.390625 Z M 33.84375 16.050781 " fill-opacity="1" fill-rule="nonzero"/><path fill="#3b88c3" d="M 31.171875 21.402344 L 32.507812 21.402344 L 32.507812 22.742188 L 31.171875 22.742188 Z M 31.171875 21.402344 " fill-opacity="1" fill-rule="nonzero"/></svg>