<svg xmlns="http://www.w3.org/2000/svg" xmlns:xlink="http://www.w3.org/1999/xlink" width="200" zoomAndPan="magnify" viewBox="0 0 150 149.999998" height="200" preserveAspectRatio="xMidYMid meet" version="1.0"><defs><clipPath id="209748e1cc"><path d="M 7.515625 16 L 142.515625 16 L 142.515625 135 L 7.515625 135 Z M 7.515625 16 " clip-rule="nonzero"/></clipPath><clipPath id="6e2804bc99"><path d="M 140.625 52.46875 C 140.082031 52.15625 139.5 52 138.875 52 C 138.25 52 137.664062 52.15625 137.125 52.46875 L 106.578125 70.097656 L 106.578125 60.757812 C 106.578125 60.296875 106.488281 59.847656 106.3125 59.417969 C 106.132812 58.992188 105.878906 58.613281 105.550781 58.285156 C 105.222656 57.957031 104.84375 57.703125 104.414062 57.523438 C 103.984375 57.347656 103.539062 57.257812 103.074219 57.257812 L 77.90625 57.257812 C 78.574219 56.589844 79.199219 55.886719 79.785156 55.144531 C 80.371094 54.402344 80.914062 53.628906 81.40625 52.820312 C 81.898438 52.015625 82.34375 51.183594 82.738281 50.324219 C 83.136719 49.464844 83.476562 48.585938 83.769531 47.6875 C 84.058594 46.789062 84.296875 45.875 84.480469 44.949219 C 84.664062 44.019531 84.789062 43.085938 84.863281 42.144531 C 84.933594 41.199219 84.949219 40.257812 84.910156 39.3125 C 84.871094 38.367188 84.773438 37.429688 84.621094 36.496094 C 84.472656 35.5625 84.265625 34.644531 84.003906 33.734375 C 83.742188 32.824219 83.429688 31.9375 83.066406 31.0625 C 82.699219 30.191406 82.28125 29.347656 81.816406 28.523438 C 81.351562 27.703125 80.835938 26.910156 80.277344 26.148438 C 79.714844 25.386719 79.113281 24.660156 78.464844 23.972656 C 77.820312 23.28125 77.136719 22.632812 76.410156 22.023438 C 75.6875 21.414062 74.929688 20.851562 74.140625 20.332031 C 73.351562 19.8125 72.535156 19.34375 71.6875 18.921875 C 70.839844 18.5 69.972656 18.128906 69.082031 17.808594 C 68.195312 17.488281 67.289062 17.226562 66.367188 17.011719 C 65.445312 16.800781 64.515625 16.644531 63.574219 16.542969 C 62.632812 16.441406 61.691406 16.394531 60.746094 16.40625 C 59.800781 16.414062 58.859375 16.480469 57.921875 16.601562 C 56.984375 16.726562 56.058594 16.902344 55.140625 17.132812 C 54.222656 17.363281 53.324219 17.648438 52.441406 17.988281 C 51.558594 18.324219 50.699219 18.714844 49.863281 19.15625 C 49.027344 19.59375 48.21875 20.082031 47.4375 20.621094 C 46.660156 21.15625 45.914062 21.734375 45.207031 22.359375 C 44.496094 22.984375 43.824219 23.648438 43.195312 24.351562 C 42.5625 25.054688 41.972656 25.792969 41.429688 26.566406 C 40.886719 27.339844 40.390625 28.140625 39.941406 28.972656 C 39.492188 29.804688 39.09375 30.660156 38.746094 31.539062 C 38.402344 32.417969 38.105469 33.316406 37.867188 34.230469 C 37.625 35.144531 37.4375 36.066406 37.308594 37.003906 C 36.613281 36.640625 35.894531 36.339844 35.152344 36.09375 C 34.410156 35.847656 33.652344 35.664062 32.882812 35.542969 C 32.109375 35.417969 31.332031 35.359375 30.550781 35.363281 C 29.765625 35.367188 28.992188 35.4375 28.21875 35.566406 C 27.449219 35.699219 26.691406 35.890625 25.953125 36.144531 C 25.214844 36.398438 24.5 36.707031 23.808594 37.078125 C 23.121094 37.449219 22.464844 37.871094 21.84375 38.347656 C 21.226562 38.824219 20.648438 39.347656 20.113281 39.917969 C 19.578125 40.488281 19.089844 41.097656 18.65625 41.746094 C 18.21875 42.394531 17.839844 43.074219 17.515625 43.785156 C 17.1875 44.496094 16.921875 45.230469 16.71875 45.984375 C 16.511719 46.738281 16.367188 47.503906 16.285156 48.28125 C 16.207031 49.058594 16.1875 49.839844 16.234375 50.621094 C 16.277344 51.402344 16.386719 52.171875 16.558594 52.933594 C 16.730469 53.699219 16.960938 54.441406 17.253906 55.167969 C 17.546875 55.894531 17.894531 56.589844 18.300781 57.257812 L 11.148438 57.257812 C 10.683594 57.257812 10.238281 57.347656 9.808594 57.523438 C 9.378906 57.703125 9 57.957031 8.671875 58.285156 C 8.34375 58.613281 8.089844 58.992188 7.910156 59.417969 C 7.734375 59.847656 7.644531 60.296875 7.644531 60.757812 L 7.644531 126.046875 C 7.644531 126.511719 7.734375 126.957031 7.910156 127.386719 C 8.089844 127.816406 8.34375 128.191406 8.671875 128.523438 C 9 128.851562 9.378906 129.101562 9.808594 129.28125 C 10.238281 129.457031 10.683594 129.546875 11.148438 129.546875 L 103.074219 129.546875 C 103.539062 129.546875 103.984375 129.457031 104.414062 129.28125 C 104.84375 129.101562 105.222656 128.851562 105.550781 128.523438 C 105.878906 128.191406 106.132812 127.816406 106.3125 127.386719 C 106.488281 126.957031 106.578125 126.511719 106.578125 126.046875 L 106.578125 116.699219 L 137.132812 134.335938 C 137.675781 134.648438 138.257812 134.804688 138.882812 134.804688 C 139.507812 134.804688 140.09375 134.648438 140.632812 134.335938 C 141.175781 134.023438 141.605469 133.59375 141.917969 133.050781 C 142.230469 132.507812 142.386719 131.925781 142.386719 131.296875 L 142.386719 55.5 C 142.382812 54.875 142.226562 54.289062 141.910156 53.75 C 141.597656 53.207031 141.167969 52.78125 140.625 52.46875 Z M 61.050781 23.402344 C 61.605469 23.402344 62.15625 23.433594 62.710938 23.488281 C 63.261719 23.542969 63.808594 23.625 64.351562 23.734375 C 64.894531 23.84375 65.433594 23.980469 65.960938 24.144531 C 66.492188 24.304688 67.011719 24.492188 67.523438 24.707031 C 68.035156 24.917969 68.535156 25.15625 69.023438 25.417969 C 69.511719 25.683594 69.984375 25.96875 70.445312 26.277344 C 70.90625 26.585938 71.351562 26.917969 71.777344 27.269531 C 72.207031 27.621094 72.613281 27.992188 73.007812 28.386719 C 73.398438 28.777344 73.769531 29.191406 74.117188 29.617188 C 74.46875 30.046875 74.796875 30.492188 75.105469 30.953125 C 75.414062 31.414062 75.695312 31.890625 75.957031 32.378906 C 76.214844 32.871094 76.453125 33.371094 76.664062 33.882812 C 76.875 34.394531 77.058594 34.917969 77.21875 35.445312 C 77.378906 35.976562 77.511719 36.515625 77.621094 37.058594 C 77.726562 37.601562 77.808594 38.148438 77.859375 38.699219 C 77.914062 39.253906 77.941406 39.804688 77.941406 40.359375 C 77.9375 40.914062 77.910156 41.464844 77.855469 42.019531 C 77.800781 42.570312 77.71875 43.117188 77.609375 43.660156 C 77.5 44.203125 77.363281 44.738281 77.203125 45.269531 C 77.039062 45.800781 76.855469 46.320312 76.640625 46.832031 C 76.429688 47.34375 76.191406 47.84375 75.929688 48.332031 C 75.667969 48.820312 75.382812 49.292969 75.074219 49.753906 C 74.765625 50.214844 74.433594 50.660156 74.082031 51.085938 C 73.730469 51.515625 73.355469 51.925781 72.964844 52.316406 C 72.574219 52.707031 72.160156 53.078125 71.734375 53.429688 C 71.304688 53.78125 70.859375 54.109375 70.398438 54.417969 C 69.9375 54.722656 69.460938 55.007812 68.972656 55.269531 C 68.484375 55.527344 67.984375 55.765625 67.46875 55.976562 C 66.957031 56.1875 66.4375 56.375 65.90625 56.535156 C 65.375 56.695312 64.839844 56.828125 64.292969 56.9375 C 63.75 57.042969 63.203125 57.125 62.652344 57.179688 C 62.101562 57.230469 61.546875 57.257812 60.992188 57.257812 C 60.4375 57.257812 59.886719 57.230469 59.335938 57.175781 C 58.78125 57.121094 58.234375 57.039062 57.691406 56.929688 C 57.148438 56.820312 56.609375 56.6875 56.082031 56.527344 C 55.550781 56.363281 55.03125 56.179688 54.515625 55.964844 C 54.003906 55.753906 53.503906 55.515625 53.015625 55.253906 C 52.527344 54.992188 52.054688 54.707031 51.59375 54.398438 C 51.132812 54.09375 50.6875 53.761719 50.257812 53.410156 C 49.832031 53.058594 49.421875 52.6875 49.027344 52.296875 C 48.636719 51.902344 48.265625 51.492188 47.914062 51.0625 C 47.5625 50.636719 47.234375 50.191406 46.925781 49.730469 C 46.617188 49.269531 46.332031 48.792969 46.074219 48.304688 C 45.8125 47.816406 45.574219 47.316406 45.363281 46.804688 C 45.152344 46.292969 44.964844 45.773438 44.804688 45.242188 C 44.644531 44.710938 44.507812 44.175781 44.398438 43.632812 C 44.292969 43.085938 44.210938 42.539062 44.15625 41.988281 C 44.101562 41.4375 44.074219 40.882812 44.074219 40.332031 C 44.074219 39.773438 44.105469 39.222656 44.160156 38.667969 C 44.214844 38.117188 44.296875 37.570312 44.40625 37.023438 C 44.515625 36.480469 44.652344 35.941406 44.8125 35.410156 C 44.972656 34.878906 45.160156 34.359375 45.375 33.847656 C 45.589844 33.332031 45.828125 32.832031 46.089844 32.34375 C 46.351562 31.855469 46.636719 31.378906 46.945312 30.917969 C 47.253906 30.457031 47.585938 30.011719 47.9375 29.582031 C 48.292969 29.15625 48.664062 28.746094 49.058594 28.351562 C 49.449219 27.960938 49.863281 27.589844 50.292969 27.238281 C 50.722656 26.886719 51.167969 26.554688 51.628906 26.25 C 52.089844 25.941406 52.566406 25.65625 53.058594 25.394531 C 53.546875 25.132812 54.050781 24.898438 54.5625 24.6875 C 55.074219 24.472656 55.597656 24.289062 56.128906 24.128906 C 56.660156 23.964844 57.199219 23.832031 57.742188 23.726562 C 58.289062 23.617188 58.835938 23.535156 59.390625 23.484375 C 59.941406 23.429688 60.496094 23.402344 61.050781 23.402344 Z M 44.101562 57.257812 L 43.015625 57.257812 C 43.15625 57.023438 43.296875 56.785156 43.425781 56.550781 Z M 23.210938 49.820312 C 23.210938 49.328125 23.257812 48.847656 23.355469 48.367188 C 23.449219 47.886719 23.589844 47.421875 23.777344 46.972656 C 23.964844 46.519531 24.195312 46.089844 24.464844 45.683594 C 24.738281 45.277344 25.046875 44.902344 25.390625 44.558594 C 25.738281 44.210938 26.113281 43.902344 26.519531 43.632812 C 26.925781 43.359375 27.355469 43.132812 27.804688 42.945312 C 28.257812 42.757812 28.722656 42.617188 29.203125 42.523438 C 29.679688 42.425781 30.164062 42.378906 30.652344 42.378906 C 31.140625 42.378906 31.625 42.425781 32.105469 42.523438 C 32.585938 42.617188 33.050781 42.757812 33.5 42.945312 C 33.953125 43.132812 34.382812 43.359375 34.789062 43.632812 C 35.195312 43.902344 35.570312 44.210938 35.914062 44.558594 C 36.261719 44.902344 36.570312 45.277344 36.839844 45.683594 C 37.113281 46.089844 37.34375 46.519531 37.527344 46.972656 C 37.714844 47.421875 37.855469 47.886719 37.953125 48.367188 C 38.046875 48.847656 38.09375 49.328125 38.09375 49.820312 C 38.09375 50.308594 38.046875 50.789062 37.953125 51.269531 C 37.855469 51.75 37.714844 52.214844 37.527344 52.664062 C 37.34375 53.117188 37.113281 53.546875 36.839844 53.953125 C 36.570312 54.359375 36.261719 54.734375 35.914062 55.078125 C 35.570312 55.425781 35.195312 55.734375 34.789062 56.003906 C 34.382812 56.277344 33.953125 56.503906 33.5 56.691406 C 33.050781 56.878906 32.585938 57.019531 32.105469 57.117188 C 31.625 57.210938 31.140625 57.257812 30.652344 57.257812 C 30.164062 57.257812 29.679688 57.210938 29.203125 57.113281 C 28.722656 57.019531 28.257812 56.875 27.808594 56.691406 C 27.355469 56.503906 26.925781 56.273438 26.519531 56 C 26.117188 55.730469 25.738281 55.421875 25.394531 55.078125 C 25.046875 54.730469 24.742188 54.355469 24.46875 53.949219 C 24.199219 53.542969 23.96875 53.113281 23.78125 52.664062 C 23.59375 52.214844 23.453125 51.75 23.355469 51.269531 C 23.261719 50.789062 23.210938 50.308594 23.210938 49.820312 Z M 99.574219 122.542969 L 14.648438 122.542969 L 14.648438 64.261719 L 99.574219 64.261719 Z M 135.382812 125.230469 L 106.578125 108.601562 L 106.578125 78.1875 L 135.382812 61.554688 Z M 33.035156 93.425781 C 33.035156 94.214844 33.074219 95.003906 33.152344 95.789062 C 33.230469 96.574219 33.347656 97.355469 33.503906 98.128906 C 33.65625 98.902344 33.847656 99.667969 34.078125 100.425781 C 34.308594 101.179688 34.574219 101.921875 34.878906 102.652344 C 35.179688 103.382812 35.519531 104.09375 35.894531 104.792969 C 36.265625 105.488281 36.671875 106.164062 37.113281 106.820312 C 37.550781 107.476562 38.023438 108.109375 38.523438 108.722656 C 39.027344 109.332031 39.554688 109.914062 40.113281 110.472656 C 40.675781 111.03125 41.257812 111.5625 41.871094 112.0625 C 42.480469 112.5625 43.117188 113.03125 43.773438 113.46875 C 44.429688 113.90625 45.109375 114.3125 45.804688 114.683594 C 46.503906 115.054688 47.214844 115.394531 47.945312 115.695312 C 48.675781 115.996094 49.421875 116.261719 50.175781 116.488281 C 50.933594 116.71875 51.699219 116.910156 52.472656 117.0625 C 53.25 117.214844 54.03125 117.332031 54.816406 117.40625 C 55.601562 117.484375 56.390625 117.523438 57.179688 117.519531 C 57.972656 117.519531 58.757812 117.480469 59.546875 117.402344 C 60.332031 117.324219 61.113281 117.207031 61.886719 117.050781 C 62.664062 116.898438 63.425781 116.703125 64.183594 116.472656 C 64.9375 116.242188 65.683594 115.976562 66.410156 115.675781 C 67.140625 115.371094 67.855469 115.03125 68.550781 114.660156 C 69.246094 114.285156 69.921875 113.878906 70.578125 113.441406 C 71.238281 113 71.871094 112.53125 72.480469 112.027344 C 73.089844 111.527344 73.675781 110.996094 74.230469 110.4375 C 74.789062 109.878906 75.320312 109.292969 75.820312 108.679688 C 76.320312 108.070312 76.789062 107.433594 77.226562 106.777344 C 77.664062 106.121094 78.070312 105.441406 78.441406 104.746094 C 78.8125 104.046875 79.148438 103.335938 79.453125 102.605469 C 79.753906 101.875 80.019531 101.132812 80.246094 100.375 C 80.472656 99.617188 80.664062 98.851562 80.816406 98.078125 C 80.972656 97.304688 81.085938 96.523438 81.164062 95.734375 C 81.238281 94.949219 81.277344 94.160156 81.273438 93.371094 C 81.273438 92.582031 81.234375 91.792969 81.15625 91.007812 C 81.078125 90.222656 80.960938 89.441406 80.804688 88.667969 C 80.648438 87.894531 80.457031 87.128906 80.226562 86.371094 C 79.996094 85.617188 79.726562 84.875 79.425781 84.144531 C 79.121094 83.414062 78.78125 82.703125 78.410156 82.007812 C 78.035156 81.308594 77.628906 80.632812 77.1875 79.976562 C 76.75 79.320312 76.277344 78.6875 75.777344 78.078125 C 75.273438 77.46875 74.742188 76.886719 74.183594 76.328125 C 73.625 75.769531 73.039062 75.242188 72.425781 74.742188 C 71.8125 74.242188 71.179688 73.773438 70.523438 73.335938 C 69.863281 72.898438 69.1875 72.492188 68.488281 72.121094 C 67.792969 71.75 67.078125 71.414062 66.347656 71.113281 C 65.617188 70.8125 64.871094 70.546875 64.117188 70.320312 C 63.359375 70.089844 62.59375 69.902344 61.820312 69.75 C 61.042969 69.59375 60.261719 69.480469 59.476562 69.40625 C 58.691406 69.328125 57.902344 69.292969 57.113281 69.292969 C 56.320312 69.296875 55.535156 69.335938 54.75 69.414062 C 53.964844 69.496094 53.183594 69.613281 52.410156 69.769531 C 51.636719 69.925781 50.875 70.117188 50.121094 70.347656 C 49.363281 70.578125 48.621094 70.847656 47.894531 71.148438 C 47.164062 71.453125 46.453125 71.792969 45.757812 72.164062 C 45.0625 72.539062 44.386719 72.945312 43.734375 73.382812 C 43.078125 73.824219 42.445312 74.292969 41.835938 74.796875 C 41.226562 75.296875 40.644531 75.828125 40.085938 76.386719 C 39.527344 76.945312 39 77.527344 38.5 78.140625 C 38 78.75 37.53125 79.382812 37.09375 80.039062 C 36.65625 80.695312 36.25 81.371094 35.878906 82.066406 C 35.507812 82.765625 35.171875 83.476562 34.867188 84.207031 C 34.566406 84.933594 34.300781 85.675781 34.074219 86.429688 C 33.84375 87.1875 33.652344 87.949219 33.5 88.726562 C 33.34375 89.5 33.230469 90.277344 33.152344 91.0625 C 33.074219 91.847656 33.035156 92.636719 33.035156 93.425781 Z M 74.269531 93.425781 C 74.269531 93.984375 74.242188 94.542969 74.1875 95.101562 C 74.132812 95.65625 74.050781 96.210938 73.9375 96.761719 C 73.828125 97.308594 73.691406 97.851562 73.53125 98.386719 C 73.367188 98.921875 73.179688 99.449219 72.964844 99.964844 C 72.75 100.484375 72.507812 100.988281 72.246094 101.484375 C 71.980469 101.976562 71.691406 102.457031 71.382812 102.921875 C 71.070312 103.386719 70.734375 103.835938 70.378906 104.269531 C 70.023438 104.703125 69.648438 105.117188 69.253906 105.511719 C 68.855469 105.90625 68.441406 106.28125 68.007812 106.636719 C 67.574219 106.992188 67.125 107.328125 66.660156 107.636719 C 66.195312 107.949219 65.714844 108.234375 65.21875 108.5 C 64.726562 108.761719 64.21875 109.003906 63.703125 109.21875 C 63.1875 109.429688 62.660156 109.621094 62.121094 109.78125 C 61.585938 109.945312 61.042969 110.082031 60.496094 110.191406 C 59.945312 110.300781 59.390625 110.382812 58.835938 110.4375 C 58.277344 110.492188 57.71875 110.519531 57.15625 110.519531 C 56.597656 110.519531 56.039062 110.492188 55.480469 110.4375 C 54.925781 110.382812 54.371094 110.300781 53.820312 110.191406 C 53.273438 110.082031 52.730469 109.945312 52.191406 109.785156 C 51.65625 109.621094 51.128906 109.433594 50.613281 109.21875 C 50.09375 109.003906 49.589844 108.765625 49.09375 108.503906 C 48.601562 108.238281 48.121094 107.953125 47.65625 107.640625 C 47.1875 107.328125 46.738281 106.996094 46.304688 106.640625 C 45.871094 106.285156 45.457031 105.910156 45.0625 105.515625 C 44.664062 105.121094 44.289062 104.707031 43.933594 104.273438 C 43.578125 103.839844 43.242188 103.390625 42.933594 102.925781 C 42.621094 102.460938 42.332031 101.980469 42.066406 101.488281 C 41.804688 100.996094 41.5625 100.488281 41.347656 99.972656 C 41.132812 99.453125 40.945312 98.929688 40.78125 98.394531 C 40.617188 97.855469 40.480469 97.316406 40.371094 96.765625 C 40.261719 96.214844 40.179688 95.664062 40.125 95.105469 C 40.066406 94.550781 40.039062 93.992188 40.039062 93.429688 C 40.039062 92.871094 40.066406 92.3125 40.117188 91.753906 C 40.171875 91.195312 40.253906 90.644531 40.363281 90.09375 C 40.472656 89.542969 40.605469 89 40.769531 88.464844 C 40.929688 87.929688 41.117188 87.402344 41.332031 86.886719 C 41.542969 86.367188 41.78125 85.859375 42.046875 85.367188 C 42.308594 84.871094 42.597656 84.390625 42.90625 83.925781 C 43.214844 83.460938 43.550781 83.011719 43.902344 82.578125 C 44.257812 82.144531 44.632812 81.726562 45.027344 81.332031 C 45.425781 80.933594 45.835938 80.558594 46.269531 80.203125 C 46.703125 79.84375 47.152344 79.511719 47.617188 79.199219 C 48.082031 78.886719 48.558594 78.597656 49.054688 78.332031 C 49.546875 78.070312 50.050781 77.828125 50.570312 77.613281 C 51.085938 77.398438 51.613281 77.207031 52.148438 77.042969 C 52.683594 76.878906 53.226562 76.742188 53.777344 76.632812 C 54.324219 76.523438 54.878906 76.4375 55.433594 76.382812 C 55.992188 76.324219 56.550781 76.296875 57.113281 76.296875 C 57.671875 76.296875 58.230469 76.324219 58.789062 76.378906 C 59.347656 76.433594 59.902344 76.519531 60.453125 76.628906 C 61 76.738281 61.542969 76.875 62.082031 77.035156 C 62.617188 77.199219 63.144531 77.390625 63.664062 77.605469 C 64.179688 77.820312 64.6875 78.058594 65.179688 78.324219 C 65.675781 78.589844 66.15625 78.875 66.621094 79.1875 C 67.089844 79.5 67.539062 79.832031 67.972656 80.191406 C 68.402344 80.546875 68.820312 80.921875 69.214844 81.320312 C 69.613281 81.714844 69.988281 82.128906 70.34375 82.5625 C 70.699219 82.996094 71.03125 83.449219 71.34375 83.914062 C 71.65625 84.378906 71.941406 84.859375 72.207031 85.355469 C 72.472656 85.847656 72.710938 86.355469 72.925781 86.875 C 73.140625 87.390625 73.328125 87.917969 73.492188 88.457031 C 73.652344 88.992188 73.789062 89.535156 73.898438 90.085938 C 74.007812 90.636719 74.089844 91.1875 74.144531 91.746094 C 74.199219 92.304688 74.226562 92.863281 74.226562 93.425781 Z M 48.53125 81.878906 C 47.988281 82.191406 47.5625 82.617188 47.25 83.160156 C 46.9375 83.699219 46.78125 84.285156 46.78125 84.90625 L 46.78125 101.886719 C 46.78125 102.515625 46.933594 103.097656 47.25 103.640625 C 47.5625 104.183594 47.988281 104.613281 48.53125 104.925781 C 49.074219 105.238281 49.65625 105.394531 50.28125 105.394531 C 50.90625 105.394531 51.492188 105.238281 52.035156 104.925781 L 66.75 96.433594 C 67.292969 96.121094 67.71875 95.695312 68.035156 95.152344 C 68.347656 94.613281 68.503906 94.027344 68.503906 93.402344 C 68.503906 92.777344 68.347656 92.191406 68.035156 91.652344 C 67.71875 91.109375 67.292969 90.683594 66.75 90.371094 L 52.035156 81.878906 C 51.492188 81.566406 50.90625 81.410156 50.28125 81.410156 C 49.65625 81.410156 49.074219 81.566406 48.53125 81.878906 Z M 53.785156 90.972656 L 57.996094 93.425781 L 53.785156 95.832031 Z M 53.785156 90.972656 " clip-rule="nonzero"/></clipPath><linearGradient x1="-0.000000249643" gradientTransform="matrix(0.875501, 0, 0, 0.875273, 7.645502, 16.400438)" y1="67.639999" x2="153.901044" gradientUnits="userSpaceOnUse" y2="67.639999" id="747578357d"><stop stop-opacity="1" stop-color="rgb(7.099915%, 76.098633%, 91.398621%)" offset="0"/><stop stop-opacity="1" stop-color="rgb(7.548523%, 75.892639%, 91.407776%)" offset="0.00390625"/><stop stop-opacity="1" stop-color="rgb(7.998657%, 75.686646%, 91.416931%)" offset="0.0078125"/><stop stop-opacity="1" stop-color="rgb(8.447266%, 75.479126%, 91.424561%)" offset="0.0117188"/><stop stop-opacity="1" stop-color="rgb(8.8974%, 75.273132%, 91.433716%)" offset="0.015625"/><stop stop-opacity="1" stop-color="rgb(9.347534%, 75.065613%, 91.442871%)" offset="0.0195312"/><stop stop-opacity="1" stop-color="rgb(9.797668%, 74.859619%, 91.452026%)" offset="0.0234375"/><stop stop-opacity="1" stop-color="rgb(10.246277%, 74.653625%, 91.459656%)" offset="0.0273438"/><stop stop-opacity="1" stop-color="rgb(10.696411%, 74.447632%, 91.468811%)" offset="0.03125"/><stop stop-opacity="1" stop-color="rgb(11.14502%, 74.240112%, 91.477966%)" offset="0.0351562"/><stop stop-opacity="1" stop-color="rgb(11.595154%, 74.034119%, 91.487122%)" offset="0.0390625"/><stop stop-opacity="1" stop-color="rgb(12.045288%, 73.828125%, 91.494751%)" offset="0.0429688"/><stop stop-opacity="1" stop-color="rgb(12.495422%, 73.622131%, 91.503906%)" offset="0.046875"/><stop stop-opacity="1" stop-color="rgb(12.944031%, 73.414612%, 91.513062%)" offset="0.0507812"/><stop stop-opacity="1" stop-color="rgb(13.394165%, 73.208618%, 91.522217%)" offset="0.0546875"/><stop stop-opacity="1" stop-color="rgb(13.842773%, 73.001099%, 91.529846%)" offset="0.0585938"/><stop stop-opacity="1" stop-color="rgb(14.292908%, 72.795105%, 91.539001%)" offset="0.0625"/><stop stop-opacity="1" stop-color="rgb(14.743042%, 72.589111%, 91.548157%)" offset="0.0664062"/><stop stop-opacity="1" stop-color="rgb(15.193176%, 72.383118%, 91.557312%)" offset="0.0703125"/><stop stop-opacity="1" stop-color="rgb(15.641785%, 72.175598%, 91.564941%)" offset="0.0742187"/><stop stop-opacity="1" stop-color="rgb(16.091919%, 71.969604%, 91.574097%)" offset="0.078125"/><stop stop-opacity="1" stop-color="rgb(16.542053%, 71.762085%, 91.583252%)" offset="0.0820312"/><stop stop-opacity="1" stop-color="rgb(16.992188%, 71.556091%, 91.592407%)" offset="0.0859375"/><stop stop-opacity="1" stop-color="rgb(17.440796%, 71.350098%, 91.600037%)" offset="0.0898438"/><stop stop-opacity="1" stop-color="rgb(17.89093%, 71.144104%, 91.609192%)" offset="0.09375"/><stop stop-opacity="1" stop-color="rgb(18.339539%, 70.936584%, 91.618347%)" offset="0.0976562"/><stop stop-opacity="1" stop-color="rgb(18.789673%, 70.730591%, 91.627502%)" offset="0.101562"/><stop stop-opacity="1" stop-color="rgb(19.239807%, 70.523071%, 91.635132%)" offset="0.105469"/><stop stop-opacity="1" stop-color="rgb(19.689941%, 70.317078%, 91.644287%)" offset="0.109375"/><stop stop-opacity="1" stop-color="rgb(20.13855%, 70.111084%, 91.653442%)" offset="0.113281"/><stop stop-opacity="1" stop-color="rgb(20.588684%, 69.90509%, 91.662598%)" offset="0.117188"/><stop stop-opacity="1" stop-color="rgb(21.037292%, 69.697571%, 91.670227%)" offset="0.121094"/><stop stop-opacity="1" stop-color="rgb(21.487427%, 69.491577%, 91.679382%)" offset="0.125"/><stop stop-opacity="1" stop-color="rgb(21.937561%, 69.284058%, 91.688538%)" offset="0.128906"/><stop stop-opacity="1" stop-color="rgb(22.387695%, 69.078064%, 91.697693%)" offset="0.132812"/><stop stop-opacity="1" stop-color="rgb(22.836304%, 68.87207%, 91.705322%)" offset="0.136719"/><stop stop-opacity="1" stop-color="rgb(23.286438%, 68.666077%, 91.714478%)" offset="0.140625"/><stop stop-opacity="1" stop-color="rgb(23.735046%, 68.458557%, 91.723633%)" offset="0.144531"/><stop stop-opacity="1" stop-color="rgb(24.185181%, 68.252563%, 91.732788%)" offset="0.148437"/><stop stop-opacity="1" stop-color="rgb(24.635315%, 68.045044%, 91.740417%)" offset="0.152344"/><stop stop-opacity="1" stop-color="rgb(25.085449%, 67.83905%, 91.749573%)" offset="0.15625"/><stop stop-opacity="1" stop-color="rgb(25.534058%, 67.633057%, 91.758728%)" offset="0.160156"/><stop stop-opacity="1" stop-color="rgb(25.984192%, 67.427063%, 91.767883%)" offset="0.164062"/><stop stop-opacity="1" stop-color="rgb(26.434326%, 67.219543%, 91.775513%)" offset="0.167969"/><stop stop-opacity="1" stop-color="rgb(26.88446%, 67.01355%, 91.784668%)" offset="0.171875"/><stop stop-opacity="1" stop-color="rgb(27.333069%, 66.80603%, 91.793823%)" offset="0.175781"/><stop stop-opacity="1" stop-color="rgb(27.783203%, 66.600037%, 91.802979%)" offset="0.179688"/><stop stop-opacity="1" stop-color="rgb(28.231812%, 66.394043%, 91.810608%)" offset="0.183594"/><stop stop-opacity="1" stop-color="rgb(28.681946%, 66.188049%, 91.819763%)" offset="0.1875"/><stop stop-opacity="1" stop-color="rgb(29.13208%, 65.98053%, 91.828918%)" offset="0.191406"/><stop stop-opacity="1" stop-color="rgb(29.582214%, 65.774536%, 91.838074%)" offset="0.195312"/><stop stop-opacity="1" stop-color="rgb(30.030823%, 65.568542%, 91.845703%)" offset="0.199219"/><stop stop-opacity="1" stop-color="rgb(30.480957%, 65.362549%, 91.854858%)" offset="0.203125"/><stop stop-opacity="1" stop-color="rgb(30.929565%, 65.155029%, 91.864014%)" offset="0.207031"/><stop stop-opacity="1" stop-color="rgb(31.3797%, 64.949036%, 91.873169%)" offset="0.210937"/><stop stop-opacity="1" stop-color="rgb(31.829834%, 64.741516%, 91.880798%)" offset="0.214844"/><stop stop-opacity="1" stop-color="rgb(32.279968%, 64.535522%, 91.889954%)" offset="0.21875"/><stop stop-opacity="1" stop-color="rgb(32.728577%, 64.329529%, 91.899109%)" offset="0.222656"/><stop stop-opacity="1" stop-color="rgb(33.178711%, 64.123535%, 91.908264%)" offset="0.226562"/><stop stop-opacity="1" stop-color="rgb(33.627319%, 63.916016%, 91.915894%)" offset="0.230469"/><stop stop-opacity="1" stop-color="rgb(34.077454%, 63.710022%, 91.925049%)" offset="0.234375"/><stop stop-opacity="1" stop-color="rgb(34.527588%, 63.502502%, 91.934204%)" offset="0.238281"/><stop stop-opacity="1" stop-color="rgb(34.977722%, 63.296509%, 91.943359%)" offset="0.242187"/><stop stop-opacity="1" stop-color="rgb(35.426331%, 63.090515%, 91.950989%)" offset="0.246094"/><stop stop-opacity="1" stop-color="rgb(35.876465%, 62.884521%, 91.960144%)" offset="0.25"/><stop stop-opacity="1" stop-color="rgb(36.326599%, 62.677002%, 91.969299%)" offset="0.253906"/><stop stop-opacity="1" stop-color="rgb(36.776733%, 62.471008%, 91.978455%)" offset="0.257813"/><stop stop-opacity="1" stop-color="rgb(37.225342%, 62.263489%, 91.986084%)" offset="0.261719"/><stop stop-opacity="1" stop-color="rgb(37.675476%, 62.057495%, 91.995239%)" offset="0.265625"/><stop stop-opacity="1" stop-color="rgb(38.124084%, 61.851501%, 92.004395%)" offset="0.269531"/><stop stop-opacity="1" stop-color="rgb(38.574219%, 61.645508%, 92.01355%)" offset="0.273438"/><stop stop-opacity="1" stop-color="rgb(39.024353%, 61.437988%, 92.021179%)" offset="0.277344"/><stop stop-opacity="1" stop-color="rgb(39.474487%, 61.231995%, 92.030334%)" offset="0.28125"/><stop stop-opacity="1" stop-color="rgb(39.923096%, 61.024475%, 92.03949%)" offset="0.285156"/><stop stop-opacity="1" stop-color="rgb(40.37323%, 60.818481%, 92.048645%)" offset="0.289062"/><stop stop-opacity="1" stop-color="rgb(40.821838%, 60.612488%, 92.056274%)" offset="0.292969"/><stop stop-opacity="1" stop-color="rgb(41.271973%, 60.406494%, 92.06543%)" offset="0.296875"/><stop stop-opacity="1" stop-color="rgb(41.722107%, 60.198975%, 92.074585%)" offset="0.300781"/><stop stop-opacity="1" stop-color="rgb(42.172241%, 59.992981%, 92.08374%)" offset="0.304688"/><stop stop-opacity="1" stop-color="rgb(42.62085%, 59.785461%, 92.09137%)" offset="0.308594"/><stop stop-opacity="1" stop-color="rgb(43.070984%, 59.579468%, 92.100525%)" offset="0.3125"/><stop stop-opacity="1" stop-color="rgb(43.521118%, 59.373474%, 92.10968%)" offset="0.316406"/><stop stop-opacity="1" stop-color="rgb(43.971252%, 59.16748%, 92.118835%)" offset="0.320312"/><stop stop-opacity="1" stop-color="rgb(44.419861%, 58.959961%, 92.126465%)" offset="0.324219"/><stop stop-opacity="1" stop-color="rgb(44.869995%, 58.753967%, 92.13562%)" offset="0.328125"/><stop stop-opacity="1" stop-color="rgb(45.318604%, 58.547974%, 92.144775%)" offset="0.332031"/><stop stop-opacity="1" stop-color="rgb(45.768738%, 58.34198%, 92.153931%)" offset="0.335937"/><stop stop-opacity="1" stop-color="rgb(46.218872%, 58.13446%, 92.16156%)" offset="0.339844"/><stop stop-opacity="1" stop-color="rgb(46.669006%, 57.928467%, 92.170715%)" offset="0.34375"/><stop stop-opacity="1" stop-color="rgb(47.117615%, 57.720947%, 92.179871%)" offset="0.347656"/><stop stop-opacity="1" stop-color="rgb(47.567749%, 57.514954%, 92.189026%)" offset="0.351563"/><stop stop-opacity="1" stop-color="rgb(48.016357%, 57.30896%, 92.196655%)" offset="0.355469"/><stop stop-opacity="1" stop-color="rgb(48.466492%, 57.102966%, 92.205811%)" offset="0.359375"/><stop stop-opacity="1" stop-color="rgb(48.916626%, 56.895447%, 92.214966%)" offset="0.363281"/><stop stop-opacity="1" stop-color="rgb(49.36676%, 56.689453%, 92.224121%)" offset="0.367188"/><stop stop-opacity="1" stop-color="rgb(49.815369%, 56.481934%, 92.23175%)" offset="0.371094"/><stop stop-opacity="1" stop-color="rgb(50.265503%, 56.27594%, 92.240906%)" offset="0.375"/><stop stop-opacity="1" stop-color="rgb(50.714111%, 56.069946%, 92.250061%)" offset="0.378906"/><stop stop-opacity="1" stop-color="rgb(51.164246%, 55.863953%, 92.259216%)" offset="0.382812"/><stop stop-opacity="1" stop-color="rgb(51.61438%, 55.656433%, 92.266846%)" offset="0.386719"/><stop stop-opacity="1" stop-color="rgb(52.064514%, 55.450439%, 92.276001%)" offset="0.390625"/><stop stop-opacity="1" stop-color="rgb(52.513123%, 55.24292%, 92.285156%)" offset="0.394531"/><stop stop-opacity="1" stop-color="rgb(52.963257%, 55.036926%, 92.294312%)" offset="0.398438"/><stop stop-opacity="1" stop-color="rgb(53.413391%, 54.830933%, 92.301941%)" offset="0.402344"/><stop stop-opacity="1" stop-color="rgb(53.863525%, 54.624939%, 92.311096%)" offset="0.40625"/><stop stop-opacity="1" stop-color="rgb(54.312134%, 54.417419%, 92.320251%)" offset="0.410156"/><stop stop-opacity="1" stop-color="rgb(54.762268%, 54.211426%, 92.329407%)" offset="0.414062"/><stop stop-opacity="1" stop-color="rgb(55.210876%, 54.003906%, 92.337036%)" offset="0.417969"/><stop stop-opacity="1" stop-color="rgb(55.661011%, 53.797913%, 92.346191%)" offset="0.421875"/><stop stop-opacity="1" stop-color="rgb(56.111145%, 53.591919%, 92.355347%)" offset="0.425781"/><stop stop-opacity="1" stop-color="rgb(56.561279%, 53.385925%, 92.364502%)" offset="0.429687"/><stop stop-opacity="1" stop-color="rgb(57.009888%, 53.178406%, 92.372131%)" offset="0.433594"/><stop stop-opacity="1" stop-color="rgb(57.460022%, 52.972412%, 92.381287%)" offset="0.4375"/><stop stop-opacity="1" stop-color="rgb(57.90863%, 52.764893%, 92.390442%)" offset="0.441406"/><stop stop-opacity="1" stop-color="rgb(58.358765%, 52.558899%, 92.399597%)" offset="0.445313"/><stop stop-opacity="1" stop-color="rgb(58.808899%, 52.352905%, 92.407227%)" offset="0.449219"/><stop stop-opacity="1" stop-color="rgb(59.259033%, 52.146912%, 92.416382%)" offset="0.453125"/><stop stop-opacity="1" stop-color="rgb(59.707642%, 51.939392%, 92.425537%)" offset="0.457031"/><stop stop-opacity="1" stop-color="rgb(60.157776%, 51.733398%, 92.434692%)" offset="0.460938"/><stop stop-opacity="1" stop-color="rgb(60.606384%, 51.527405%, 92.442322%)" offset="0.464844"/><stop stop-opacity="1" stop-color="rgb(61.056519%, 51.321411%, 92.451477%)" offset="0.46875"/><stop stop-opacity="1" stop-color="rgb(61.506653%, 51.113892%, 92.460632%)" offset="0.472656"/><stop stop-opacity="1" stop-color="rgb(61.956787%, 50.907898%, 92.469788%)" offset="0.476562"/><stop stop-opacity="1" stop-color="rgb(62.405396%, 50.700378%, 92.477417%)" offset="0.480469"/><stop stop-opacity="1" stop-color="rgb(62.85553%, 50.494385%, 92.486572%)" offset="0.484375"/><stop stop-opacity="1" stop-color="rgb(63.243103%, 50.308228%, 92.381287%)" offset="0.488281"/><stop stop-opacity="1" stop-color="rgb(63.632202%, 50.12207%, 92.277527%)" offset="0.492188"/><stop stop-opacity="1" stop-color="rgb(63.865662%, 49.986267%, 91.886902%)" offset="0.496094"/><stop stop-opacity="1" stop-color="rgb(64.100647%, 49.850464%, 91.497803%)" offset="0.5"/><stop stop-opacity="1" stop-color="rgb(64.335632%, 49.714661%, 91.107178%)" offset="0.503906"/><stop stop-opacity="1" stop-color="rgb(64.570618%, 49.580383%, 90.718079%)" offset="0.507812"/><stop stop-opacity="1" stop-color="rgb(64.804077%, 49.44458%, 90.327454%)" offset="0.511719"/><stop stop-opacity="1" stop-color="rgb(65.039062%, 49.308777%, 89.938354%)" offset="0.515625"/><stop stop-opacity="1" stop-color="rgb(65.272522%, 49.172974%, 89.547729%)" offset="0.519531"/><stop stop-opacity="1" stop-color="rgb(65.507507%, 49.03717%, 89.15863%)" offset="0.523438"/><stop stop-opacity="1" stop-color="rgb(65.740967%, 48.901367%, 88.768005%)" offset="0.527344"/><stop stop-opacity="1" stop-color="rgb(65.975952%, 48.765564%, 88.378906%)" offset="0.53125"/><stop stop-opacity="1" stop-color="rgb(66.210938%, 48.629761%, 87.988281%)" offset="0.535156"/><stop stop-opacity="1" stop-color="rgb(66.445923%, 48.495483%, 87.599182%)" offset="0.539063"/><stop stop-opacity="1" stop-color="rgb(66.679382%, 48.35968%, 87.208557%)" offset="0.542969"/><stop stop-opacity="1" stop-color="rgb(66.914368%, 48.223877%, 86.819458%)" offset="0.546875"/><stop stop-opacity="1" stop-color="rgb(67.147827%, 48.088074%, 86.428833%)" offset="0.550781"/><stop stop-opacity="1" stop-color="rgb(67.382812%, 47.952271%, 86.039734%)" offset="0.554688"/><stop stop-opacity="1" stop-color="rgb(67.616272%, 47.816467%, 85.649109%)" offset="0.558594"/><stop stop-opacity="1" stop-color="rgb(67.851257%, 47.68219%, 85.26001%)" offset="0.5625"/><stop stop-opacity="1" stop-color="rgb(68.084717%, 47.546387%, 84.869385%)" offset="0.566406"/><stop stop-opacity="1" stop-color="rgb(68.319702%, 47.410583%, 84.480286%)" offset="0.570312"/><stop stop-opacity="1" stop-color="rgb(68.554688%, 47.27478%, 84.089661%)" offset="0.574219"/><stop stop-opacity="1" stop-color="rgb(68.789673%, 47.138977%, 83.700562%)" offset="0.578125"/><stop stop-opacity="1" stop-color="rgb(69.023132%, 47.003174%, 83.309937%)" offset="0.582031"/><stop stop-opacity="1" stop-color="rgb(69.258118%, 46.868896%, 82.920837%)" offset="0.585938"/><stop stop-opacity="1" stop-color="rgb(69.491577%, 46.733093%, 82.530212%)" offset="0.589844"/><stop stop-opacity="1" stop-color="rgb(69.726562%, 46.59729%, 82.139587%)" offset="0.59375"/><stop stop-opacity="1" stop-color="rgb(69.960022%, 46.461487%, 81.748962%)" offset="0.597656"/><stop stop-opacity="1" stop-color="rgb(70.195007%, 46.325684%, 81.359863%)" offset="0.601562"/><stop stop-opacity="1" stop-color="rgb(70.429993%, 46.18988%, 80.969238%)" offset="0.605469"/><stop stop-opacity="1" stop-color="rgb(70.664978%, 46.054077%, 80.580139%)" offset="0.609375"/><stop stop-opacity="1" stop-color="rgb(70.898438%, 45.918274%, 80.189514%)" offset="0.613281"/><stop stop-opacity="1" stop-color="rgb(71.133423%, 45.783997%, 79.800415%)" offset="0.617188"/><stop stop-opacity="1" stop-color="rgb(71.366882%, 45.648193%, 79.40979%)" offset="0.621094"/><stop stop-opacity="1" stop-color="rgb(71.601868%, 45.51239%, 79.020691%)" offset="0.625"/><stop stop-opacity="1" stop-color="rgb(71.835327%, 45.376587%, 78.630066%)" offset="0.628906"/><stop stop-opacity="1" stop-color="rgb(72.070312%, 45.240784%, 78.240967%)" offset="0.632812"/><stop stop-opacity="1" stop-color="rgb(72.303772%, 45.10498%, 77.850342%)" offset="0.636719"/><stop stop-opacity="1" stop-color="rgb(72.538757%, 44.970703%, 77.461243%)" offset="0.640625"/><stop stop-opacity="1" stop-color="rgb(72.773743%, 44.8349%, 77.070618%)" offset="0.644531"/><stop stop-opacity="1" stop-color="rgb(73.008728%, 44.699097%, 76.681519%)" offset="0.648438"/><stop stop-opacity="1" stop-color="rgb(73.242188%, 44.563293%, 76.290894%)" offset="0.652344"/><stop stop-opacity="1" stop-color="rgb(73.477173%, 44.42749%, 75.901794%)" offset="0.65625"/><stop stop-opacity="1" stop-color="rgb(73.710632%, 44.291687%, 75.511169%)" offset="0.660156"/><stop stop-opacity="1" stop-color="rgb(73.945618%, 44.155884%, 75.12207%)" offset="0.664062"/><stop stop-opacity="1" stop-color="rgb(74.179077%, 44.020081%, 74.731445%)" offset="0.667969"/><stop stop-opacity="1" stop-color="rgb(74.414062%, 43.885803%, 74.342346%)" offset="0.671875"/><stop stop-opacity="1" stop-color="rgb(74.649048%, 43.75%, 73.951721%)" offset="0.675781"/><stop stop-opacity="1" stop-color="rgb(74.884033%, 43.614197%, 73.562622%)" offset="0.679688"/><stop stop-opacity="1" stop-color="rgb(75.117493%, 43.478394%, 73.171997%)" offset="0.683594"/><stop stop-opacity="1" stop-color="rgb(75.352478%, 43.34259%, 72.782898%)" offset="0.6875"/><stop stop-opacity="1" stop-color="rgb(75.585938%, 43.206787%, 72.392273%)" offset="0.691406"/><stop stop-opacity="1" stop-color="rgb(75.820923%, 43.07251%, 72.003174%)" offset="0.695312"/><stop stop-opacity="1" stop-color="rgb(76.054382%, 42.936707%, 71.612549%)" offset="0.699219"/><stop stop-opacity="1" stop-color="rgb(76.289368%, 42.800903%, 71.22345%)" offset="0.703125"/><stop stop-opacity="1" stop-color="rgb(76.522827%, 42.6651%, 70.832825%)" offset="0.707031"/><stop stop-opacity="1" stop-color="rgb(76.757812%, 42.529297%, 70.443726%)" offset="0.710938"/><stop stop-opacity="1" stop-color="rgb(76.992798%, 42.393494%, 70.053101%)" offset="0.714844"/><stop stop-opacity="1" stop-color="rgb(77.227783%, 42.259216%, 69.664001%)" offset="0.71875"/><stop stop-opacity="1" stop-color="rgb(77.461243%, 42.123413%, 69.273376%)" offset="0.722656"/><stop stop-opacity="1" stop-color="rgb(77.696228%, 41.98761%, 68.884277%)" offset="0.726563"/><stop stop-opacity="1" stop-color="rgb(77.929688%, 41.851807%, 68.493652%)" offset="0.730469"/><stop stop-opacity="1" stop-color="rgb(78.164673%, 41.716003%, 68.104553%)" offset="0.734375"/><stop stop-opacity="1" stop-color="rgb(78.398132%, 41.5802%, 67.713928%)" offset="0.738281"/><stop stop-opacity="1" stop-color="rgb(78.633118%, 41.444397%, 67.324829%)" offset="0.742188"/><stop stop-opacity="1" stop-color="rgb(78.868103%, 41.308594%, 66.934204%)" offset="0.746094"/><stop stop-opacity="1" stop-color="rgb(79.103088%, 41.174316%, 66.545105%)" offset="0.75"/><stop stop-opacity="1" stop-color="rgb(79.336548%, 41.038513%, 66.15448%)" offset="0.753906"/><stop stop-opacity="1" stop-color="rgb(79.571533%, 40.90271%, 65.765381%)" offset="0.757812"/><stop stop-opacity="1" stop-color="rgb(79.804993%, 40.766907%, 65.374756%)" offset="0.761719"/><stop stop-opacity="1" stop-color="rgb(80.039978%, 40.631104%, 64.985657%)" offset="0.765625"/><stop stop-opacity="1" stop-color="rgb(80.273438%, 40.4953%, 64.595032%)" offset="0.769531"/><stop stop-opacity="1" stop-color="rgb(80.508423%, 40.361023%, 64.205933%)" offset="0.773438"/><stop stop-opacity="1" stop-color="rgb(80.741882%, 40.22522%, 63.815308%)" offset="0.777344"/><stop stop-opacity="1" stop-color="rgb(80.976868%, 40.089417%, 63.426208%)" offset="0.78125"/><stop stop-opacity="1" stop-color="rgb(81.211853%, 39.953613%, 63.035583%)" offset="0.785156"/><stop stop-opacity="1" stop-color="rgb(81.446838%, 39.81781%, 62.646484%)" offset="0.789062"/><stop stop-opacity="1" stop-color="rgb(81.680298%, 39.682007%, 62.255859%)" offset="0.792969"/><stop stop-opacity="1" stop-color="rgb(81.915283%, 39.546204%, 61.86676%)" offset="0.796875"/><stop stop-opacity="1" stop-color="rgb(82.148743%, 39.4104%, 61.476135%)" offset="0.800781"/><stop stop-opacity="1" stop-color="rgb(82.383728%, 39.276123%, 61.087036%)" offset="0.804688"/><stop stop-opacity="1" stop-color="rgb(82.617188%, 39.14032%, 60.696411%)" offset="0.808594"/><stop stop-opacity="1" stop-color="rgb(82.852173%, 39.004517%, 60.307312%)" offset="0.8125"/><stop stop-opacity="1" stop-color="rgb(83.087158%, 38.868713%, 59.916687%)" offset="0.816406"/><stop stop-opacity="1" stop-color="rgb(83.322144%, 38.73291%, 59.527588%)" offset="0.820312"/><stop stop-opacity="1" stop-color="rgb(83.555603%, 38.597107%, 59.136963%)" offset="0.824219"/><stop stop-opacity="1" stop-color="rgb(83.790588%, 38.46283%, 58.747864%)" offset="0.828125"/><stop stop-opacity="1" stop-color="rgb(84.024048%, 38.327026%, 58.357239%)" offset="0.832031"/><stop stop-opacity="1" stop-color="rgb(84.259033%, 38.191223%, 57.966614%)" offset="0.835938"/><stop stop-opacity="1" stop-color="rgb(84.492493%, 38.05542%, 57.575989%)" offset="0.839844"/><stop stop-opacity="1" stop-color="rgb(84.727478%, 37.919617%, 57.18689%)" offset="0.84375"/><stop stop-opacity="1" stop-color="rgb(84.960938%, 37.783813%, 56.796265%)" offset="0.847656"/><stop stop-opacity="1" stop-color="rgb(85.195923%, 37.64801%, 56.407166%)" offset="0.851562"/><stop stop-opacity="1" stop-color="rgb(85.430908%, 37.512207%, 56.016541%)" offset="0.855469"/><stop stop-opacity="1" stop-color="rgb(85.665894%, 37.37793%, 55.627441%)" offset="0.859375"/><stop stop-opacity="1" stop-color="rgb(85.899353%, 37.242126%, 55.236816%)" offset="0.863281"/><stop stop-opacity="1" stop-color="rgb(86.134338%, 37.106323%, 54.847717%)" offset="0.867188"/><stop stop-opacity="1" stop-color="rgb(86.367798%, 36.97052%, 54.457092%)" offset="0.871094"/><stop stop-opacity="1" stop-color="rgb(86.602783%, 36.834717%, 54.067993%)" offset="0.875"/><stop stop-opacity="1" stop-color="rgb(86.836243%, 36.698914%, 53.677368%)" offset="0.878906"/><stop stop-opacity="1" stop-color="rgb(87.071228%, 36.564636%, 53.288269%)" offset="0.882812"/><stop stop-opacity="1" stop-color="rgb(87.306213%, 36.428833%, 52.897644%)" offset="0.886719"/><stop stop-opacity="1" stop-color="rgb(87.541199%, 36.29303%, 52.508545%)" offset="0.890625"/><stop stop-opacity="1" stop-color="rgb(87.774658%, 36.157227%, 52.11792%)" offset="0.894531"/><stop stop-opacity="1" stop-color="rgb(88.009644%, 36.021423%, 51.728821%)" offset="0.898438"/><stop stop-opacity="1" stop-color="rgb(88.243103%, 35.88562%, 51.338196%)" offset="0.902344"/><stop stop-opacity="1" stop-color="rgb(88.478088%, 35.751343%, 50.949097%)" offset="0.90625"/><stop stop-opacity="1" stop-color="rgb(88.711548%, 35.61554%, 50.558472%)" offset="0.910156"/><stop stop-opacity="1" stop-color="rgb(88.946533%, 35.479736%, 50.169373%)" offset="0.914063"/><stop stop-opacity="1" stop-color="rgb(89.179993%, 35.343933%, 49.778748%)" offset="0.917969"/><stop stop-opacity="1" stop-color="rgb(89.414978%, 35.20813%, 49.389648%)" offset="0.921875"/><stop stop-opacity="1" stop-color="rgb(89.649963%, 35.072327%, 48.999023%)" offset="0.925781"/><stop stop-opacity="1" stop-color="rgb(89.884949%, 34.936523%, 48.609924%)" offset="0.929688"/><stop stop-opacity="1" stop-color="rgb(90.118408%, 34.80072%, 48.219299%)" offset="0.933594"/><stop stop-opacity="1" stop-color="rgb(90.353394%, 34.666443%, 47.8302%)" offset="0.9375"/><stop stop-opacity="1" stop-color="rgb(90.586853%, 34.53064%, 47.439575%)" offset="0.941406"/><stop stop-opacity="1" stop-color="rgb(90.821838%, 34.394836%, 47.050476%)" offset="0.945313"/><stop stop-opacity="1" stop-color="rgb(91.055298%, 34.259033%, 46.659851%)" offset="0.949219"/><stop stop-opacity="1" stop-color="rgb(91.290283%, 34.12323%, 46.270752%)" offset="0.953125"/><stop stop-opacity="1" stop-color="rgb(91.525269%, 33.987427%, 45.880127%)" offset="0.957031"/><stop stop-opacity="1" stop-color="rgb(91.760254%, 33.853149%, 45.491028%)" offset="0.960938"/><stop stop-opacity="1" stop-color="rgb(91.993713%, 33.717346%, 45.100403%)" offset="0.964844"/><stop stop-opacity="1" stop-color="rgb(92.228699%, 33.581543%, 44.711304%)" offset="0.96875"/><stop stop-opacity="1" stop-color="rgb(92.462158%, 33.44574%, 44.320679%)" offset="0.972656"/><stop stop-opacity="1" stop-color="rgb(92.697144%, 33.309937%, 43.93158%)" offset="0.976562"/><stop stop-opacity="1" stop-color="rgb(92.930603%, 33.174133%, 43.540955%)" offset="0.980469"/><stop stop-opacity="1" stop-color="rgb(93.165588%, 33.03833%, 43.151855%)" offset="0.984375"/><stop stop-opacity="1" stop-color="rgb(93.399048%, 32.902527%, 42.76123%)" offset="0.988281"/><stop stop-opacity="1" stop-color="rgb(93.634033%, 32.76825%, 42.372131%)" offset="0.992188"/><stop stop-opacity="1" stop-color="rgb(93.865967%, 32.633972%, 41.984558%)" offset="0.996094"/><stop stop-opacity="1" stop-color="rgb(94.099426%, 32.499695%, 41.598511%)" offset="1"/></linearGradient></defs><g clip-path="url(#209748e1cc)"><g clip-path="url(#6e2804bc99)"><path fill="url(#747578357d)" d="M 7.644531 16.394531 L 7.644531 134.804688 L 142.386719 134.804688 L 142.386719 16.394531 Z M 7.644531 16.394531 " fill-rule="nonzero"/></g></g></svg>