<svg xmlns="http://www.w3.org/2000/svg" xmlns:xlink="http://www.w3.org/1999/xlink" width="40" zoomAndPan="magnify" viewBox="0 0 30 30.000001" height="40" preserveAspectRatio="xMidYMid meet" version="1.0"><defs><clipPath id="bc7d7b4ba1"><path d="M 2.226562 1.742188 L 28.355469 1.742188 L 28.355469 27.871094 L 2.226562 27.871094 Z M 2.226562 1.742188 " clip-rule="nonzero"/></clipPath></defs><g clip-path="url(#bc7d7b4ba1)"><path fill="#64db32" d="M 28.355469 14.804688 C 28.355469 15.664062 28.269531 16.515625 28.105469 17.355469 C 27.9375 18.195312 27.6875 19.011719 27.359375 19.804688 C 27.03125 20.597656 26.628906 21.351562 26.152344 22.066406 C 25.675781 22.777344 25.136719 23.4375 24.527344 24.042969 C 23.921875 24.652344 23.261719 25.191406 22.546875 25.667969 C 21.835938 26.144531 21.082031 26.546875 20.289062 26.875 C 19.496094 27.203125 18.679688 27.453125 17.839844 27.621094 C 16.996094 27.789062 16.148438 27.871094 15.289062 27.871094 C 14.433594 27.871094 13.582031 27.789062 12.742188 27.621094 C 11.898438 27.453125 11.082031 27.203125 10.289062 26.875 C 9.5 26.546875 8.746094 26.144531 8.03125 25.667969 C 7.320312 25.191406 6.660156 24.652344 6.050781 24.042969 C 5.445312 23.4375 4.902344 22.777344 4.425781 22.066406 C 3.949219 21.351562 3.546875 20.597656 3.21875 19.804688 C 2.890625 19.011719 2.644531 18.195312 2.476562 17.355469 C 2.308594 16.515625 2.226562 15.664062 2.226562 14.804688 C 2.226562 13.949219 2.308594 13.097656 2.476562 12.257812 C 2.644531 11.417969 2.890625 10.597656 3.21875 9.808594 C 3.546875 9.015625 3.949219 8.261719 4.425781 7.546875 C 4.902344 6.835938 5.445312 6.175781 6.050781 5.570312 C 6.660156 4.960938 7.320312 4.421875 8.03125 3.945312 C 8.746094 3.46875 9.5 3.066406 10.289062 2.738281 C 11.082031 2.40625 11.898438 2.160156 12.742188 1.992188 C 13.582031 1.824219 14.433594 1.742188 15.289062 1.742188 C 16.148438 1.742188 16.996094 1.824219 17.839844 1.992188 C 18.679688 2.160156 19.496094 2.40625 20.289062 2.738281 C 21.082031 3.066406 21.835938 3.46875 22.546875 3.945312 C 23.261719 4.421875 23.921875 4.960938 24.527344 5.570312 C 25.136719 6.175781 25.675781 6.835938 26.152344 7.546875 C 26.628906 8.261719 27.03125 9.015625 27.359375 9.808594 C 27.6875 10.597656 27.9375 11.417969 28.105469 12.257812 C 28.269531 13.097656 28.355469 13.949219 28.355469 14.804688 Z M 28.355469 14.804688 " fill-opacity="1" fill-rule="nonzero"/></g><path fill="#ffffff" d="M 12.050781 23.816406 L 4.925781 16.691406 L 7.765625 13.851562 L 12.050781 18.136719 L 22.8125 7.371094 L 25.652344 10.210938 Z M 12.050781 23.816406 " fill-opacity="1" fill-rule="nonzero"/></svg>