<svg xmlns="http://www.w3.org/2000/svg" xmlns:xlink="http://www.w3.org/1999/xlink" width="80" zoomAndPan="magnify" viewBox="0 0 60 37.5" height="50" preserveAspectRatio="xMidYMid meet" version="1.0"><defs><clipPath id="7c7ba545aa"><path d="M 6.164062 1.300781 L 54.273438 1.300781 L 54.273438 19 L 6.164062 19 Z M 6.164062 1.300781 " clip-rule="nonzero"/></clipPath><clipPath id="f92b93ae39"><path d="M 6.164062 18 L 54.273438 18 L 54.273438 29 L 6.164062 29 Z M 6.164062 18 " clip-rule="nonzero"/></clipPath><clipPath id="4df5046c7e"><path d="M 6.164062 28 L 54.273438 28 L 54.273438 36.085938 L 6.164062 36.085938 Z M 6.164062 28 " clip-rule="nonzero"/></clipPath></defs><g clip-path="url(#7c7ba545aa)"><path fill="#fbd116" d="M 48.917969 1.300781 L 11.523438 1.300781 C 8.574219 1.300781 6.183594 3.695312 6.183594 6.652344 L 6.183594 18.691406 L 54.257812 18.691406 L 54.257812 6.652344 C 54.257812 3.695312 51.867188 1.300781 48.917969 1.300781 Z M 48.917969 1.300781 " fill-opacity="1" fill-rule="nonzero"/></g><g clip-path="url(#f92b93ae39)"><path fill="#22408c" d="M 6.183594 18.691406 L 54.257812 18.691406 L 54.257812 28.058594 L 6.183594 28.058594 Z M 6.183594 18.691406 " fill-opacity="1" fill-rule="nonzero"/></g><g clip-path="url(#4df5046c7e)"><path fill="#ce2028" d="M 6.183594 30.734375 C 6.183594 33.6875 8.574219 36.085938 11.523438 36.085938 L 48.917969 36.085938 C 51.867188 36.085938 54.257812 33.6875 54.257812 30.734375 L 54.257812 28.058594 L 6.183594 28.058594 Z M 6.183594 30.734375 " fill-opacity="1" fill-rule="nonzero"/></g></svg>