<svg xmlns="http://www.w3.org/2000/svg" xmlns:xlink="http://www.w3.org/1999/xlink" width="80" zoomAndPan="magnify" viewBox="0 0 60 37.5" height="50" preserveAspectRatio="xMidYMid meet" version="1.0"><defs><clipPath id="7cb69b9ec4"><path d="M 37 1.308594 L 53.546875 1.308594 L 53.546875 35.355469 L 37 35.355469 Z M 37 1.308594 " clip-rule="nonzero"/></clipPath><clipPath id="e1ce46c79e"><path d="M 6.175781 1.308594 L 22 1.308594 L 22 35.355469 L 6.175781 35.355469 Z M 6.175781 1.308594 " clip-rule="nonzero"/></clipPath><clipPath id="320d23c8ca"><path d="M 21 1.308594 L 38 1.308594 L 38 35.355469 L 21 35.355469 Z M 21 1.308594 " clip-rule="nonzero"/></clipPath></defs><g clip-path="url(#7cb69b9ec4)"><path fill="#ed2939" d="M 53.53125 30.117188 C 53.53125 33.007812 51.175781 35.355469 48.269531 35.355469 L 37.75 35.355469 L 37.75 1.308594 L 48.269531 1.308594 C 51.175781 1.308594 53.53125 3.652344 53.53125 6.546875 Z M 53.53125 30.117188 " fill-opacity="1" fill-rule="nonzero"/></g><g clip-path="url(#e1ce46c79e)"><path fill="#002495" d="M 11.453125 1.308594 C 8.546875 1.308594 6.191406 3.652344 6.191406 6.546875 L 6.191406 30.117188 C 6.191406 33.007812 8.546875 35.355469 11.453125 35.355469 L 21.972656 35.355469 L 21.972656 1.308594 Z M 11.453125 1.308594 " fill-opacity="1" fill-rule="nonzero"/></g><g clip-path="url(#320d23c8ca)"><path fill="#eeeeee" d="M 21.972656 1.308594 L 37.75 1.308594 L 37.75 35.355469 L 21.972656 35.355469 Z M 21.972656 1.308594 " fill-opacity="1" fill-rule="nonzero"/></g></svg>