<svg xmlns="http://www.w3.org/2000/svg" xmlns:xlink="http://www.w3.org/1999/xlink" width="600" zoomAndPan="magnify" viewBox="0 0 450 187.499995" height="250" preserveAspectRatio="xMidYMid meet" version="1.0"><defs><g/><clipPath id="7aee137392"><path d="M 4.859375 12.078125 L 198.589844 12.078125 L 198.589844 174 L 4.859375 174 Z M 4.859375 12.078125 " clip-rule="nonzero"/></clipPath><clipPath id="81a11d8783"><path d="M 4.859375 12.078125 L 198.589844 12.078125 L 198.589844 146 L 4.859375 146 Z M 4.859375 12.078125 " clip-rule="nonzero"/></clipPath></defs><g clip-path="url(#7aee137392)"><path fill="#ff6c26" d="M 198.210938 86.300781 C 198.210938 90.242188 198.175781 93.105469 198.21875 95.964844 C 198.261719 98.601562 197.996094 101.21875 197.929688 103.847656 C 197.867188 106.46875 197.644531 109.085938 197.496094 111.707031 C 197.359375 114.101562 197.191406 116.492188 197.050781 118.886719 C 196.898438 121.503906 196.660156 124.117188 196.382812 126.722656 C 196.058594 129.753906 195.535156 132.746094 193.929688 135.421875 C 192.148438 138.394531 189.675781 140.433594 186.199219 141.117188 C 183.875 141.574219 181.519531 141.667969 179.160156 141.808594 C 174.460938 142.089844 169.753906 142.128906 165.0625 141.949219 C 157.457031 141.65625 149.855469 141.996094 142.257812 141.742188 C 131.15625 141.367188 120.050781 141.625 108.949219 141.601562 C 106.4375 141.597656 103.910156 141.65625 101.402344 141.832031 C 100.015625 141.925781 98.628906 141.910156 97.246094 142.023438 C 94.515625 142.25 91.773438 142.300781 89.046875 142.511719 C 86.375 142.71875 83.707031 142.53125 81.046875 142.707031 C 78.34375 142.890625 75.632812 142.785156 72.9375 142.960938 C 71.4375 143.0625 69.929688 143 68.441406 143.164062 C 65.757812 143.453125 63.058594 143.476562 60.371094 143.75 C 58.925781 143.894531 57.453125 143.960938 55.996094 144.0625 C 54.578125 144.15625 53.148438 144.171875 51.746094 144.441406 C 51.636719 144.464844 51.523438 144.480469 51.410156 144.472656 C 49.488281 144.363281 47.589844 144.742188 45.671875 144.71875 C 42.816406 144.6875 39.960938 144.875 37.113281 145.011719 C 34.367188 145.144531 31.621094 145.210938 28.886719 145.128906 C 25.625 145.03125 22.390625 144.605469 19.242188 143.695312 C 17.296875 143.136719 15.539062 142.195312 14.085938 140.785156 C 12.75 139.488281 11.777344 137.90625 11.136719 136.164062 C 10.203125 133.621094 9.742188 130.972656 9.460938 128.269531 C 9.226562 126 9.089844 123.71875 8.882812 121.449219 C 8.75 120 8.644531 118.535156 8.558594 117.074219 C 8.472656 115.582031 8.46875 114.078125 8.1875 112.601562 C 8.15625 112.453125 8.152344 112.300781 8.152344 112.152344 C 8.160156 109.484375 7.765625 106.84375 7.644531 104.183594 C 7.539062 101.828125 7.335938 99.472656 7.203125 97.117188 C 7.039062 94.082031 6.898438 91.046875 6.730469 88.015625 C 6.636719 86.328125 6.660156 84.636719 6.539062 82.957031 C 6.304688 79.8125 6.265625 76.660156 6.058594 73.519531 C 5.953125 71.980469 6.023438 70.433594 5.84375 68.910156 C 5.636719 67.148438 5.816406 65.371094 5.613281 63.628906 C 5.355469 61.410156 5.535156 59.195312 5.410156 56.984375 C 4.976562 49.238281 5.382812 41.484375 5.160156 33.738281 C 5.105469 31.867188 5 29.992188 4.984375 28.113281 C 4.976562 27.28125 5.136719 26.46875 5.332031 25.671875 C 5.742188 23.984375 6.875 22.941406 8.523438 22.5 C 10.074219 22.082031 11.644531 21.710938 13.226562 21.398438 C 15.683594 20.910156 18.148438 20.433594 20.628906 20.0625 C 22.773438 19.738281 24.941406 19.5625 27.097656 19.328125 C 29.105469 19.109375 31.113281 18.867188 33.128906 18.695312 C 34.171875 18.605469 35.222656 18.511719 36.265625 18.464844 C 38.550781 18.359375 40.820312 18.046875 43.105469 17.929688 C 45.574219 17.800781 48.054688 17.695312 50.511719 17.464844 C 52.570312 17.273438 54.648438 17.542969 56.683594 17.097656 C 56.792969 17.074219 56.910156 17.082031 57.023438 17.085938 C 60.371094 17.199219 63.710938 16.867188 67.054688 16.792969 C 69.152344 16.746094 71.269531 16.765625 73.355469 16.566406 C 74.785156 16.433594 76.226562 16.574219 77.625 16.359375 C 79.753906 16.039062 81.910156 16.394531 84.023438 15.96875 C 84.097656 15.953125 84.175781 15.953125 84.25 15.957031 C 86.546875 16.078125 88.824219 15.703125 91.117188 15.722656 C 93.523438 15.746094 95.921875 15.5 98.324219 15.429688 C 99.855469 15.382812 101.402344 15.367188 102.933594 15.242188 C 105.441406 15.039062 107.949219 14.933594 110.457031 14.777344 C 112.285156 14.660156 114.117188 14.503906 115.941406 14.320312 C 117.953125 14.121094 119.96875 13.96875 121.976562 13.746094 C 123.160156 13.613281 124.371094 13.539062 125.558594 13.417969 C 127.90625 13.175781 130.277344 13.183594 132.609375 12.804688 C 132.683594 12.792969 132.761719 12.789062 132.835938 12.792969 C 135.167969 12.875 137.484375 12.582031 139.816406 12.523438 C 150.050781 12.261719 160.292969 12.4375 170.527344 12.269531 C 173.265625 12.222656 176.011719 12.082031 178.753906 12.136719 C 181.144531 12.1875 183.535156 12.449219 185.898438 12.859375 C 187.191406 13.082031 188.476562 13.351562 189.730469 13.746094 C 191.828125 14.402344 193.15625 15.835938 193.914062 17.851562 C 194.523438 19.476562 194.800781 21.183594 195.03125 22.886719 C 195.304688 24.925781 195.484375 26.976562 195.703125 29.023438 C 195.707031 29.058594 195.710938 29.097656 195.707031 29.136719 C 195.601562 30.945312 196 32.726562 195.953125 34.535156 C 195.898438 36.714844 196.160156 38.882812 196.226562 41.058594 C 196.296875 43.378906 196.519531 45.695312 196.660156 48.015625 C 196.8125 50.445312 196.96875 52.875 197.117188 55.308594 C 197.304688 58.304688 197.433594 61.300781 197.582031 64.296875 C 197.667969 66.097656 197.617188 67.90625 197.804688 69.691406 C 197.960938 71.234375 197.859375 72.773438 198.011719 74.300781 C 198.4375 78.660156 198.070312 83.023438 198.210938 86.300781 Z M 186 102.398438 C 185.859375 100.15625 186.054688 97.039062 185.84375 93.914062 C 185.621094 90.625 185.4375 87.320312 185.378906 84.027344 C 185.289062 78.953125 185.167969 73.875 185.113281 68.800781 C 185.082031 65.796875 184.734375 62.800781 184.863281 59.789062 C 184.867188 59.714844 184.867188 59.636719 184.855469 59.5625 C 184.445312 57.148438 184.691406 54.699219 184.464844 52.265625 C 184.3125 50.59375 184.070312 48.90625 184.183594 47.210938 C 184.1875 47.136719 184.179688 47.058594 184.164062 46.988281 C 183.835938 45.4375 183.910156 43.851562 183.78125 42.289062 C 183.632812 40.492188 183.503906 38.703125 183.066406 36.953125 C 182.515625 34.773438 182.101562 32.542969 180.992188 30.546875 C 179.824219 28.445312 178.441406 26.582031 176.074219 25.644531 C 174.609375 25.0625 173.089844 24.921875 171.566406 24.78125 C 170.335938 24.667969 169.101562 24.6875 167.863281 24.578125 C 165.210938 24.351562 162.546875 24.207031 159.890625 24.121094 C 155.457031 23.972656 151.015625 23.984375 146.578125 23.902344 C 141.960938 23.816406 137.328125 23.648438 132.703125 24.050781 C 130.835938 24.214844 128.957031 24.101562 127.078125 24.246094 C 124.800781 24.417969 122.5 24.464844 120.210938 24.488281 C 117.917969 24.515625 115.621094 24.613281 113.347656 24.824219 C 111.402344 25.003906 109.453125 25.015625 107.511719 25.132812 C 104.855469 25.292969 102.191406 25.570312 99.515625 25.441406 C 99.328125 25.433594 99.132812 25.417969 98.953125 25.457031 C 97.144531 25.875 95.289062 25.671875 93.460938 25.820312 C 90.847656 26.035156 88.21875 26.136719 85.601562 26.289062 C 83.242188 26.425781 80.882812 26.539062 78.53125 26.777344 C 76.667969 26.964844 74.785156 27 72.9375 27.285156 C 70.53125 27.660156 68.101562 27.8125 65.691406 28.109375 C 63.050781 28.433594 60.398438 28.6875 57.742188 28.777344 C 55.453125 28.851562 53.183594 29.125 50.90625 29.3125 C 49.859375 29.394531 48.808594 29.4375 47.765625 29.542969 C 45.980469 29.726562 44.203125 30.007812 42.414062 30.15625 C 40.398438 30.328125 38.402344 30.644531 36.410156 30.980469 C 34.34375 31.332031 32.289062 31.753906 30.246094 32.234375 C 28.203125 32.714844 26.179688 33.265625 24.300781 34.28125 C 22.144531 35.445312 21.039062 37.367188 20.855469 39.640625 C 20.617188 42.625 20.496094 45.628906 20.382812 48.625 C 20.191406 53.695312 20.511719 58.777344 20.144531 63.847656 C 20.0625 65.003906 20.234375 66.167969 20.304688 67.328125 C 20.480469 70.214844 20.246094 73.109375 20.535156 76.003906 C 20.742188 78.050781 20.558594 80.121094 20.75 82.191406 C 20.988281 84.804688 20.710938 87.445312 20.988281 90.074219 C 21.191406 92.011719 20.976562 93.96875 21.207031 95.925781 C 21.410156 97.667969 21.316406 99.445312 21.425781 101.207031 C 21.59375 103.9375 21.714844 106.671875 21.898438 109.40625 C 22.027344 111.347656 22.019531 113.304688 22.109375 115.253906 C 22.246094 118.257812 22.414062 121.246094 23.085938 124.175781 C 23.527344 126.09375 24.300781 127.867188 25.789062 129.28125 C 27.472656 130.878906 29.554688 131.5625 31.730469 132.054688 C 32.972656 132.335938 34.238281 132.46875 35.511719 132.585938 C 36.851562 132.707031 38.183594 132.976562 39.535156 132.953125 C 42.878906 132.898438 46.21875 132.984375 49.570312 132.804688 C 53.238281 132.609375 56.921875 132.617188 60.59375 132.316406 C 62.273438 132.179688 63.972656 132.132812 65.652344 132.125 C 69.714844 132.097656 73.769531 131.792969 77.832031 131.824219 C 79.667969 131.835938 81.503906 131.882812 83.347656 131.652344 C 85.351562 131.402344 87.378906 131.347656 89.398438 131.191406 C 91.863281 131 94.335938 130.863281 96.804688 130.746094 C 99.730469 130.609375 102.648438 130.40625 105.570312 130.296875 C 109.628906 130.148438 113.691406 130.21875 117.75 130.070312 C 119.851562 129.996094 121.953125 129.855469 124.050781 129.75 C 126.519531 129.625 128.988281 129.378906 131.460938 129.367188 C 133.679688 129.351562 135.882812 128.992188 138.105469 129.113281 C 138.179688 129.117188 138.257812 129.121094 138.328125 129.105469 C 140.289062 128.660156 142.296875 129.046875 144.277344 128.710938 C 145.523438 128.5 146.820312 128.570312 148.089844 128.507812 C 151.085938 128.359375 154.082031 128.1875 157.082031 128.03125 C 159.515625 127.902344 161.945312 127.761719 164.375 127.582031 C 166.992188 127.390625 169.617188 127.296875 172.234375 127.121094 C 173.9375 127.003906 175.582031 126.71875 177.183594 126.160156 C 178.839844 125.585938 180.363281 124.761719 181.5625 123.476562 C 183.46875 121.433594 184.761719 119.046875 185.363281 116.296875 C 185.765625 114.457031 185.894531 112.585938 185.972656 110.722656 C 186.078125 108.242188 186 105.753906 186 102.398438 Z M 141.863281 29.949219 C 144.738281 29.949219 146.660156 29.976562 148.578125 29.945312 C 153.019531 29.875 157.449219 30.15625 161.886719 30.242188 C 164.566406 30.292969 167.277344 30.402344 169.949219 30.820312 C 170.722656 30.945312 171.523438 31.015625 172.292969 31.027344 C 173.722656 31.054688 174.527344 31.917969 175.148438 32.941406 C 176.042969 34.421875 176.671875 36.035156 176.972656 37.761719 C 177.074219 38.347656 177.324219 38.914062 177.410156 39.5 C 177.675781 41.242188 177.863281 42.992188 177.878906 44.753906 C 177.894531 46.480469 178.070312 48.195312 178.28125 49.902344 C 178.328125 50.277344 178.320312 50.65625 178.3125 51.03125 C 178.277344 53.097656 178.453125 55.148438 178.746094 57.191406 C 178.761719 57.304688 178.765625 57.417969 178.761719 57.53125 C 178.640625 60.652344 178.914062 63.765625 179.046875 66.878906 C 179.253906 71.691406 179.09375 76.503906 179.277344 81.3125 C 179.347656 83.148438 179.339844 84.992188 179.476562 86.820312 C 179.738281 90.339844 179.753906 93.871094 179.964844 97.386719 C 180.167969 100.8125 180.164062 104.230469 180.070312 107.644531 C 180.007812 110.136719 180.054688 112.667969 179.464844 115.132812 C 178.675781 118.421875 176.621094 120.703125 172.859375 121.019531 C 170.46875 121.21875 168.074219 121.351562 165.679688 121.480469 C 163.324219 121.613281 160.96875 121.792969 158.609375 121.933594 C 155.878906 122.097656 153.144531 122.230469 150.414062 122.398438 C 148.722656 122.503906 147.03125 122.472656 145.351562 122.601562 C 142.46875 122.828125 139.582031 122.902344 136.703125 123.085938 C 134.972656 123.195312 133.246094 123.140625 131.527344 123.277344 C 128.644531 123.5 125.753906 123.5 122.878906 123.738281 C 118.980469 124.066406 115.082031 124.183594 111.171875 124.164062 C 108.390625 124.148438 105.617188 124.359375 102.835938 124.4375 C 99.917969 124.515625 96.996094 124.734375 94.074219 124.871094 C 91.753906 124.980469 89.425781 125.097656 87.121094 125.332031 C 83.863281 125.664062 80.597656 125.625 77.339844 125.792969 C 74.179688 125.960938 71.019531 125.808594 67.871094 126.015625 C 66.144531 126.128906 64.417969 126.09375 62.699219 126.210938 C 59.441406 126.4375 56.171875 126.488281 52.917969 126.691406 C 48.027344 126.996094 43.140625 126.875 38.253906 126.824219 C 36.097656 126.804688 33.925781 126.5 31.816406 125.917969 C 30.308594 125.503906 29.304688 124.636719 28.972656 123.0625 C 28.605469 121.300781 28.335938 119.535156 28.234375 117.730469 C 28.113281 115.632812 28.117188 113.523438 27.972656 111.433594 C 27.875 110.007812 27.894531 108.582031 27.785156 107.164062 C 27.558594 104.207031 27.488281 101.246094 27.292969 98.292969 C 27.183594 96.675781 27.246094 95.0625 27.105469 93.457031 C 26.851562 90.53125 27.03125 87.59375 26.84375 84.671875 C 26.726562 82.796875 26.84375 80.910156 26.632812 79.050781 C 26.363281 76.683594 26.597656 74.3125 26.421875 71.957031 C 26.003906 66.394531 26.164062 60.824219 26.289062 55.265625 C 26.382812 51.019531 26.375 46.773438 26.453125 42.527344 C 26.464844 41.8125 26.695312 41.128906 26.722656 40.410156 C 26.742188 39.84375 27.167969 39.503906 27.6875 39.265625 C 28.890625 38.707031 30.175781 38.425781 31.453125 38.121094 C 34.367188 37.433594 37.296875 36.835938 40.277344 36.472656 C 42.320312 36.222656 44.355469 35.941406 46.414062 35.789062 C 49.171875 35.589844 51.917969 35.152344 54.675781 34.96875 C 55.984375 34.878906 57.289062 34.695312 58.605469 34.683594 C 60.289062 34.671875 61.964844 34.429688 63.640625 34.300781 C 64.800781 34.210938 65.949219 34.042969 67.113281 33.988281 C 68.71875 33.914062 70.320312 33.703125 71.917969 33.503906 C 73.847656 33.261719 75.769531 32.949219 77.71875 32.867188 C 78.914062 32.816406 80.101562 32.628906 81.289062 32.5 C 81.4375 32.484375 81.589844 32.441406 81.738281 32.449219 C 83.695312 32.535156 85.644531 32.292969 87.582031 32.140625 C 89.410156 31.992188 91.269531 32.203125 93.074219 31.777344 C 93.148438 31.761719 93.226562 31.765625 93.300781 31.769531 C 95.785156 31.871094 98.257812 31.585938 100.730469 31.46875 C 102.78125 31.371094 104.859375 31.5 106.898438 31.101562 C 107.15625 31.054688 107.425781 31.074219 107.6875 31.089844 C 109.871094 31.203125 112.042969 30.917969 114.214844 30.792969 C 115.753906 30.703125 117.296875 30.765625 118.824219 30.59375 C 120.886719 30.367188 122.964844 30.5625 125.011719 30.351562 C 126.78125 30.171875 128.546875 30.324219 130.300781 30.148438 C 134.46875 29.730469 138.648438 30.09375 141.863281 29.949219 Z M 83.003906 59.320312 C 83.136719 60.742188 83.289062 62.164062 83.402344 63.585938 C 83.679688 67.1875 83.707031 70.804688 83.902344 74.40625 C 84.222656 80.269531 84.859375 86.101562 85.714844 91.90625 C 86.101562 94.546875 86.550781 97.179688 87.042969 99.804688 C 87.324219 101.328125 88.066406 101.722656 89.570312 101.304688 C 89.820312 101.234375 90.0625 101.117188 90.296875 100.996094 C 90.863281 100.699219 91.433594 100.410156 91.980469 100.082031 C 97.574219 96.742188 102.929688 93.046875 108.21875 89.257812 C 112.867188 85.929688 117.316406 82.324219 122.207031 79.335938 C 123.457031 78.574219 124.699219 77.789062 125.949219 77.023438 C 126.371094 76.765625 126.742188 76.46875 127.027344 76.050781 C 127.757812 74.988281 127.601562 74.183594 126.449219 73.570312 C 125.789062 73.21875 125.089844 72.917969 124.386719 72.664062 C 121.804688 71.738281 119.21875 70.808594 116.617188 69.933594 C 109.917969 67.683594 103.21875 65.433594 96.703125 62.675781 C 92.792969 61.019531 88.898438 59.324219 84.941406 57.777344 C 83.425781 57.1875 82.683594 57.578125 83.003906 59.320312 Z M 78.957031 166.527344 C 79.476562 163.957031 79.46875 161.578125 78.746094 159.269531 C 79.144531 159.015625 79.492188 159.121094 79.816406 159.128906 C 87.386719 159.269531 94.957031 159.15625 102.519531 158.890625 C 108.125 158.691406 113.738281 158.710938 119.335938 158.324219 C 120.351562 158.253906 121.371094 158.234375 122.386719 158.234375 C 130.824219 158.230469 139.25 157.878906 147.675781 157.558594 C 153.097656 157.351562 158.515625 157.140625 163.9375 157.164062 C 165.785156 157.171875 167.625 157.015625 169.464844 156.902344 C 174.65625 156.582031 179.859375 156.769531 185.046875 156.488281 C 186.777344 156.394531 188.507812 156.324219 190.238281 156.25 C 190.574219 156.234375 190.917969 156.226562 191.25 156.277344 C 191.75 156.347656 192.035156 156.628906 192.105469 157.167969 C 192.316406 158.777344 192.390625 160.390625 192.3125 162.007812 C 192.265625 163 191.9375 163.351562 190.957031 163.472656 C 190.285156 163.558594 189.609375 163.652344 188.933594 163.652344 C 185.050781 163.648438 181.1875 163.976562 177.332031 164.40625 C 173.03125 164.886719 168.710938 165.152344 164.382812 165.292969 C 158.550781 165.484375 152.730469 165.992188 146.890625 165.976562 C 139.472656 165.957031 132.054688 165.949219 124.636719 165.945312 C 119.777344 165.945312 114.921875 165.882812 110.066406 165.996094 C 108.898438 166.023438 107.730469 166.019531 106.5625 166.003906 C 105.019531 165.980469 103.476562 165.96875 101.933594 166.105469 C 101.039062 166.183594 100.125 166.1875 99.226562 166.125 C 97.003906 165.96875 94.796875 166.070312 92.574219 166.179688 C 88.550781 166.378906 84.523438 166.421875 80.496094 166.523438 C 80.046875 166.535156 79.597656 166.527344 78.957031 166.527344 Z M 72.855469 158.21875 C 71.496094 154.777344 68.160156 152.878906 64.917969 152.882812 C 62.449219 152.882812 60.152344 153.566406 58.066406 154.859375 C 55.183594 156.640625 53.535156 159.183594 53.527344 162.664062 C 53.523438 163.757812 53.582031 164.847656 53.8125 165.917969 C 54.472656 168.957031 56.011719 171.3125 58.960938 172.605469 C 60.355469 173.214844 61.8125 173.496094 63.308594 173.730469 C 67.613281 174.40625 71.507812 171.375 72.800781 168.125 C 73.417969 166.570312 73.785156 164.972656 73.761719 163.574219 C 73.828125 161.535156 73.496094 159.847656 72.855469 158.21875 Z M 42.125 159.730469 C 36.335938 160.042969 30.535156 160.078125 24.753906 160.527344 C 23.140625 160.652344 21.527344 160.714844 19.90625 160.679688 C 18.503906 160.648438 18.335938 160.84375 18.101562 162.265625 C 17.898438 163.496094 17.78125 164.746094 17.917969 165.976562 C 18.175781 168.292969 18.296875 168.9375 20.925781 168.867188 C 24.835938 168.765625 28.746094 168.636719 32.660156 168.582031 C 34.316406 168.558594 35.96875 168.472656 37.625 168.476562 C 40.863281 168.488281 44.097656 168.488281 47.328125 168.179688 C 48.128906 168.101562 48.144531 168.109375 47.984375 167.324219 C 47.484375 164.925781 47.484375 162.542969 48.109375 160.167969 C 48.144531 160.03125 48.113281 159.878906 48.113281 159.714844 C 46.101562 159.714844 44.109375 159.625 42.125 159.730469 Z M 83.402344 63.585938 C 83.679688 67.1875 83.707031 70.804688 83.902344 74.40625 C 84.222656 80.269531 84.859375 86.101562 85.714844 91.90625 C 86.101562 94.546875 86.550781 97.179688 87.042969 99.804688 C 87.324219 101.328125 88.066406 101.722656 89.570312 101.304688 C 89.820312 101.234375 90.0625 101.117188 90.296875 100.996094 C 90.863281 100.699219 91.433594 100.410156 91.980469 100.082031 C 97.574219 96.742188 102.929688 93.046875 108.21875 89.257812 C 112.867188 85.929688 117.316406 82.324219 122.207031 79.335938 C 123.457031 78.574219 124.699219 77.789062 125.949219 77.023438 C 126.371094 76.765625 126.742188 76.46875 127.027344 76.050781 C 127.757812 74.988281 127.601562 74.183594 126.449219 73.570312 C 125.789062 73.21875 125.089844 72.917969 124.386719 72.664062 C 121.804688 71.738281 119.21875 70.808594 116.617188 69.933594 C 109.917969 67.683594 103.21875 65.433594 96.703125 62.675781 C 92.792969 61.019531 88.898438 59.324219 84.941406 57.777344 C 83.425781 57.1875 82.683594 57.578125 83.003906 59.320312 C 83.136719 60.742188 83.289062 62.164062 83.402344 63.585938 Z M 83.402344 63.585938 " fill-opacity="1" fill-rule="nonzero"/></g><g clip-path="url(#81a11d8783)"><path fill="#ff6c26" d="M 198.210938 86.300781 C 198.210938 90.242188 198.175781 93.105469 198.21875 95.964844 C 198.261719 98.601562 197.996094 101.21875 197.929688 103.847656 C 197.867188 106.46875 197.644531 109.085938 197.496094 111.707031 C 197.359375 114.101562 197.191406 116.492188 197.050781 118.886719 C 196.898438 121.503906 196.660156 124.117188 196.382812 126.722656 C 196.058594 129.753906 195.535156 132.746094 193.929688 135.421875 C 192.148438 138.394531 189.675781 140.433594 186.199219 141.117188 C 183.875 141.574219 181.519531 141.667969 179.160156 141.808594 C 174.460938 142.089844 169.753906 142.128906 165.0625 141.949219 C 157.457031 141.65625 149.855469 141.996094 142.257812 141.742188 C 131.15625 141.367188 120.050781 141.625 108.949219 141.601562 C 106.4375 141.597656 103.910156 141.65625 101.402344 141.832031 C 100.015625 141.925781 98.628906 141.910156 97.246094 142.023438 C 94.515625 142.25 91.773438 142.300781 89.046875 142.511719 C 86.375 142.71875 83.707031 142.53125 81.046875 142.707031 C 78.34375 142.890625 75.632812 142.785156 72.9375 142.960938 C 71.4375 143.0625 69.929688 143 68.441406 143.164062 C 65.757812 143.453125 63.058594 143.476562 60.371094 143.75 C 58.925781 143.894531 57.453125 143.960938 55.996094 144.0625 C 54.578125 144.15625 53.148438 144.171875 51.746094 144.441406 C 51.636719 144.464844 51.523438 144.480469 51.410156 144.472656 C 49.488281 144.363281 47.589844 144.742188 45.671875 144.71875 C 42.816406 144.6875 39.960938 144.875 37.113281 145.011719 C 34.367188 145.144531 31.621094 145.210938 28.886719 145.128906 C 25.625 145.03125 22.390625 144.605469 19.242188 143.695312 C 17.296875 143.136719 15.539062 142.195312 14.085938 140.785156 C 12.75 139.488281 11.777344 137.90625 11.136719 136.164062 C 10.203125 133.621094 9.742188 130.972656 9.460938 128.269531 C 9.226562 126 9.089844 123.71875 8.882812 121.449219 C 8.75 120 8.644531 118.535156 8.558594 117.074219 C 8.472656 115.582031 8.46875 114.078125 8.1875 112.601562 C 8.15625 112.453125 8.152344 112.300781 8.152344 112.152344 C 8.160156 109.484375 7.765625 106.84375 7.644531 104.183594 C 7.539062 101.828125 7.335938 99.472656 7.203125 97.117188 C 7.039062 94.082031 6.898438 91.046875 6.730469 88.015625 C 6.636719 86.328125 6.660156 84.636719 6.539062 82.957031 C 6.304688 79.8125 6.265625 76.660156 6.058594 73.519531 C 5.953125 71.980469 6.023438 70.433594 5.84375 68.910156 C 5.636719 67.148438 5.816406 65.371094 5.613281 63.628906 C 5.355469 61.410156 5.535156 59.195312 5.410156 56.984375 C 4.976562 49.238281 5.382812 41.484375 5.160156 33.738281 C 5.105469 31.867188 5 29.992188 4.984375 28.113281 C 4.976562 27.28125 5.136719 26.46875 5.332031 25.671875 C 5.742188 23.984375 6.875 22.941406 8.523438 22.5 C 10.074219 22.082031 11.644531 21.710938 13.226562 21.398438 C 15.683594 20.910156 18.148438 20.433594 20.628906 20.0625 C 22.773438 19.738281 24.941406 19.5625 27.097656 19.328125 C 29.105469 19.109375 31.113281 18.867188 33.128906 18.695312 C 34.171875 18.605469 35.222656 18.511719 36.265625 18.464844 C 38.550781 18.359375 40.820312 18.046875 43.105469 17.929688 C 45.574219 17.800781 48.054688 17.695312 50.511719 17.464844 C 52.570312 17.273438 54.648438 17.542969 56.683594 17.097656 C 56.792969 17.074219 56.910156 17.082031 57.023438 17.085938 C 60.371094 17.199219 63.710938 16.867188 67.054688 16.792969 C 69.152344 16.746094 71.269531 16.765625 73.355469 16.566406 C 74.785156 16.433594 76.226562 16.574219 77.625 16.359375 C 79.753906 16.039062 81.910156 16.394531 84.023438 15.96875 C 84.097656 15.953125 84.175781 15.953125 84.25 15.957031 C 86.546875 16.078125 88.824219 15.703125 91.117188 15.722656 C 93.523438 15.746094 95.921875 15.5 98.324219 15.429688 C 99.855469 15.382812 101.402344 15.367188 102.933594 15.242188 C 105.441406 15.039062 107.949219 14.933594 110.457031 14.777344 C 112.285156 14.660156 114.117188 14.503906 115.941406 14.320312 C 117.953125 14.121094 119.96875 13.96875 121.976562 13.746094 C 123.160156 13.613281 124.371094 13.539062 125.558594 13.417969 C 127.90625 13.175781 130.277344 13.183594 132.609375 12.804688 C 132.683594 12.792969 132.761719 12.789062 132.835938 12.792969 C 135.167969 12.875 137.484375 12.582031 139.816406 12.523438 C 150.050781 12.261719 160.292969 12.4375 170.527344 12.269531 C 173.265625 12.222656 176.011719 12.082031 178.753906 12.136719 C 181.144531 12.1875 183.535156 12.449219 185.898438 12.859375 C 187.191406 13.082031 188.476562 13.351562 189.730469 13.746094 C 191.828125 14.402344 193.15625 15.835938 193.914062 17.851562 C 194.523438 19.476562 194.800781 21.183594 195.03125 22.886719 C 195.304688 24.925781 195.484375 26.976562 195.703125 29.023438 C 195.707031 29.058594 195.710938 29.097656 195.707031 29.136719 C 195.601562 30.945312 196 32.726562 195.953125 34.535156 C 195.898438 36.714844 196.160156 38.882812 196.226562 41.058594 C 196.296875 43.378906 196.519531 45.695312 196.660156 48.015625 C 196.8125 50.445312 196.96875 52.875 197.117188 55.308594 C 197.304688 58.304688 197.433594 61.300781 197.582031 64.296875 C 197.667969 66.097656 197.617188 67.90625 197.804688 69.691406 C 197.960938 71.234375 197.859375 72.773438 198.011719 74.300781 C 198.4375 78.660156 198.070312 83.023438 198.210938 86.300781 Z M 186 102.398438 C 185.859375 100.15625 186.054688 97.039062 185.84375 93.914062 C 185.621094 90.625 185.4375 87.320312 185.378906 84.027344 C 185.289062 78.953125 185.167969 73.875 185.113281 68.800781 C 185.082031 65.796875 184.734375 62.800781 184.863281 59.789062 C 184.867188 59.714844 184.867188 59.636719 184.855469 59.5625 C 184.445312 57.148438 184.691406 54.699219 184.464844 52.265625 C 184.3125 50.59375 184.070312 48.90625 184.183594 47.210938 C 184.1875 47.136719 184.179688 47.058594 184.164062 46.988281 C 183.835938 45.4375 183.910156 43.851562 183.78125 42.289062 C 183.632812 40.492188 183.503906 38.703125 183.066406 36.953125 C 182.515625 34.773438 182.101562 32.542969 180.992188 30.546875 C 179.824219 28.445312 178.441406 26.582031 176.074219 25.644531 C 174.609375 25.0625 173.089844 24.921875 171.566406 24.78125 C 170.335938 24.667969 169.101562 24.6875 167.863281 24.578125 C 165.210938 24.351562 162.546875 24.207031 159.890625 24.121094 C 155.457031 23.972656 151.015625 23.984375 146.578125 23.902344 C 141.960938 23.816406 137.328125 23.648438 132.703125 24.050781 C 130.835938 24.214844 128.957031 24.101562 127.078125 24.246094 C 124.800781 24.417969 122.5 24.464844 120.210938 24.488281 C 117.917969 24.515625 115.621094 24.613281 113.347656 24.824219 C 111.402344 25.003906 109.453125 25.015625 107.511719 25.132812 C 104.855469 25.292969 102.191406 25.570312 99.515625 25.441406 C 99.328125 25.433594 99.132812 25.417969 98.953125 25.457031 C 97.144531 25.875 95.289062 25.671875 93.460938 25.820312 C 90.847656 26.035156 88.21875 26.136719 85.601562 26.289062 C 83.242188 26.425781 80.882812 26.539062 78.53125 26.777344 C 76.667969 26.964844 74.785156 27 72.9375 27.285156 C 70.53125 27.660156 68.101562 27.8125 65.691406 28.109375 C 63.050781 28.433594 60.398438 28.6875 57.742188 28.777344 C 55.453125 28.851562 53.183594 29.125 50.90625 29.3125 C 49.859375 29.394531 48.808594 29.4375 47.765625 29.542969 C 45.980469 29.726562 44.203125 30.007812 42.414062 30.15625 C 40.398438 30.328125 38.402344 30.644531 36.410156 30.980469 C 34.34375 31.332031 32.289062 31.753906 30.246094 32.234375 C 28.203125 32.714844 26.179688 33.265625 24.300781 34.28125 C 22.144531 35.445312 21.039062 37.367188 20.855469 39.640625 C 20.617188 42.625 20.496094 45.628906 20.382812 48.625 C 20.191406 53.695312 20.511719 58.777344 20.144531 63.847656 C 20.0625 65.003906 20.234375 66.167969 20.304688 67.328125 C 20.480469 70.214844 20.246094 73.109375 20.535156 76.003906 C 20.742188 78.050781 20.558594 80.121094 20.75 82.191406 C 20.988281 84.804688 20.710938 87.445312 20.988281 90.074219 C 21.191406 92.011719 20.976562 93.96875 21.207031 95.925781 C 21.410156 97.667969 21.316406 99.445312 21.425781 101.207031 C 21.59375 103.9375 21.714844 106.671875 21.898438 109.40625 C 22.027344 111.347656 22.019531 113.304688 22.109375 115.253906 C 22.246094 118.257812 22.414062 121.246094 23.085938 124.175781 C 23.527344 126.09375 24.300781 127.867188 25.789062 129.28125 C 27.472656 130.878906 29.554688 131.5625 31.730469 132.054688 C 32.972656 132.335938 34.238281 132.46875 35.511719 132.585938 C 36.851562 132.707031 38.183594 132.976562 39.535156 132.953125 C 42.878906 132.898438 46.21875 132.984375 49.570312 132.804688 C 53.238281 132.609375 56.921875 132.617188 60.59375 132.316406 C 62.273438 132.179688 63.972656 132.132812 65.652344 132.125 C 69.714844 132.097656 73.769531 131.792969 77.832031 131.824219 C 79.667969 131.835938 81.503906 131.882812 83.347656 131.652344 C 85.351562 131.402344 87.378906 131.347656 89.398438 131.191406 C 91.863281 131 94.335938 130.863281 96.804688 130.746094 C 99.730469 130.609375 102.648438 130.40625 105.570312 130.296875 C 109.628906 130.148438 113.691406 130.21875 117.75 130.070312 C 119.851562 129.996094 121.953125 129.855469 124.050781 129.75 C 126.519531 129.625 128.988281 129.378906 131.460938 129.367188 C 133.679688 129.351562 135.882812 128.992188 138.105469 129.113281 C 138.179688 129.117188 138.257812 129.121094 138.328125 129.105469 C 140.289062 128.660156 142.296875 129.046875 144.277344 128.710938 C 145.523438 128.5 146.820312 128.570312 148.089844 128.507812 C 151.085938 128.359375 154.082031 128.1875 157.082031 128.03125 C 159.515625 127.902344 161.945312 127.761719 164.375 127.582031 C 166.992188 127.390625 169.617188 127.296875 172.234375 127.121094 C 173.9375 127.003906 175.582031 126.71875 177.183594 126.160156 C 178.839844 125.585938 180.363281 124.761719 181.5625 123.476562 C 183.46875 121.433594 184.761719 119.046875 185.363281 116.296875 C 185.765625 114.457031 185.894531 112.585938 185.972656 110.722656 C 186.078125 108.242188 186 105.753906 186 102.398438 Z M 141.863281 29.949219 C 144.738281 29.949219 146.660156 29.976562 148.578125 29.945312 C 153.019531 29.875 157.449219 30.15625 161.886719 30.242188 C 164.566406 30.292969 167.277344 30.402344 169.949219 30.820312 C 170.722656 30.945312 171.523438 31.015625 172.292969 31.027344 C 173.722656 31.054688 174.527344 31.917969 175.148438 32.941406 C 176.042969 34.421875 176.671875 36.035156 176.972656 37.761719 C 177.074219 38.347656 177.324219 38.914062 177.410156 39.5 C 177.675781 41.242188 177.863281 42.992188 177.878906 44.753906 C 177.894531 46.480469 178.070312 48.195312 178.28125 49.902344 C 178.328125 50.277344 178.320312 50.65625 178.3125 51.03125 C 178.277344 53.097656 178.453125 55.148438 178.746094 57.191406 C 178.761719 57.304688 178.765625 57.417969 178.761719 57.53125 C 178.640625 60.652344 178.914062 63.765625 179.046875 66.878906 C 179.253906 71.691406 179.09375 76.503906 179.277344 81.3125 C 179.347656 83.148438 179.339844 84.992188 179.476562 86.820312 C 179.738281 90.339844 179.753906 93.871094 179.964844 97.386719 C 180.167969 100.8125 180.164062 104.230469 180.070312 107.644531 C 180.007812 110.136719 180.054688 112.667969 179.464844 115.132812 C 178.675781 118.421875 176.621094 120.703125 172.859375 121.019531 C 170.46875 121.21875 168.074219 121.351562 165.679688 121.480469 C 163.324219 121.613281 160.96875 121.792969 158.609375 121.933594 C 155.878906 122.097656 153.144531 122.230469 150.414062 122.398438 C 148.722656 122.503906 147.03125 122.472656 145.351562 122.601562 C 142.46875 122.828125 139.582031 122.902344 136.703125 123.085938 C 134.972656 123.195312 133.246094 123.140625 131.527344 123.277344 C 128.644531 123.5 125.753906 123.5 122.878906 123.738281 C 118.980469 124.066406 115.082031 124.183594 111.171875 124.164062 C 108.390625 124.148438 105.617188 124.359375 102.835938 124.4375 C 99.917969 124.515625 96.996094 124.734375 94.074219 124.871094 C 91.753906 124.980469 89.425781 125.097656 87.121094 125.332031 C 83.863281 125.664062 80.597656 125.625 77.339844 125.792969 C 74.179688 125.960938 71.019531 125.808594 67.871094 126.015625 C 66.144531 126.128906 64.417969 126.09375 62.699219 126.210938 C 59.441406 126.4375 56.171875 126.488281 52.917969 126.691406 C 48.027344 126.996094 43.140625 126.875 38.253906 126.824219 C 36.097656 126.804688 33.925781 126.5 31.816406 125.917969 C 30.308594 125.503906 29.304688 124.636719 28.972656 123.0625 C 28.605469 121.300781 28.335938 119.535156 28.234375 117.730469 C 28.113281 115.632812 28.117188 113.523438 27.972656 111.433594 C 27.875 110.007812 27.894531 108.582031 27.785156 107.164062 C 27.558594 104.207031 27.488281 101.246094 27.292969 98.292969 C 27.183594 96.675781 27.246094 95.0625 27.105469 93.457031 C 26.851562 90.53125 27.03125 87.59375 26.84375 84.671875 C 26.726562 82.796875 26.84375 80.910156 26.632812 79.050781 C 26.363281 76.683594 26.597656 74.3125 26.421875 71.957031 C 26.003906 66.394531 26.164062 60.824219 26.289062 55.265625 C 26.382812 51.019531 26.375 46.773438 26.453125 42.527344 C 26.464844 41.8125 26.695312 41.128906 26.722656 40.410156 C 26.742188 39.84375 27.167969 39.503906 27.6875 39.265625 C 28.890625 38.707031 30.175781 38.425781 31.453125 38.121094 C 34.367188 37.433594 37.296875 36.835938 40.277344 36.472656 C 42.320312 36.222656 44.355469 35.941406 46.414062 35.789062 C 49.171875 35.589844 51.917969 35.152344 54.675781 34.96875 C 55.984375 34.878906 57.289062 34.695312 58.605469 34.683594 C 60.289062 34.671875 61.964844 34.429688 63.640625 34.300781 C 64.800781 34.210938 65.949219 34.042969 67.113281 33.988281 C 68.71875 33.914062 70.320312 33.703125 71.917969 33.503906 C 73.847656 33.261719 75.769531 32.949219 77.71875 32.867188 C 78.914062 32.816406 80.101562 32.628906 81.289062 32.5 C 81.4375 32.484375 81.589844 32.441406 81.738281 32.449219 C 83.695312 32.535156 85.644531 32.292969 87.582031 32.140625 C 89.410156 31.992188 91.269531 32.203125 93.074219 31.777344 C 93.148438 31.761719 93.226562 31.765625 93.300781 31.769531 C 95.785156 31.871094 98.257812 31.585938 100.730469 31.46875 C 102.78125 31.371094 104.859375 31.5 106.898438 31.101562 C 107.15625 31.054688 107.425781 31.074219 107.6875 31.089844 C 109.871094 31.203125 112.042969 30.917969 114.214844 30.792969 C 115.753906 30.703125 117.296875 30.765625 118.824219 30.59375 C 120.886719 30.367188 122.964844 30.5625 125.011719 30.351562 C 126.78125 30.171875 128.546875 30.324219 130.300781 30.148438 C 134.46875 29.730469 138.648438 30.09375 141.863281 29.949219 Z M 83.003906 59.320312 C 83.136719 60.742188 83.289062 62.164062 83.402344 63.585938 C 83.679688 67.1875 83.707031 70.804688 83.902344 74.40625 C 84.222656 80.269531 84.859375 86.101562 85.714844 91.90625 C 86.101562 94.546875 86.550781 97.179688 87.042969 99.804688 C 87.324219 101.328125 88.066406 101.722656 89.570312 101.304688 C 89.820312 101.234375 90.0625 101.117188 90.296875 100.996094 C 90.863281 100.699219 91.433594 100.410156 91.980469 100.082031 C 97.574219 96.742188 102.929688 93.046875 108.21875 89.257812 C 112.867188 85.929688 117.316406 82.324219 122.207031 79.335938 C 123.457031 78.574219 124.699219 77.789062 125.949219 77.023438 C 126.371094 76.765625 126.742188 76.46875 127.027344 76.050781 C 127.757812 74.988281 127.601562 74.183594 126.449219 73.570312 C 125.789062 73.21875 125.089844 72.917969 124.386719 72.664062 C 121.804688 71.738281 119.21875 70.808594 116.617188 69.933594 C 109.917969 67.683594 103.21875 65.433594 96.703125 62.675781 C 92.792969 61.019531 88.898438 59.324219 84.941406 57.777344 C 83.425781 57.1875 82.683594 57.578125 83.003906 59.320312 Z M 83.003906 59.320312 " fill-opacity="1" fill-rule="nonzero"/></g><path fill="#fad156" d="M 78.957031 166.527344 C 79.476562 163.957031 79.46875 161.578125 78.746094 159.269531 C 79.144531 159.015625 79.492188 159.121094 79.816406 159.128906 C 87.386719 159.269531 94.957031 159.15625 102.519531 158.890625 C 108.125 158.691406 113.738281 158.710938 119.335938 158.324219 C 120.351562 158.253906 121.371094 158.234375 122.386719 158.234375 C 130.824219 158.230469 139.25 157.878906 147.675781 157.558594 C 153.097656 157.351562 158.515625 157.140625 163.9375 157.164062 C 165.785156 157.171875 167.625 157.015625 169.464844 156.902344 C 174.65625 156.582031 179.859375 156.769531 185.046875 156.488281 C 186.777344 156.394531 188.507812 156.324219 190.238281 156.25 C 190.574219 156.234375 190.917969 156.226562 191.25 156.277344 C 191.75 156.347656 192.035156 156.628906 192.105469 157.167969 C 192.316406 158.777344 192.390625 160.390625 192.3125 162.007812 C 192.265625 163 191.9375 163.351562 190.957031 163.472656 C 190.285156 163.558594 189.609375 163.652344 188.933594 163.652344 C 185.050781 163.648438 181.1875 163.976562 177.332031 164.40625 C 173.03125 164.886719 168.710938 165.152344 164.382812 165.292969 C 158.550781 165.484375 152.730469 165.992188 146.890625 165.976562 C 139.472656 165.957031 132.054688 165.949219 124.636719 165.945312 C 119.777344 165.945312 114.921875 165.882812 110.066406 165.996094 C 108.898438 166.023438 107.730469 166.019531 106.5625 166.003906 C 105.019531 165.980469 103.476562 165.96875 101.933594 166.105469 C 101.039062 166.183594 100.125 166.1875 99.226562 166.125 C 97.003906 165.96875 94.796875 166.070312 92.574219 166.179688 C 88.550781 166.378906 84.523438 166.421875 80.496094 166.523438 C 80.046875 166.535156 79.597656 166.527344 78.957031 166.527344 Z M 72.855469 158.21875 C 71.496094 154.777344 68.160156 152.878906 64.917969 152.882812 C 62.449219 152.882812 60.152344 153.566406 58.066406 154.859375 C 55.183594 156.640625 53.535156 159.183594 53.527344 162.664062 C 53.523438 163.757812 53.582031 164.847656 53.8125 165.917969 C 54.472656 168.957031 56.011719 171.3125 58.960938 172.605469 C 60.355469 173.214844 61.8125 173.496094 63.308594 173.730469 C 67.613281 174.40625 71.507812 171.375 72.800781 168.125 C 73.417969 166.570312 73.785156 164.972656 73.761719 163.574219 C 73.828125 161.535156 73.496094 159.847656 72.855469 158.21875 Z M 42.125 159.730469 C 36.335938 160.042969 30.535156 160.078125 24.753906 160.527344 C 23.140625 160.652344 21.527344 160.714844 19.90625 160.679688 C 18.503906 160.648438 18.335938 160.84375 18.101562 162.265625 C 17.898438 163.496094 17.78125 164.746094 17.917969 165.976562 C 18.175781 168.292969 18.296875 168.9375 20.925781 168.867188 C 24.835938 168.765625 28.746094 168.636719 32.660156 168.582031 C 34.316406 168.558594 35.96875 168.472656 37.625 168.476562 C 40.863281 168.488281 44.097656 168.488281 47.328125 168.179688 C 48.128906 168.101562 48.144531 168.109375 47.984375 167.324219 C 47.484375 164.925781 47.484375 162.542969 48.109375 160.167969 C 48.144531 160.03125 48.113281 159.878906 48.113281 159.714844 C 46.101562 159.714844 44.109375 159.625 42.125 159.730469 Z M 83.402344 63.585938 C 83.679688 67.1875 83.707031 70.804688 83.902344 74.40625 C 84.222656 80.269531 84.859375 86.101562 85.714844 91.90625 C 86.101562 94.546875 86.550781 97.179688 87.042969 99.804688 C 87.324219 101.328125 88.066406 101.722656 89.570312 101.304688 C 89.820312 101.234375 90.0625 101.117188 90.296875 100.996094 C 90.863281 100.699219 91.433594 100.410156 91.980469 100.082031 C 97.574219 96.742188 102.929688 93.046875 108.21875 89.257812 C 112.867188 85.929688 117.316406 82.324219 122.207031 79.335938 C 123.457031 78.574219 124.699219 77.789062 125.949219 77.023438 C 126.371094 76.765625 126.742188 76.46875 127.027344 76.050781 C 127.757812 74.988281 127.601562 74.183594 126.449219 73.570312 C 125.789062 73.21875 125.089844 72.917969 124.386719 72.664062 C 121.804688 71.738281 119.21875 70.808594 116.617188 69.933594 C 109.917969 67.683594 103.21875 65.433594 96.703125 62.675781 C 92.792969 61.019531 88.898438 59.324219 84.941406 57.777344 C 83.425781 57.1875 82.683594 57.578125 83.003906 59.320312 C 83.136719 60.742188 83.289062 62.164062 83.402344 63.585938 Z M 83.402344 63.585938 " fill-opacity="1" fill-rule="nonzero"/><g fill="#ff6c26" fill-opacity="1"><g transform="translate(217.827496, 100.432501)"><g><path d="M 16.21875 12.550781 C 25 12.550781 30.628906 7.851562 30.628906 -0.0507812 L 30.628906 -26.550781 L 22.105469 -26.550781 L 22.105469 -22.519531 L 21.640625 -22.519531 C 19.730469 -25.515625 16.890625 -27.21875 12.914062 -27.21875 C 5.941406 -27.21875 1.1875 -22.105469 1.1875 -13.273438 C 1.1875 -4.90625 5.992188 0.308594 12.964844 0.308594 C 16.632812 0.308594 19.371094 -1.238281 21.28125 -3.875 L 21.746094 -3.875 L 21.746094 -0.414062 C 21.746094 3.253906 19.316406 5.835938 15.703125 5.835938 C 12.65625 5.835938 10.226562 4.082031 9.8125 1.550781 L 1.34375 2.375 C 2.015625 8.832031 7.800781 12.550781 16.21875 12.550781 Z M 16.117188 -6.765625 C 12.601562 -6.765625 10.070312 -9.503906 10.070312 -13.273438 C 10.070312 -17.046875 12.550781 -19.835938 16.117188 -19.835938 C 19.574219 -19.835938 22.105469 -17.046875 22.105469 -13.273438 C 22.105469 -9.503906 19.628906 -6.765625 16.117188 -6.765625 Z M 16.117188 -6.765625 "/></g></g></g><g fill="#ff6c26" fill-opacity="1"><g transform="translate(250.936335, 100.432501)"><g><path d="M 16.0625 0.671875 C 25.101562 0.671875 30.941406 -4.597656 30.941406 -13.273438 C 30.941406 -21.953125 25.050781 -27.21875 16.0625 -27.21875 C 6.972656 -27.21875 1.136719 -21.953125 1.136719 -13.273438 C 1.136719 -4.648438 7.023438 0.671875 16.0625 0.671875 Z M 16.0625 -6.714844 C 12.5 -6.714844 10.019531 -9.402344 10.019531 -13.273438 C 10.019531 -17.148438 12.5 -19.835938 16.0625 -19.835938 C 19.574219 -19.835938 22.054688 -17.148438 22.054688 -13.273438 C 22.054688 -9.402344 19.574219 -6.714844 16.0625 -6.714844 Z M 16.0625 -6.714844 "/></g></g></g><g fill="#ff6c26" fill-opacity="1"><g transform="translate(283.012136, 100.432501)"><g><path d="M 16.21875 12.550781 C 25 12.550781 30.628906 7.851562 30.628906 -0.0507812 L 30.628906 -26.550781 L 22.105469 -26.550781 L 22.105469 -22.519531 L 21.640625 -22.519531 C 19.730469 -25.515625 16.890625 -27.21875 12.914062 -27.21875 C 5.941406 -27.21875 1.1875 -22.105469 1.1875 -13.273438 C 1.1875 -4.90625 5.992188 0.308594 12.964844 0.308594 C 16.632812 0.308594 19.371094 -1.238281 21.28125 -3.875 L 21.746094 -3.875 L 21.746094 -0.414062 C 21.746094 3.253906 19.316406 5.835938 15.703125 5.835938 C 12.65625 5.835938 10.226562 4.082031 9.8125 1.550781 L 1.34375 2.375 C 2.015625 8.832031 7.800781 12.550781 16.21875 12.550781 Z M 16.117188 -6.765625 C 12.601562 -6.765625 10.070312 -9.503906 10.070312 -13.273438 C 10.070312 -17.046875 12.550781 -19.835938 16.117188 -19.835938 C 19.574219 -19.835938 22.105469 -17.046875 22.105469 -13.273438 C 22.105469 -9.503906 19.628906 -6.765625 16.117188 -6.765625 Z M 16.117188 -6.765625 "/></g></g></g><g fill="#ff6c26" fill-opacity="1"><g transform="translate(316.120974, 100.432501)"><g><path d="M 16.0625 0.671875 C 25.101562 0.671875 30.941406 -4.597656 30.941406 -13.273438 C 30.941406 -21.953125 25.050781 -27.21875 16.0625 -27.21875 C 6.972656 -27.21875 1.136719 -21.953125 1.136719 -13.273438 C 1.136719 -4.648438 7.023438 0.671875 16.0625 0.671875 Z M 16.0625 -6.714844 C 12.5 -6.714844 10.019531 -9.402344 10.019531 -13.273438 C 10.019531 -17.148438 12.5 -19.835938 16.0625 -19.835938 C 19.574219 -19.835938 22.054688 -17.148438 22.054688 -13.273438 C 22.054688 -9.402344 19.574219 -6.714844 16.0625 -6.714844 Z M 16.0625 -6.714844 "/></g></g></g><g fill="#ff6c26" fill-opacity="1"><g transform="translate(348.196775, 100.432501)"><g><path d="M 20.09375 0.671875 C 27.21875 0.671875 31.921875 -4.753906 31.921875 -13.273438 C 31.921875 -21.746094 27.167969 -27.21875 20.09375 -27.21875 C 16.320312 -27.21875 13.585938 -25.566406 11.777344 -22.726562 L 11.3125 -22.726562 L 11.3125 -38.429688 L 2.480469 -38.429688 L 2.480469 0 L 11.3125 0 L 11.3125 -3.820312 L 11.777344 -3.820312 C 13.585938 -0.980469 16.269531 0.671875 20.09375 0.671875 Z M 16.992188 -6.714844 C 13.480469 -6.714844 10.949219 -9.503906 10.949219 -13.273438 C 10.949219 -17.046875 13.480469 -19.835938 16.992188 -19.835938 C 20.503906 -19.835938 23.035156 -17.046875 23.035156 -13.273438 C 23.035156 -9.503906 20.503906 -6.714844 16.992188 -6.714844 Z M 16.992188 -6.714844 "/></g></g></g><g fill="#ff6c26" fill-opacity="1"><g transform="translate(381.305614, 100.432501)"><g><path d="M 7.023438 -29.699219 C 9.96875 -29.699219 12.085938 -31.714844 12.085938 -34.554688 C 12.085938 -37.394531 9.96875 -39.410156 7.023438 -39.410156 C 4.132812 -39.410156 2.015625 -37.394531 2.015625 -34.554688 C 2.015625 -31.714844 4.132812 -29.699219 7.023438 -29.699219 Z M 2.582031 0 L 11.464844 0 L 11.464844 -26.550781 L 2.582031 -26.550781 Z M 2.582031 0 "/></g></g></g><g fill="#ff6c26" fill-opacity="1"><g transform="translate(395.354922, 100.432501)"><g><path d="M 13.273438 0.566406 C 14.925781 0.566406 17.25 0.257812 18.90625 -0.363281 L 18.90625 -6.457031 C 18.078125 -6.25 16.992188 -6.148438 16.21875 -6.148438 C 14.257812 -6.148438 12.964844 -7.542969 12.964844 -9.710938 L 12.964844 -20.246094 L 18.75 -20.246094 L 18.75 -26.550781 L 12.964844 -26.550781 L 12.964844 -34.710938 L 5.941406 -34.710938 L 4.441406 -26.550781 L 0.566406 -26.550781 L 0.566406 -20.246094 L 4.082031 -20.246094 L 4.082031 -9.296875 C 4.082031 -3.410156 7.746094 0.566406 13.273438 0.566406 Z M 13.273438 0.566406 "/></g></g></g><g fill="#ff6c26" fill-opacity="1"><g transform="translate(415.240885, 100.432501)"><g><path d="M 13.945312 0.878906 C 22.054688 0.878906 27.375 -2.6875 27.375 -8.472656 C 27.375 -14.773438 21.332031 -15.753906 16.476562 -16.375 C 12.808594 -16.785156 9.554688 -17.046875 9.554688 -19.472656 C 9.554688 -21.074219 11.207031 -22.160156 13.6875 -22.160156 C 16.476562 -22.160156 18.441406 -20.710938 18.441406 -18.542969 L 26.238281 -18.542969 C 26.289062 -23.964844 20.867188 -27.425781 13.636719 -27.425781 C 6.25 -27.425781 1.394531 -23.914062 1.394531 -18.59375 C 1.394531 -11.3125 8.210938 -10.949219 12.914062 -10.484375 C 15.960938 -10.125 18.542969 -9.867188 18.542969 -7.335938 C 18.542969 -5.578125 16.632812 -4.390625 14.101562 -4.390625 C 10.847656 -4.390625 8.625 -6.09375 8.625 -8.523438 L 1.1875 -8.523438 C 1.1875 -2.839844 6.199219 0.878906 13.945312 0.878906 Z M 13.945312 0.878906 "/></g></g></g></svg>