<svg xmlns="http://www.w3.org/2000/svg" xmlns:xlink="http://www.w3.org/1999/xlink" width="80" zoomAndPan="magnify" viewBox="0 0 60 37.5" height="50" preserveAspectRatio="xMidYMid meet" version="1.0"><defs><clipPath id="b93464b93a"><path d="M 5.804688 1.039062 L 53.914062 1.039062 L 53.914062 35.824219 L 5.804688 35.824219 Z M 5.804688 1.039062 " clip-rule="nonzero"/></clipPath></defs><g clip-path="url(#b93464b93a)"><path fill="#eeeeee" d="M 53.898438 30.472656 C 53.898438 33.429688 51.507812 35.824219 48.558594 35.824219 L 11.160156 35.824219 C 8.210938 35.824219 5.820312 33.429688 5.820312 30.472656 L 5.820312 6.390625 C 5.820312 3.433594 8.210938 1.039062 11.160156 1.039062 L 48.558594 1.039062 C 51.507812 1.039062 53.898438 3.433594 53.898438 6.390625 Z M 53.898438 30.472656 " fill-opacity="1" fill-rule="nonzero"/></g><path fill="#ed1b2f" d="M 39.207031 18.433594 C 39.207031 19.046875 39.148438 19.65625 39.027344 20.257812 C 38.910156 20.863281 38.730469 21.449219 38.496094 22.015625 C 38.261719 22.582031 37.972656 23.125 37.632812 23.636719 C 37.292969 24.144531 36.902344 24.621094 36.46875 25.054688 C 36.035156 25.488281 35.5625 25.878906 35.054688 26.21875 C 34.542969 26.558594 34.003906 26.847656 33.4375 27.085938 C 32.871094 27.320312 32.285156 27.496094 31.683594 27.617188 C 31.082031 27.738281 30.472656 27.796875 29.859375 27.796875 C 29.246094 27.796875 28.636719 27.738281 28.035156 27.617188 C 27.433594 27.496094 26.847656 27.320312 26.28125 27.085938 C 25.714844 26.847656 25.175781 26.558594 24.664062 26.21875 C 24.15625 25.878906 23.683594 25.488281 23.25 25.054688 C 22.8125 24.621094 22.425781 24.144531 22.085938 23.636719 C 21.746094 23.125 21.457031 22.582031 21.222656 22.015625 C 20.988281 21.449219 20.808594 20.863281 20.691406 20.257812 C 20.570312 19.65625 20.511719 19.046875 20.511719 18.433594 C 20.511719 17.816406 20.570312 17.207031 20.691406 16.605469 C 20.808594 16 20.988281 15.414062 21.222656 14.847656 C 21.457031 14.28125 21.746094 13.738281 22.085938 13.226562 C 22.425781 12.71875 22.8125 12.242188 23.25 11.808594 C 23.683594 11.375 24.15625 10.984375 24.664062 10.644531 C 25.175781 10.304688 25.714844 10.015625 26.28125 9.777344 C 26.847656 9.542969 27.433594 9.367188 28.035156 9.246094 C 28.636719 9.125 29.246094 9.066406 29.859375 9.066406 C 30.472656 9.066406 31.082031 9.125 31.683594 9.246094 C 32.285156 9.367188 32.871094 9.542969 33.4375 9.777344 C 34.003906 10.015625 34.542969 10.304688 35.054688 10.644531 C 35.5625 10.984375 36.035156 11.375 36.46875 11.808594 C 36.902344 12.242188 37.292969 12.71875 37.632812 13.226562 C 37.972656 13.738281 38.261719 14.28125 38.496094 14.847656 C 38.730469 15.414062 38.910156 16 39.027344 16.605469 C 39.148438 17.207031 39.207031 17.816406 39.207031 18.433594 Z M 39.207031 18.433594 " fill-opacity="1" fill-rule="nonzero"/></svg>