<svg xmlns="http://www.w3.org/2000/svg" xmlns:xlink="http://www.w3.org/1999/xlink" width="80" zoomAndPan="magnify" viewBox="0 0 60 37.5" height="50" preserveAspectRatio="xMidYMid meet" version="1.0"><defs><clipPath id="99ab558a10"><path d="M 6.132812 1.277344 L 21 1.277344 L 21 36.0625 L 6.132812 36.0625 Z M 6.132812 1.277344 " clip-rule="nonzero"/></clipPath><clipPath id="27da34e39f"><path d="M 39 1.277344 L 53.503906 1.277344 L 53.503906 36.0625 L 39 36.0625 Z M 39 1.277344 " clip-rule="nonzero"/></clipPath><clipPath id="079eaa9852"><path d="M 20 1.277344 L 40 1.277344 L 40 36.0625 L 20 36.0625 Z M 20 1.277344 " clip-rule="nonzero"/></clipPath></defs><g clip-path="url(#99ab558a10)"><path fill="#006847" d="M 11.40625 1.277344 C 8.5 1.277344 6.148438 3.671875 6.148438 6.628906 L 6.148438 30.710938 C 6.148438 33.667969 8.5 36.0625 11.40625 36.0625 L 20.613281 36.0625 L 20.613281 1.277344 Z M 11.40625 1.277344 " fill-opacity="1" fill-rule="nonzero"/></g><g clip-path="url(#27da34e39f)"><path fill="#ce1126" d="M 48.230469 1.277344 L 39.023438 1.277344 L 39.023438 36.0625 L 48.230469 36.0625 C 51.132812 36.0625 53.488281 33.667969 53.488281 30.710938 L 53.488281 6.628906 C 53.488281 3.671875 51.132812 1.277344 48.230469 1.277344 Z M 48.230469 1.277344 " fill-opacity="1" fill-rule="nonzero"/></g><g clip-path="url(#079eaa9852)"><path fill="#eeeeee" d="M 20.613281 1.277344 L 39.023438 1.277344 L 39.023438 36.0625 L 20.613281 36.0625 Z M 20.613281 1.277344 " fill-opacity="1" fill-rule="nonzero"/></g><path fill="#a6d388" d="M 36.394531 18.667969 C 36.394531 22.363281 33.449219 25.359375 29.816406 25.359375 C 26.1875 25.359375 23.242188 22.363281 23.242188 18.667969 L 21.925781 18.667969 C 21.925781 23.101562 25.460938 26.695312 29.816406 26.695312 C 34.175781 26.695312 37.707031 23.101562 37.707031 18.667969 Z M 36.394531 18.667969 " fill-opacity="1" fill-rule="nonzero"/><path fill="#5c913b" d="M 23.957031 21.703125 C 23.835938 21.464844 23.589844 21.332031 23.339844 21.34375 C 23.25 21.34375 23.15625 21.371094 23.070312 21.414062 C 22.746094 21.582031 22.621094 21.984375 22.785156 22.3125 C 22.902344 22.550781 23.03125 22.78125 23.171875 23.003906 L 23.179688 23.011719 L 23.179688 23.015625 L 23.191406 23.039062 L 23.199219 23.046875 L 23.199219 23.050781 L 23.203125 23.054688 L 23.203125 23.058594 L 23.207031 23.066406 L 23.207031 23.070312 L 23.21875 23.082031 L 23.21875 23.085938 L 23.222656 23.089844 L 23.222656 23.09375 L 23.226562 23.101562 L 23.230469 23.101562 L 23.230469 23.105469 L 23.234375 23.113281 L 23.238281 23.117188 L 23.242188 23.125 L 23.242188 23.128906 L 23.257812 23.152344 C 23.328125 23.253906 23.394531 23.355469 23.46875 23.453125 C 23.605469 23.640625 23.816406 23.730469 24.023438 23.722656 C 24.148438 23.71875 24.277344 23.675781 24.386719 23.589844 C 24.679688 23.371094 24.738281 22.949219 24.523438 22.65625 C 24.3125 22.351562 24.121094 22.035156 23.957031 21.703125 Z M 23.304688 19.589844 C 23.277344 19.378906 23.253906 19.167969 23.246094 18.949219 C 23.238281 18.789062 23.238281 18.632812 23.242188 18.472656 C 23.253906 18.105469 22.96875 17.796875 22.605469 17.785156 L 22.558594 17.789062 C 22.214844 17.800781 21.9375 18.082031 21.929688 18.4375 C 21.925781 18.574219 21.925781 18.714844 21.925781 18.851562 L 21.925781 18.972656 L 21.929688 18.980469 L 21.929688 19.089844 L 21.933594 19.113281 L 21.933594 19.140625 C 21.945312 19.355469 21.96875 19.566406 21.996094 19.777344 C 22.042969 20.121094 22.335938 20.367188 22.671875 20.355469 C 22.691406 20.351562 22.714844 20.351562 22.734375 20.347656 C 23.101562 20.292969 23.351562 19.953125 23.304688 19.589844 Z M 30.265625 25.339844 L 30.257812 25.34375 L 30.09375 25.355469 C 29.78125 25.367188 29.46875 25.359375 29.160156 25.324219 C 29.128906 25.320312 29.097656 25.320312 29.066406 25.324219 C 28.746094 25.335938 28.472656 25.589844 28.441406 25.925781 C 28.40625 26.292969 28.667969 26.621094 29.027344 26.65625 L 29.191406 26.671875 L 29.207031 26.671875 L 29.214844 26.675781 L 29.253906 26.675781 L 29.261719 26.679688 L 29.304688 26.679688 C 29.503906 26.691406 29.703125 26.699219 29.90625 26.695312 L 30.027344 26.695312 L 30.035156 26.691406 L 30.042969 26.695312 L 30.042969 26.691406 L 30.050781 26.695312 L 30.054688 26.695312 L 30.058594 26.691406 L 30.136719 26.691406 L 30.144531 26.6875 L 30.179688 26.6875 C 30.234375 26.6875 30.289062 26.679688 30.34375 26.679688 C 30.699219 26.648438 30.964844 26.335938 30.941406 25.972656 C 30.933594 25.609375 30.621094 25.328125 30.265625 25.339844 Z M 27.058594 24.742188 C 26.726562 24.585938 26.40625 24.402344 26.105469 24.191406 C 25.984375 24.105469 25.84375 24.070312 25.707031 24.074219 C 25.507812 24.082031 25.3125 24.183594 25.191406 24.367188 C 24.988281 24.667969 25.0625 25.085938 25.359375 25.292969 L 25.363281 25.296875 L 25.371094 25.300781 L 25.378906 25.308594 L 25.386719 25.3125 L 25.394531 25.320312 C 25.742188 25.5625 26.113281 25.773438 26.5 25.957031 C 26.597656 26.003906 26.703125 26.023438 26.804688 26.019531 C 27.042969 26.007812 27.265625 25.867188 27.375 25.632812 C 27.53125 25.296875 27.386719 24.898438 27.058594 24.742188 Z M 33.671875 24.210938 C 33.5625 24.214844 33.449219 24.25 33.347656 24.316406 C 33.039062 24.515625 32.714844 24.691406 32.382812 24.835938 C 32.046875 24.976562 31.886719 25.367188 32.03125 25.710938 C 32.140625 25.972656 32.398438 26.128906 32.660156 26.117188 C 32.738281 26.117188 32.8125 26.097656 32.886719 26.066406 L 33.066406 25.988281 L 33.074219 25.980469 L 33.078125 25.980469 L 33.082031 25.976562 L 33.09375 25.976562 L 33.097656 25.972656 L 33.105469 25.972656 L 33.105469 25.96875 L 33.109375 25.964844 L 33.117188 25.964844 L 33.121094 25.960938 L 33.128906 25.960938 L 33.128906 25.957031 L 33.136719 25.957031 L 33.140625 25.953125 C 33.144531 25.953125 33.144531 25.949219 33.144531 25.949219 L 33.148438 25.949219 L 33.15625 25.945312 L 33.160156 25.945312 L 33.175781 25.9375 L 33.179688 25.9375 L 33.183594 25.929688 L 33.1875 25.929688 L 33.195312 25.925781 L 33.207031 25.921875 L 33.214844 25.917969 L 33.21875 25.917969 L 33.222656 25.914062 L 33.226562 25.914062 L 33.234375 25.90625 L 33.242188 25.90625 L 33.25 25.898438 L 33.253906 25.898438 L 33.261719 25.894531 L 33.28125 25.882812 L 33.292969 25.878906 L 33.308594 25.871094 L 33.320312 25.867188 L 33.328125 25.863281 L 33.347656 25.851562 L 33.394531 25.828125 L 33.414062 25.816406 L 33.421875 25.8125 L 33.425781 25.8125 C 33.425781 25.8125 33.429688 25.808594 33.433594 25.808594 C 33.4375 25.804688 33.4375 25.804688 33.441406 25.804688 L 33.453125 25.796875 L 33.476562 25.785156 L 33.480469 25.785156 L 33.488281 25.777344 L 33.496094 25.773438 L 33.507812 25.769531 L 33.515625 25.765625 L 33.523438 25.757812 L 33.535156 25.753906 L 33.542969 25.75 L 33.542969 25.746094 L 33.550781 25.746094 L 33.558594 25.738281 L 33.5625 25.738281 L 33.570312 25.734375 L 33.578125 25.726562 L 33.582031 25.726562 L 33.597656 25.71875 L 33.601562 25.71875 L 33.609375 25.710938 L 33.617188 25.707031 L 33.621094 25.707031 C 33.621094 25.703125 33.621094 25.703125 33.625 25.703125 L 33.628906 25.703125 L 33.636719 25.695312 L 33.644531 25.695312 L 33.65625 25.683594 L 33.660156 25.683594 L 33.675781 25.675781 L 33.679688 25.671875 L 33.683594 25.671875 L 33.6875 25.667969 L 33.695312 25.664062 L 33.699219 25.660156 C 33.699219 25.664062 33.703125 25.660156 33.703125 25.660156 L 33.707031 25.65625 L 33.710938 25.65625 L 33.71875 25.648438 L 33.726562 25.648438 L 33.730469 25.640625 L 33.734375 25.640625 C 33.734375 25.640625 33.742188 25.640625 33.742188 25.636719 L 33.75 25.632812 L 33.757812 25.625 L 33.761719 25.625 L 33.785156 25.613281 L 33.796875 25.605469 C 33.804688 25.601562 33.8125 25.59375 33.824219 25.589844 C 33.90625 25.539062 33.992188 25.488281 34.074219 25.433594 C 34.378906 25.234375 34.46875 24.824219 34.273438 24.511719 C 34.121094 24.3125 33.898438 24.199219 33.671875 24.210938 Z M 37.054688 18.03125 L 37.023438 18.03125 C 36.671875 18.046875 36.394531 18.339844 36.390625 18.699219 C 36.390625 19.070312 36.359375 19.445312 36.296875 19.808594 C 36.234375 20.171875 36.476562 20.519531 36.832031 20.578125 C 36.882812 20.585938 36.925781 20.59375 36.972656 20.589844 C 37.277344 20.578125 37.542969 20.351562 37.59375 20.03125 L 37.59375 20.027344 L 37.597656 20.023438 L 37.597656 20.007812 L 37.601562 20.003906 L 37.601562 19.992188 C 37.601562 19.988281 37.601562 19.988281 37.601562 19.984375 L 37.601562 19.976562 C 37.628906 19.804688 37.65625 19.632812 37.671875 19.453125 L 37.671875 19.429688 L 37.675781 19.425781 L 37.675781 19.40625 L 37.679688 19.40625 L 37.675781 19.402344 L 37.675781 19.394531 C 37.679688 19.394531 37.679688 19.394531 37.679688 19.390625 L 37.679688 19.359375 C 37.699219 19.144531 37.707031 18.921875 37.707031 18.699219 C 37.707031 18.332031 37.417969 18.03125 37.054688 18.03125 Z M 36.472656 21.636719 C 36.359375 21.578125 36.242188 21.550781 36.125 21.554688 C 35.902344 21.566406 35.691406 21.6875 35.578125 21.898438 C 35.402344 22.222656 35.195312 22.539062 34.96875 22.828125 C 34.742188 23.117188 34.789062 23.535156 35.074219 23.765625 C 35.203125 23.871094 35.359375 23.917969 35.511719 23.910156 C 35.695312 23.902344 35.875 23.816406 35.996094 23.660156 C 36.148438 23.464844 36.296875 23.257812 36.429688 23.050781 C 36.433594 23.039062 36.441406 23.03125 36.445312 23.023438 L 36.449219 23.023438 L 36.453125 23.011719 L 36.457031 23.003906 C 36.460938 23 36.464844 22.996094 36.464844 22.996094 L 36.46875 22.988281 C 36.472656 22.984375 36.472656 22.980469 36.472656 22.976562 L 36.476562 22.976562 L 36.480469 22.96875 L 36.480469 22.964844 C 36.484375 22.964844 36.484375 22.960938 36.484375 22.960938 L 36.488281 22.957031 L 36.496094 22.941406 L 36.503906 22.933594 L 36.507812 22.925781 L 36.507812 22.921875 L 36.515625 22.914062 C 36.515625 22.910156 36.515625 22.90625 36.519531 22.90625 L 36.519531 22.902344 L 36.527344 22.898438 C 36.527344 22.898438 36.527344 22.894531 36.527344 22.894531 L 36.527344 22.890625 L 36.53125 22.886719 L 36.535156 22.878906 L 36.539062 22.878906 L 36.542969 22.867188 L 36.546875 22.859375 L 36.550781 22.855469 C 36.550781 22.855469 36.550781 22.855469 36.550781 22.851562 C 36.550781 22.851562 36.550781 22.851562 36.554688 22.847656 L 36.558594 22.84375 L 36.558594 22.839844 L 36.566406 22.832031 C 36.566406 22.828125 36.566406 22.828125 36.566406 22.828125 C 36.570312 22.824219 36.570312 22.824219 36.570312 22.820312 L 36.578125 22.8125 L 36.582031 22.804688 L 36.582031 22.800781 L 36.59375 22.789062 L 36.59375 22.785156 L 36.597656 22.777344 L 36.597656 22.773438 C 36.601562 22.773438 36.601562 22.769531 36.601562 22.769531 L 36.605469 22.765625 L 36.605469 22.761719 L 36.609375 22.753906 L 36.613281 22.75 L 36.617188 22.742188 C 36.617188 22.742188 36.617188 22.738281 36.621094 22.738281 L 36.621094 22.734375 L 36.625 22.730469 L 36.628906 22.722656 L 36.632812 22.71875 C 36.632812 22.71875 36.632812 22.714844 36.632812 22.714844 C 36.632812 22.710938 36.632812 22.710938 36.636719 22.710938 L 36.644531 22.695312 L 36.648438 22.691406 L 36.648438 22.6875 L 36.652344 22.683594 L 36.660156 22.667969 C 36.664062 22.664062 36.660156 22.664062 36.660156 22.664062 L 36.664062 22.65625 L 36.667969 22.65625 L 36.675781 22.640625 L 36.679688 22.636719 L 36.679688 22.625 L 36.6875 22.621094 L 36.691406 22.613281 L 36.691406 22.609375 L 36.695312 22.601562 L 36.699219 22.601562 L 36.734375 22.539062 C 36.902344 22.222656 36.789062 21.816406 36.472656 21.636719 Z M 36.472656 21.636719 " fill-opacity="1" fill-rule="nonzero"/><path fill="#55acee" d="M 33.761719 22.683594 C 33.761719 22.859375 33.664062 23.03125 33.460938 23.195312 C 33.261719 23.359375 32.976562 23.503906 32.609375 23.628906 C 32.238281 23.753906 31.8125 23.851562 31.328125 23.917969 C 30.84375 23.988281 30.339844 24.019531 29.816406 24.019531 C 29.292969 24.019531 28.792969 23.988281 28.308594 23.917969 C 27.824219 23.851562 27.398438 23.753906 27.027344 23.628906 C 26.660156 23.503906 26.375 23.359375 26.171875 23.195312 C 25.972656 23.03125 25.871094 22.859375 25.871094 22.683594 C 25.871094 22.503906 25.972656 22.335938 26.171875 22.171875 C 26.375 22.007812 26.660156 21.863281 27.027344 21.738281 C 27.398438 21.613281 27.824219 21.515625 28.308594 21.445312 C 28.792969 21.378906 29.292969 21.34375 29.816406 21.34375 C 30.339844 21.34375 30.84375 21.378906 31.328125 21.445312 C 31.8125 21.515625 32.238281 21.613281 32.609375 21.738281 C 32.976562 21.863281 33.261719 22.007812 33.460938 22.171875 C 33.664062 22.335938 33.761719 22.503906 33.761719 22.683594 Z M 33.761719 22.683594 " fill-opacity="1" fill-rule="nonzero"/><path fill="#ffcc4d" d="M 32.449219 22.683594 C 32.449219 22.859375 32.398438 23.03125 32.296875 23.195312 C 32.199219 23.359375 32.054688 23.503906 31.871094 23.628906 C 31.683594 23.753906 31.472656 23.851562 31.230469 23.917969 C 30.988281 23.988281 30.738281 24.019531 30.476562 24.019531 C 30.214844 24.019531 29.960938 23.988281 29.71875 23.917969 C 29.480469 23.851562 29.265625 23.753906 29.082031 23.628906 C 28.894531 23.503906 28.753906 23.359375 28.652344 23.195312 C 28.554688 23.03125 28.503906 22.859375 28.503906 22.683594 C 28.503906 22.503906 28.554688 22.335938 28.652344 22.171875 C 28.753906 22.007812 28.894531 21.863281 29.082031 21.738281 C 29.265625 21.613281 29.480469 21.515625 29.71875 21.445312 C 29.960938 21.378906 30.214844 21.34375 30.476562 21.34375 C 30.738281 21.34375 30.988281 21.378906 31.230469 21.445312 C 31.472656 21.515625 31.683594 21.613281 31.871094 21.738281 C 32.054688 21.863281 32.199219 22.007812 32.296875 22.171875 C 32.398438 22.335938 32.449219 22.503906 32.449219 22.683594 Z M 32.449219 22.683594 " fill-opacity="1" fill-rule="nonzero"/><path fill="#5c913b" d="M 31.285156 23.050781 C 31.179688 23.050781 31.074219 23.023438 30.972656 22.96875 C 30.652344 22.792969 30.535156 22.382812 30.707031 22.0625 C 30.917969 21.667969 31.140625 21.308594 31.367188 20.996094 C 31.1875 21.003906 30.996094 21.007812 30.804688 21.007812 C 30.441406 21.007812 30.109375 20.707031 30.109375 20.339844 C 30.109375 19.96875 30.363281 19.671875 30.730469 19.671875 L 30.835938 19.671875 C 31.226562 19.671875 31.625 19.648438 31.984375 19.613281 C 32.191406 19.589844 32.390625 19.675781 32.523438 19.824219 C 32.542969 19.808594 32.558594 19.792969 32.578125 19.78125 C 32.710938 19.691406 32.832031 19.621094 32.949219 19.566406 C 33.027344 19.503906 33.121094 19.460938 33.226562 19.441406 L 33.273438 19.429688 C 33.519531 19.347656 33.695312 19.339844 33.761719 19.339844 C 33.972656 19.339844 34.167969 19.4375 34.292969 19.609375 C 34.414062 19.78125 34.453125 20 34.390625 20.203125 C 34.28125 20.558594 34.042969 20.640625 33.621094 20.726562 C 33.539062 20.757812 33.433594 20.808594 33.308594 20.898438 C 33.058594 21.0625 32.738281 21.035156 32.519531 20.851562 C 32.699219 21.089844 32.707031 21.429688 32.515625 21.671875 C 32.292969 21.964844 32.074219 22.308594 31.863281 22.699219 C 31.746094 22.925781 31.519531 23.050781 31.285156 23.050781 Z M 29.417969 20.921875 C 29.390625 20.921875 29.363281 20.921875 29.332031 20.917969 C 28.839844 20.851562 28.375 20.753906 27.945312 20.621094 C 27.59375 20.515625 27.398438 20.144531 27.5 19.789062 L 27.507812 19.765625 L 27.492188 19.792969 C 27.316406 20.117188 26.914062 20.234375 26.597656 20.050781 C 26.148438 19.796875 25.75 19.492188 25.40625 19.140625 C 25.148438 18.878906 25.148438 18.457031 25.40625 18.195312 C 25.660156 17.933594 26.078125 17.933594 26.335938 18.195312 C 26.59375 18.457031 26.898438 18.6875 27.238281 18.882812 C 27.519531 19.042969 27.640625 19.382812 27.539062 19.683594 C 27.679688 19.398438 28.003906 19.246094 28.316406 19.339844 C 28.679688 19.449219 29.078125 19.535156 29.5 19.589844 C 29.859375 19.640625 30.113281 19.976562 30.066406 20.339844 C 30.027344 20.679688 29.746094 20.921875 29.417969 20.921875 Z M 26.195312 17.792969 C 25.632812 17.792969 24.910156 17.574219 24.472656 17.046875 C 23.796875 16.238281 23.402344 15.203125 23.460938 14.40625 C 23.476562 14.195312 23.273438 14.023438 23.074219 13.96875 C 22.960938 13.9375 22.757812 13.917969 22.664062 14.128906 C 22.585938 14.296875 22.390625 14.367188 22.226562 14.289062 C 22.0625 14.210938 21.992188 14.011719 22.066406 13.847656 C 22.273438 13.390625 22.730469 13.191406 23.238281 13.320312 C 23.710938 13.445312 24.160156 13.875 24.117188 14.457031 C 24.070312 15.078125 24.414062 15.941406 24.972656 16.613281 C 25.265625 16.964844 25.777344 17.109375 26.121094 17.121094 C 26.40625 17.136719 26.546875 17.070312 26.578125 17.042969 C 26.503906 16.867188 25.53125 16.34375 25.117188 16.121094 C 24.761719 15.933594 24.65625 15.671875 24.628906 15.492188 C 24.542969 14.882812 25.15625 14.265625 25.75 13.671875 C 25.960938 13.460938 26.15625 13.261719 26.265625 13.117188 C 26.386719 12.953125 26.367188 12.84375 26.34375 12.773438 C 26.253906 12.523438 25.859375 12.277344 25.386719 12.167969 C 24.949219 12.070312 24.652344 11.855469 24.507812 11.527344 C 24.316406 11.097656 24.417969 10.539062 24.816406 9.808594 C 24.90625 9.644531 25.105469 9.589844 25.265625 9.679688 C 25.421875 9.769531 25.480469 9.972656 25.390625 10.132812 C 25.015625 10.820312 25.054688 11.128906 25.109375 11.253906 C 25.164062 11.378906 25.304688 11.464844 25.53125 11.515625 C 26.085938 11.640625 26.753906 11.976562 26.960938 12.542969 C 27.078125 12.863281 27.019531 13.210938 26.792969 13.519531 C 26.65625 13.703125 26.441406 13.917969 26.210938 14.148438 C 25.871094 14.488281 25.238281 15.121094 25.28125 15.394531 C 25.289062 15.449219 25.359375 15.5 25.421875 15.53125 C 26.410156 16.058594 27.066406 16.4375 27.199219 16.90625 C 27.246094 17.070312 27.226562 17.238281 27.144531 17.386719 C 27.015625 17.613281 26.75 17.75 26.375 17.785156 C 26.320312 17.792969 26.257812 17.792969 26.195312 17.792969 Z M 26.195312 17.792969 " fill-opacity="1" fill-rule="nonzero"/><path fill="#ffcc4d" d="M 32.449219 18.667969 C 32.449219 18.847656 32.429688 19.015625 32.398438 19.179688 C 32.363281 19.34375 32.316406 19.488281 32.253906 19.617188 C 32.195312 19.742188 32.121094 19.835938 32.042969 19.90625 C 31.960938 19.972656 31.878906 20.007812 31.789062 20.007812 C 31.703125 20.007812 31.621094 19.972656 31.539062 19.90625 C 31.457031 19.835938 31.386719 19.742188 31.324219 19.617188 C 31.265625 19.488281 31.214844 19.34375 31.183594 19.179688 C 31.148438 19.015625 31.132812 18.847656 31.132812 18.667969 C 31.132812 18.492188 31.148438 18.320312 31.183594 18.15625 C 31.214844 17.992188 31.265625 17.847656 31.324219 17.722656 C 31.386719 17.597656 31.457031 17.5 31.539062 17.433594 C 31.621094 17.367188 31.703125 17.332031 31.789062 17.332031 C 31.878906 17.332031 31.960938 17.367188 32.042969 17.433594 C 32.121094 17.5 32.195312 17.597656 32.253906 17.722656 C 32.316406 17.847656 32.363281 17.992188 32.398438 18.15625 C 32.429688 18.320312 32.449219 18.492188 32.449219 18.667969 Z M 32.449219 18.667969 " fill-opacity="1" fill-rule="nonzero"/><path fill="#ffcc4d" d="M 28.886719 17.582031 C 28.886719 17.96875 28.433594 18.28125 27.871094 18.28125 C 27.3125 18.28125 26.859375 17.96875 26.859375 17.582031 C 26.859375 17.199219 27.3125 16.886719 27.871094 16.886719 C 28.433594 16.886719 28.886719 17.199219 28.886719 17.582031 Z M 27.324219 11.390625 C 27.390625 11.675781 27.027344 12.007812 26.511719 12.132812 C 25.996094 12.257812 25.527344 12.125 25.457031 11.84375 C 25.394531 11.558594 25.757812 11.226562 26.269531 11.101562 C 26.789062 10.980469 27.261719 11.105469 27.324219 11.390625 Z M 27.324219 11.390625 " fill-opacity="1" fill-rule="nonzero"/><path fill="#c1694f" d="M 35.777344 18.609375 C 35.898438 18.703125 36.097656 17.632812 36.070312 17.300781 C 36.070312 17.277344 36.03125 16.570312 36.175781 16.0625 C 36.269531 15.894531 36.273438 14.617188 36.132812 14.28125 C 36.246094 14.269531 36.378906 14.234375 36.394531 14.097656 C 35.882812 14.289062 35.761719 13.003906 35.273438 12.265625 C 34.796875 11.527344 34.207031 11.09375 33.589844 10.644531 C 33.636719 10.519531 33.710938 10.402344 33.800781 10.285156 C 33.046875 10.667969 31.867188 9.273438 30.128906 9.378906 C 29.738281 9.417969 29.550781 9.441406 29.449219 9.683594 C 29.125 9.710938 28.796875 9.785156 28.796875 10.222656 C 28.796875 10.324219 28.890625 10.515625 29.097656 10.515625 C 29.382812 10.601562 29.613281 10.535156 29.804688 10.941406 L 29.855469 11.359375 C 29.855469 11.359375 29.605469 11.027344 29.464844 10.976562 L 29.550781 10.796875 C 29.417969 10.71875 29.183594 10.78125 29.183594 10.78125 C 29.183594 10.78125 28.679688 10.542969 28.273438 10.605469 L 28.195312 10.269531 C 28.121094 10.476562 27.964844 10.464844 27.941406 10.660156 C 27.898438 10.519531 27.835938 10.347656 27.796875 10.210938 C 27.652344 10.40625 27.695312 10.621094 27.644531 10.828125 C 27.585938 10.875 27.472656 10.878906 27.445312 10.746094 C 27.429688 10.582031 27.410156 10.566406 27.410156 10.371094 C 27.308594 10.554688 27.183594 10.644531 27.144531 10.960938 L 27.035156 10.613281 C 27.039062 11.023438 26.691406 11.269531 26.363281 11.558594 C 26.269531 11.730469 26.378906 11.734375 26.386719 11.824219 L 26.558594 11.910156 L 26.871094 11.886719 C 26.921875 11.953125 26.878906 11.960938 27.015625 12 C 27.378906 12.105469 27.832031 11.660156 28.1875 12.359375 C 28.023438 12.496094 27.859375 12.824219 27.910156 12.882812 C 27.976562 12.882812 27.78125 12.976562 28.046875 12.890625 C 27.769531 13.164062 27.582031 13.523438 27.582031 13.546875 C 27.550781 13.625 27.691406 13.535156 27.664062 13.675781 L 27.730469 13.667969 C 27.101562 14.359375 27.707031 15.105469 27.640625 15.507812 C 27.746094 15.679688 27.761719 15.503906 27.890625 15.484375 C 28 15.976562 28.320312 16.277344 28.515625 16.664062 L 28.105469 16.667969 C 28.113281 16.855469 28.277344 17.027344 28.410156 17.191406 L 28.132812 17.277344 C 27.9375 17.382812 27.808594 17.488281 27.671875 17.644531 C 27.578125 17.871094 28.109375 17.925781 28.363281 17.964844 L 28.355469 18.234375 C 28.753906 18.273438 29.214844 18.152344 29.214844 18.132812 L 29.3125 18.050781 L 29.539062 18.179688 C 29.613281 18.179688 29.730469 17.875 29.675781 17.640625 C 29.820312 17.8125 29.957031 18.097656 30.101562 18.273438 L 30.238281 18.253906 C 30.359375 18.453125 30.53125 18.652344 30.65625 18.851562 L 30.792969 18.90625 C 30.871094 18.875 30.941406 18.867188 30.984375 18.707031 L 31.046875 18.820312 L 31.265625 18.667969 L 31.417969 18.636719 L 31.53125 18.824219 C 31.601562 18.800781 31.664062 18.652344 31.667969 18.492188 C 31.738281 18.632812 31.757812 18.621094 31.804688 18.65625 L 31.90625 18.441406 L 32.453125 18.960938 L 32.867188 18.984375 C 33.011719 19.085938 33.417969 19.148438 33.484375 18.984375 C 33.816406 19.128906 34.207031 18.964844 34.1875 18.804688 C 34.492188 18.929688 34.960938 18.847656 34.960938 18.824219 C 35.019531 18.820312 35.164062 18.675781 35.027344 18.566406 C 34.019531 17.851562 32.523438 16.667969 31.945312 16.382812 C 31.945312 16.171875 31.789062 15.410156 31.621094 15.203125 L 31.757812 14.96875 C 32.152344 15.34375 32.292969 15.308594 32.503906 15.367188 C 32.726562 15.546875 32.804688 15.820312 33.027344 16.070312 L 33.226562 16.109375 C 33.089844 15.75 32.917969 15.40625 32.5 14.941406 C 32.714844 15.050781 33.070312 15.34375 33.3125 15.554688 C 33.46875 15.824219 33.515625 16.039062 33.660156 16.375 C 33.765625 16.445312 33.871094 16.695312 33.859375 16.488281 C 33.832031 16.097656 33.5625 15.480469 33.5625 15.4375 C 33.992188 15.78125 33.988281 16.320312 34.117188 16.648438 C 34.226562 16.8125 34.28125 17.035156 34.328125 16.984375 L 34.203125 15.972656 L 34.128906 15.601562 C 34.445312 15.789062 34.558594 16.496094 34.707031 17.347656 C 34.707031 17.484375 34.761719 17.632812 34.753906 17.71875 C 34.820312 17.804688 34.898438 18.039062 34.898438 17.898438 C 34.898438 17.898438 34.898438 16.515625 34.804688 16.199219 C 34.78125 16.03125 34.84375 15.753906 34.84375 15.753906 C 34.960938 16.328125 35.082031 16.949219 35.199219 17.523438 L 35.199219 17.945312 L 35.375 18.121094 C 35.40625 17.773438 35.445312 17.429688 35.480469 17.082031 L 35.351562 15.847656 L 35.351562 15.492188 C 35.347656 15.367188 35.460938 15.390625 35.535156 15.53125 C 35.550781 15.835938 35.550781 16.074219 35.5625 16.375 C 35.613281 16.722656 35.648438 16.972656 35.675781 17.414062 C 35.691406 17.769531 35.707031 18.625 35.777344 18.609375 Z M 35.777344 18.609375 " fill-opacity="1" fill-rule="nonzero"/></svg>