<svg xmlns="http://www.w3.org/2000/svg" version="1.1" xmlns:xlink="http://www.w3.org/1999/xlink" xmlns:svgjs="http://svgjs.com/svgjs" width="1440" height="560" preserveAspectRatio="none" viewBox="0 0 1440 560"><g mask="url(&quot;#SvgjsMask1030&quot;)" fill="none"><path d="M-42.13 637.71L-42.13 637.71" stroke="#132e65" stroke-width="1.5"></path><path d="M-42.13 637.71L87.16 671.57" stroke="#132e65" stroke-width="1.5"></path><path d="M-42.13 637.71L86.12 515.12" stroke="#132e65" stroke-width="1.5"></path><path d="M-42.13 637.71L207.15 677.54" stroke="#132e65" stroke-width="1.5"></path><path d="M-42.13 637.71L207.51 553.77" stroke="#132e65" stroke-width="1.5"></path><path d="M-42.13 637.71L99.43 370.01" stroke="#132e65" stroke-width="1.5"></path><path d="M-42.13 637.71L194.17 389.06" stroke="#132e65" stroke-width="1.5"></path><path d="M99.43 370.01L99.43 370.01" stroke="#132e65" stroke-width="1.5"></path><path d="M99.43 370.01L194.17 389.06" stroke="#132e65" stroke-width="1.5"></path><path d="M99.43 370.01L86.12 515.12" stroke="#132e65" stroke-width="1.5"></path><path d="M86.12 515.12L86.12 515.12" stroke="#132e65" stroke-width="1.5"></path><path d="M86.12 515.12L207.51 553.77" stroke="#132e65" stroke-width="1.5"></path><path d="M86.12 515.12L87.16 671.57" stroke="#132e65" stroke-width="1.5"></path><path d="M86.12 515.12L194.17 389.06" stroke="#132e65" stroke-width="1.5"></path><path d="M87.16 671.57L87.16 671.57" stroke="#132e65" stroke-width="1.5"></path><path d="M87.16 671.57L207.15 677.54" stroke="#132e65" stroke-width="1.5"></path><path d="M87.16 671.57L207.51 553.77" stroke="#132e65" stroke-width="1.5"></path><path d="M87.16 671.57L356.54 652.51" stroke="#132e65" stroke-width="1.5"></path><path d="M87.16 671.57L99.43 370.01" stroke="#132e65" stroke-width="1.5"></path><path d="M194.17 389.06L194.17 389.06" stroke="#132e65" stroke-width="1.5"></path><path d="M194.17 389.06L207.51 553.77" stroke="#132e65" stroke-width="1.5"></path><path d="M207.51 553.77L207.51 553.77" stroke="#132e65" stroke-width="1.5"></path><path d="M207.51 553.77L207.15 677.54" stroke="#132e65" stroke-width="1.5"></path><path d="M207.51 553.77L356.54 652.51" stroke="#132e65" stroke-width="1.5"></path><path d="M207.51 553.77L403.22 514.63" stroke="#132e65" stroke-width="1.5"></path><path d="M207.15 677.54L207.15 677.54" stroke="#132e65" stroke-width="1.5"></path><path d="M378.45 358.69L378.45 358.69" stroke="#132e65" stroke-width="1.5"></path><path d="M378.45 358.69L530.59 368.59" stroke="#132e65" stroke-width="1.5"></path><path d="M378.45 358.69L403.22 514.63" stroke="#132e65" stroke-width="1.5"></path><path d="M378.45 358.69L194.17 389.06" stroke="#132e65" stroke-width="1.5"></path><path d="M403.22 514.63L403.22 514.63" stroke="#132e65" stroke-width="1.5"></path><path d="M403.22 514.63L545.81 542.64" stroke="#132e65" stroke-width="1.5"></path><path d="M403.22 514.63L356.54 652.51" stroke="#132e65" stroke-width="1.5"></path><path d="M403.22 514.63L531.74 656.17" stroke="#132e65" stroke-width="1.5"></path><path d="M403.22 514.63L530.59 368.59" stroke="#132e65" stroke-width="1.5"></path><path d="M356.54 652.51L356.54 652.51" stroke="#132e65" stroke-width="1.5"></path><path d="M356.54 652.51L207.15 677.54" stroke="#132e65" stroke-width="1.5"></path><path d="M356.54 652.51L531.74 656.17" stroke="#132e65" stroke-width="1.5"></path><path d="M356.54 652.51L545.81 542.64" stroke="#132e65" stroke-width="1.5"></path><path d="M530.59 368.59L530.59 368.59" stroke="#132e65" stroke-width="1.5"></path><path d="M530.59 368.59L697.7 340.21" stroke="#132e65" stroke-width="1.5"></path><path d="M530.59 368.59L654.73 246.23" stroke="#132e65" stroke-width="1.5"></path><path d="M545.81 542.64L545.81 542.64" stroke="#132e65" stroke-width="1.5"></path><path d="M545.81 542.64L531.74 656.17" stroke="#132e65" stroke-width="1.5"></path><path d="M545.81 542.64L668.33 498.04" stroke="#132e65" stroke-width="1.5"></path><path d="M531.74 656.17L531.74 656.17" stroke="#132e65" stroke-width="1.5"></path><path d="M531.74 656.17L668.75 694.02" stroke="#132e65" stroke-width="1.5"></path><path d="M654.73 246.23L654.73 246.23" stroke="#132e65" stroke-width="1.5"></path><path d="M654.73 246.23L697.7 340.21" stroke="#132e65" stroke-width="1.5"></path><path d="M697.7 340.21L697.7 340.21" stroke="#132e65" stroke-width="1.5"></path><path d="M697.7 340.21L803.89 365.28" stroke="#132e65" stroke-width="1.5"></path><path d="M668.33 498.04L668.33 498.04" stroke="#132e65" stroke-width="1.5"></path><path d="M668.33 498.04L697.7 340.21" stroke="#132e65" stroke-width="1.5"></path><path d="M668.33 498.04L530.59 368.59" stroke="#132e65" stroke-width="1.5"></path><path d="M668.33 498.04L803.89 365.28" stroke="#132e65" stroke-width="1.5"></path><path d="M668.33 498.04L668.75 694.02" stroke="#132e65" stroke-width="1.5"></path><path d="M668.33 498.04L531.74 656.17" stroke="#132e65" stroke-width="1.5"></path><path d="M668.75 694.02L668.75 694.02" stroke="#132e65" stroke-width="1.5"></path><path d="M668.75 694.02L814.82 647.76" stroke="#132e65" stroke-width="1.5"></path><path d="M668.75 694.02L545.81 542.64" stroke="#132e65" stroke-width="1.5"></path><path d="M839.35 253.6L839.35 253.6" stroke="#132e65" stroke-width="1.5"></path><path d="M839.35 253.6L944.54 217.77" stroke="#132e65" stroke-width="1.5"></path><path d="M839.35 253.6L803.89 365.28" stroke="#132e65" stroke-width="1.5"></path><path d="M803.89 365.28L803.89 365.28" stroke="#132e65" stroke-width="1.5"></path><path d="M814.82 647.76L814.82 647.76" stroke="#132e65" stroke-width="1.5"></path><path d="M814.82 647.76L979.64 664.7" stroke="#132e65" stroke-width="1.5"></path><path d="M1007.88 -61.19L1007.88 -61.19" stroke="#132e65" stroke-width="1.5"></path><path d="M1007.88 -61.19L1132.2 -108.33" stroke="#132e65" stroke-width="1.5"></path><path d="M1007.88 -61.19L1146.28 69.73" stroke="#132e65" stroke-width="1.5"></path><path d="M1007.88 -61.19L1290.65 -87.38" stroke="#132e65" stroke-width="1.5"></path><path d="M1007.88 -61.19L944.54 217.77" stroke="#132e65" stroke-width="1.5"></path><path d="M1007.88 -61.19L1285.91 70.05" stroke="#132e65" stroke-width="1.5"></path><path d="M944.54 217.77L944.54 217.77" stroke="#132e65" stroke-width="1.5"></path><path d="M944.54 217.77L996.94 370.32" stroke="#132e65" stroke-width="1.5"></path><path d="M944.54 217.77L1105.49 248.28" stroke="#132e65" stroke-width="1.5"></path><path d="M996.94 370.32L996.94 370.32" stroke="#132e65" stroke-width="1.5"></path><path d="M996.94 370.32L1117.36 365.16" stroke="#132e65" stroke-width="1.5"></path><path d="M961.05 549.56L961.05 549.56" stroke="#132e65" stroke-width="1.5"></path><path d="M961.05 549.56L979.64 664.7" stroke="#132e65" stroke-width="1.5"></path><path d="M979.64 664.7L979.64 664.7" stroke="#132e65" stroke-width="1.5"></path><path d="M1132.2 -108.33L1132.2 -108.33" stroke="#132e65" stroke-width="1.5"></path><path d="M1146.28 69.73L1146.28 69.73" stroke="#132e65" stroke-width="1.5"></path><path d="M1146.28 69.73L1285.91 70.05" stroke="#132e65" stroke-width="1.5"></path><path d="M1146.28 69.73L1132.2 -108.33" stroke="#132e65" stroke-width="1.5"></path><path d="M1146.28 69.73L1105.49 248.28" stroke="#132e65" stroke-width="1.5"></path><path d="M1105.49 248.28L1105.49 248.28" stroke="#132e65" stroke-width="1.5"></path><path d="M1105.49 248.28L1117.36 365.16" stroke="#132e65" stroke-width="1.5"></path><path d="M1105.49 248.28L996.94 370.32" stroke="#132e65" stroke-width="1.5"></path><path d="M1105.49 248.28L1273.18 218.44" stroke="#132e65" stroke-width="1.5"></path><path d="M1105.49 248.28L1285.91 70.05" stroke="#132e65" stroke-width="1.5"></path><path d="M1117.36 365.16L1117.36 365.16" stroke="#132e65" stroke-width="1.5"></path><path d="M1117.36 365.16L1123.73 523.67" stroke="#132e65" stroke-width="1.5"></path><path d="M1117.36 365.16L1252.85 502.89" stroke="#132e65" stroke-width="1.5"></path><path d="M1117.36 365.16L1273.18 218.44" stroke="#132e65" stroke-width="1.5"></path><path d="M1123.73 523.67L1123.73 523.67" stroke="#132e65" stroke-width="1.5"></path><path d="M1123.73 523.67L1252.85 502.89" stroke="#132e65" stroke-width="1.5"></path><path d="M1123.73 523.67L1103.97 656.54" stroke="#132e65" stroke-width="1.5"></path><path d="M1103.97 656.54L1103.97 656.54" stroke="#132e65" stroke-width="1.5"></path><path d="M1103.97 656.54L979.64 664.7" stroke="#132e65" stroke-width="1.5"></path><path d="M1103.97 656.54L961.05 549.56" stroke="#132e65" stroke-width="1.5"></path><path d="M1103.97 656.54L1284.52 690.09" stroke="#132e65" stroke-width="1.5"></path><path d="M1290.65 -87.38L1290.65 -87.38" stroke="#132e65" stroke-width="1.5"></path><path d="M1290.65 -87.38L1401.36 -76.64" stroke="#132e65" stroke-width="1.5"></path><path d="M1290.65 -87.38L1285.91 70.05" stroke="#132e65" stroke-width="1.5"></path><path d="M1290.65 -87.38L1132.2 -108.33" stroke="#132e65" stroke-width="1.5"></path><path d="M1290.65 -87.38L1146.28 69.73" stroke="#132e65" stroke-width="1.5"></path><path d="M1285.91 70.05L1285.91 70.05" stroke="#132e65" stroke-width="1.5"></path><path d="M1285.91 70.05L1273.18 218.44" stroke="#132e65" stroke-width="1.5"></path><path d="M1285.91 70.05L1457.37 109.26" stroke="#132e65" stroke-width="1.5"></path><path d="M1273.18 218.44L1273.18 218.44" stroke="#132e65" stroke-width="1.5"></path><path d="M1273.18 218.44L1146.28 69.73" stroke="#132e65" stroke-width="1.5"></path><path d="M1273.18 218.44L1457.37 109.26" stroke="#132e65" stroke-width="1.5"></path><path d="M1252.85 502.89L1252.85 502.89" stroke="#132e65" stroke-width="1.5"></path><path d="M1252.85 502.89L1284.52 690.09" stroke="#132e65" stroke-width="1.5"></path><path d="M1252.85 502.89L1447.19 515" stroke="#132e65" stroke-width="1.5"></path><path d="M1252.85 502.89L1103.97 656.54" stroke="#132e65" stroke-width="1.5"></path><path d="M1252.85 502.89L1438.7 380.64" stroke="#132e65" stroke-width="1.5"></path><path d="M1284.52 690.09L1284.52 690.09" stroke="#132e65" stroke-width="1.5"></path><path d="M1284.52 690.09L1429.09 679.61" stroke="#132e65" stroke-width="1.5"></path><path d="M1401.36 -76.64L1401.36 -76.64" stroke="#132e65" stroke-width="1.5"></path><path d="M1401.36 -76.64L1585.32 -46.36" stroke="#132e65" stroke-width="1.5"></path><path d="M1401.36 -76.64L1285.91 70.05" stroke="#132e65" stroke-width="1.5"></path><path d="M1401.36 -76.64L1457.37 109.26" stroke="#132e65" stroke-width="1.5"></path><path d="M1457.37 109.26L1457.37 109.26" stroke="#132e65" stroke-width="1.5"></path><path d="M1457.37 109.26L1550.89 100.67" stroke="#132e65" stroke-width="1.5"></path><path d="M1457.37 109.26L1572.61 218.68" stroke="#132e65" stroke-width="1.5"></path><path d="M1438.7 380.64L1438.7 380.64" stroke="#132e65" stroke-width="1.5"></path><path d="M1438.7 380.64L1550.98 357.73" stroke="#132e65" stroke-width="1.5"></path><path d="M1438.7 380.64L1447.19 515" stroke="#132e65" stroke-width="1.5"></path><path d="M1438.7 380.64L1572.61 218.68" stroke="#132e65" stroke-width="1.5"></path><path d="M1447.19 515L1447.19 515" stroke="#132e65" stroke-width="1.5"></path><path d="M1447.19 515L1429.09 679.61" stroke="#132e65" stroke-width="1.5"></path><path d="M1447.19 515L1550.98 357.73" stroke="#132e65" stroke-width="1.5"></path><path d="M1447.19 515L1589.82 654.63" stroke="#132e65" stroke-width="1.5"></path><path d="M1429.09 679.61L1429.09 679.61" stroke="#132e65" stroke-width="1.5"></path><path d="M1429.09 679.61L1589.82 654.63" stroke="#132e65" stroke-width="1.5"></path><path d="M1429.09 679.61L1252.85 502.89" stroke="#132e65" stroke-width="1.5"></path><path d="M1429.09 679.61L1438.7 380.64" stroke="#132e65" stroke-width="1.5"></path><path d="M1585.32 -46.36L1585.32 -46.36" stroke="#132e65" stroke-width="1.5"></path><path d="M1585.32 -46.36L1550.89 100.67" stroke="#132e65" stroke-width="1.5"></path><path d="M1585.32 -46.36L1457.37 109.26" stroke="#132e65" stroke-width="1.5"></path><path d="M1585.32 -46.36L1572.61 218.68" stroke="#132e65" stroke-width="1.5"></path><path d="M1585.32 -46.36L1290.65 -87.38" stroke="#132e65" stroke-width="1.5"></path><path d="M1585.32 -46.36L1285.91 70.05" stroke="#132e65" stroke-width="1.5"></path><path d="M1550.89 100.67L1550.89 100.67" stroke="#132e65" stroke-width="1.5"></path><path d="M1550.89 100.67L1572.61 218.68" stroke="#132e65" stroke-width="1.5"></path><path d="M1550.89 100.67L1401.36 -76.64" stroke="#132e65" stroke-width="1.5"></path><path d="M1550.89 100.67L1550.98 357.73" stroke="#132e65" stroke-width="1.5"></path><path d="M1550.89 100.67L1285.91 70.05" stroke="#132e65" stroke-width="1.5"></path><path d="M1572.61 218.68L1572.61 218.68" stroke="#132e65" stroke-width="1.5"></path><path d="M1572.61 218.68L1550.98 357.73" stroke="#132e65" stroke-width="1.5"></path><path d="M1550.98 357.73L1550.98 357.73" stroke="#132e65" stroke-width="1.5"></path><path d="M1550.98 357.73L1457.37 109.26" stroke="#132e65" stroke-width="1.5"></path><path d="M1550.98 357.73L1589.82 654.63" stroke="#132e65" stroke-width="1.5"></path><path d="M1589.82 654.63L1589.82 654.63" stroke="#132e65" stroke-width="1.5"></path><path d="M1589.82 654.63L1284.52 690.09" stroke="#132e65" stroke-width="1.5"></path><path d="M1589.82 654.63L1438.7 380.64" stroke="#132e65" stroke-width="1.5"></path><path d="M1589.82 654.63L1252.85 502.89" stroke="#132e65" stroke-width="1.5"></path><circle r="5" cx="-42.13" cy="637.71" fill="#132e65"></circle><circle r="5" cx="99.43" cy="370.01" fill="#132e65"></circle><circle r="5" cx="86.12" cy="515.12" fill="#132e65"></circle><circle r="5" cx="87.16" cy="671.57" fill="#132e65"></circle><circle r="5" cx="194.17" cy="389.06" fill="#132e65"></circle><circle r="5" cx="207.51" cy="553.77" fill="#132e65"></circle><circle r="5" cx="207.15" cy="677.54" fill="#132e65"></circle><circle r="5" cx="378.45" cy="358.69" fill="#132e65"></circle><circle r="5" cx="403.22" cy="514.63" fill="#132e65"></circle><circle r="5" cx="356.54" cy="652.51" fill="#132e65"></circle><circle r="5" cx="530.59" cy="368.59" fill="#132e65"></circle><circle r="5" cx="545.81" cy="542.64" fill="#132e65"></circle><circle r="5" cx="531.74" cy="656.17" fill="#132e65"></circle><circle r="5" cx="654.73" cy="246.23" fill="#132e65"></circle><circle r="5" cx="697.7" cy="340.21" fill="#132e65"></circle><circle r="5" cx="668.33" cy="498.04" fill="#132e65"></circle><circle r="5" cx="668.75" cy="694.02" fill="#132e65"></circle><circle r="5" cx="839.35" cy="253.6" fill="#132e65"></circle><circle r="5" cx="803.89" cy="365.28" fill="#132e65"></circle><circle r="5" cx="814.82" cy="647.76" fill="#132e65"></circle><circle r="5" cx="1007.88" cy="-61.19" fill="#132e65"></circle><circle r="5" cx="944.54" cy="217.77" fill="#132e65"></circle><circle r="5" cx="996.94" cy="370.32" fill="#132e65"></circle><circle r="5" cx="961.05" cy="549.56" fill="#132e65"></circle><circle r="5" cx="979.64" cy="664.7" fill="#132e65"></circle><circle r="5" cx="1132.2" cy="-108.33" fill="#132e65"></circle><circle r="5" cx="1146.28" cy="69.73" fill="#132e65"></circle><circle r="5" cx="1105.49" cy="248.28" fill="#132e65"></circle><circle r="5" cx="1117.36" cy="365.16" fill="#132e65"></circle><circle r="5" cx="1123.73" cy="523.67" fill="#132e65"></circle><circle r="5" cx="1103.97" cy="656.54" fill="#132e65"></circle><circle r="5" cx="1290.65" cy="-87.38" fill="#132e65"></circle><circle r="5" cx="1285.91" cy="70.05" fill="#132e65"></circle><circle r="5" cx="1273.18" cy="218.44" fill="#132e65"></circle><circle r="5" cx="1252.85" cy="502.89" fill="#132e65"></circle><circle r="5" cx="1284.52" cy="690.09" fill="#132e65"></circle><circle r="5" cx="1401.36" cy="-76.64" fill="#132e65"></circle><circle r="5" cx="1457.37" cy="109.26" fill="#132e65"></circle><circle r="5" cx="1438.7" cy="380.64" fill="#132e65"></circle><circle r="5" cx="1447.19" cy="515" fill="#132e65"></circle><circle r="5" cx="1429.09" cy="679.61" fill="#132e65"></circle><circle r="5" cx="1585.32" cy="-46.36" fill="#132e65"></circle><circle r="5" cx="1550.89" cy="100.67" fill="#132e65"></circle><circle r="5" cx="1572.61" cy="218.68" fill="#132e65"></circle><circle r="5" cx="1550.98" cy="357.73" fill="#132e65"></circle><circle r="5" cx="1589.82" cy="654.63" fill="#132e65"></circle><path d="M343.12 500.74L343.12 500.74" stroke="hsl(19.399999999999977, 100%, 74.7%)" stroke-width="1.5"></path><path d="M343.12 500.74L232.8 537.59" stroke="hsl(19.399999999999977, 100%, 74.7%)" stroke-width="1.5"></path><path d="M343.12 500.74L396.86 706.41" stroke="hsl(19.399999999999977, 100%, 74.7%)" stroke-width="1.5"></path><path d="M343.12 500.74L59.78 542.92" stroke="hsl(19.399999999999977, 100%, 74.7%)" stroke-width="1.5"></path><path d="M343.12 500.74L538.92 711.44" stroke="hsl(19.399999999999977, 100%, 74.7%)" stroke-width="1.5"></path><path d="M343.12 500.74L46.14 685.14" stroke="hsl(19.399999999999977, 100%, 74.7%)" stroke-width="1.5"></path><path d="M343.12 500.74L694.57 558.02" stroke="hsl(19.399999999999977, 100%, 74.7%)" stroke-width="1.5"></path><path d="M538.92 711.44L538.92 711.44" stroke="hsl(19.399999999999977, 100%, 74.7%)" stroke-width="1.5"></path><path d="M538.92 711.44L666.91 658.9" stroke="hsl(19.399999999999977, 100%, 74.7%)" stroke-width="1.5"></path><path d="M538.92 711.44L396.86 706.41" stroke="hsl(19.399999999999977, 100%, 74.7%)" stroke-width="1.5"></path><path d="M538.92 711.44L694.57 558.02" stroke="hsl(19.399999999999977, 100%, 74.7%)" stroke-width="1.5"></path><path d="M538.92 711.44L790.23 690.98" stroke="hsl(19.399999999999977, 100%, 74.7%)" stroke-width="1.5"></path><path d="M666.91 658.9L666.91 658.9" stroke="hsl(19.399999999999977, 100%, 74.7%)" stroke-width="1.5"></path><path d="M666.91 658.9L694.57 558.02" stroke="hsl(19.399999999999977, 100%, 74.7%)" stroke-width="1.5"></path><path d="M666.91 658.9L790.23 690.98" stroke="hsl(19.399999999999977, 100%, 74.7%)" stroke-width="1.5"></path><path d="M666.91 658.9L849.39 496.15" stroke="hsl(19.399999999999977, 100%, 74.7%)" stroke-width="1.5"></path><path d="M1006.55 511.41L1006.55 511.41" stroke="hsl(19.399999999999977, 100%, 74.7%)" stroke-width="1.5"></path><path d="M1006.55 511.41L946.16 409.92" stroke="hsl(19.399999999999977, 100%, 74.7%)" stroke-width="1.5"></path><path d="M1006.55 511.41L1129.16 542.22" stroke="hsl(19.399999999999977, 100%, 74.7%)" stroke-width="1.5"></path><path d="M1006.55 511.41L1098.34 383.84" stroke="hsl(19.399999999999977, 100%, 74.7%)" stroke-width="1.5"></path><path d="M1006.55 511.41L849.39 496.15" stroke="hsl(19.399999999999977, 100%, 74.7%)" stroke-width="1.5"></path><path d="M1006.55 511.41L962.37 677.76" stroke="hsl(19.399999999999977, 100%, 74.7%)" stroke-width="1.5"></path><path d="M1006.55 511.41L1158.84 652.81" stroke="hsl(19.399999999999977, 100%, 74.7%)" stroke-width="1.5"></path><path d="M1255.76 111.31L1255.76 111.31" stroke="hsl(19.399999999999977, 100%, 74.7%)" stroke-width="1.5"></path><path d="M1255.76 111.31L1306.02 191.29" stroke="hsl(19.399999999999977, 100%, 74.7%)" stroke-width="1.5"></path><path d="M1255.76 111.31L1152.38 102.84" stroke="hsl(19.399999999999977, 100%, 74.7%)" stroke-width="1.5"></path><path d="M1255.76 111.31L1292.42 -46.56" stroke="hsl(19.399999999999977, 100%, 74.7%)" stroke-width="1.5"></path><path d="M1255.76 111.31L1429.37 93.93" stroke="hsl(19.399999999999977, 100%, 74.7%)" stroke-width="1.5"></path><path d="M1295.24 356.51L1295.24 356.51" stroke="hsl(19.399999999999977, 100%, 74.7%)" stroke-width="1.5"></path><path d="M1295.24 356.51L1400.2 398.87" stroke="hsl(19.399999999999977, 100%, 74.7%)" stroke-width="1.5"></path><path d="M1295.24 356.51L1310.62 505.32" stroke="hsl(19.399999999999977, 100%, 74.7%)" stroke-width="1.5"></path><path d="M1429.37 93.93L1429.37 93.93" stroke="hsl(19.399999999999977, 100%, 74.7%)" stroke-width="1.5"></path><path d="M1429.37 93.93L1440.87 224.16" stroke="hsl(19.399999999999977, 100%, 74.7%)" stroke-width="1.5"></path><path d="M1429.37 93.93L1578.36 80.09" stroke="hsl(19.399999999999977, 100%, 74.7%)" stroke-width="1.5"></path><path d="M-88.43 556.88L-88.43 556.88" stroke="hsl(19.399999999999977, 100%, 74.7%)" stroke-width="1.5"></path><path d="M-88.43 556.88L-47.41 664.55" stroke="hsl(19.399999999999977, 100%, 74.7%)" stroke-width="1.5"></path><path d="M-88.43 556.88L59.78 542.92" stroke="hsl(19.399999999999977, 100%, 74.7%)" stroke-width="1.5"></path><path d="M-88.43 556.88L46.14 685.14" stroke="hsl(19.399999999999977, 100%, 74.7%)" stroke-width="1.5"></path><path d="M-88.43 556.88L232.8 537.59" stroke="hsl(19.399999999999977, 100%, 74.7%)" stroke-width="1.5"></path><path d="M-88.43 556.88L343.12 500.74" stroke="hsl(19.399999999999977, 100%, 74.7%)" stroke-width="1.5"></path><path d="M-47.41 664.55L-47.41 664.55" stroke="hsl(19.399999999999977, 100%, 74.7%)" stroke-width="1.5"></path><path d="M-47.41 664.55L46.14 685.14" stroke="hsl(19.399999999999977, 100%, 74.7%)" stroke-width="1.5"></path><path d="M-47.41 664.55L59.78 542.92" stroke="hsl(19.399999999999977, 100%, 74.7%)" stroke-width="1.5"></path><path d="M-47.41 664.55L232.8 537.59" stroke="hsl(19.399999999999977, 100%, 74.7%)" stroke-width="1.5"></path><path d="M59.78 542.92L59.78 542.92" stroke="hsl(19.399999999999977, 100%, 74.7%)" stroke-width="1.5"></path><path d="M59.78 542.92L46.14 685.14" stroke="hsl(19.399999999999977, 100%, 74.7%)" stroke-width="1.5"></path><path d="M59.78 542.92L232.8 537.59" stroke="hsl(19.399999999999977, 100%, 74.7%)" stroke-width="1.5"></path><path d="M59.78 542.92L396.86 706.41" stroke="hsl(19.399999999999977, 100%, 74.7%)" stroke-width="1.5"></path><path d="M46.14 685.14L46.14 685.14" stroke="hsl(19.399999999999977, 100%, 74.7%)" stroke-width="1.5"></path><path d="M232.8 537.59L232.8 537.59" stroke="hsl(19.399999999999977, 100%, 74.7%)" stroke-width="1.5"></path><path d="M232.8 537.59L396.86 706.41" stroke="hsl(19.399999999999977, 100%, 74.7%)" stroke-width="1.5"></path><path d="M232.8 537.59L46.14 685.14" stroke="hsl(19.399999999999977, 100%, 74.7%)" stroke-width="1.5"></path><path d="M396.86 706.41L396.86 706.41" stroke="hsl(19.399999999999977, 100%, 74.7%)" stroke-width="1.5"></path><path d="M396.86 706.41L666.91 658.9" stroke="hsl(19.399999999999977, 100%, 74.7%)" stroke-width="1.5"></path><path d="M396.86 706.41L694.57 558.02" stroke="hsl(19.399999999999977, 100%, 74.7%)" stroke-width="1.5"></path><path d="M396.86 706.41L46.14 685.14" stroke="hsl(19.399999999999977, 100%, 74.7%)" stroke-width="1.5"></path><path d="M678.52 375.08L678.52 375.08" stroke="hsl(19.399999999999977, 100%, 74.7%)" stroke-width="1.5"></path><path d="M678.52 375.08L816.27 397.72" stroke="hsl(19.399999999999977, 100%, 74.7%)" stroke-width="1.5"></path><path d="M678.52 375.08L694.57 558.02" stroke="hsl(19.399999999999977, 100%, 74.7%)" stroke-width="1.5"></path><path d="M678.52 375.08L849.39 496.15" stroke="hsl(19.399999999999977, 100%, 74.7%)" stroke-width="1.5"></path><path d="M678.52 375.08L946.16 409.92" stroke="hsl(19.399999999999977, 100%, 74.7%)" stroke-width="1.5"></path><path d="M678.52 375.08L666.91 658.9" stroke="hsl(19.399999999999977, 100%, 74.7%)" stroke-width="1.5"></path><path d="M694.57 558.02L694.57 558.02" stroke="hsl(19.399999999999977, 100%, 74.7%)" stroke-width="1.5"></path><path d="M816.27 397.72L816.27 397.72" stroke="hsl(19.399999999999977, 100%, 74.7%)" stroke-width="1.5"></path><path d="M816.27 397.72L849.39 496.15" stroke="hsl(19.399999999999977, 100%, 74.7%)" stroke-width="1.5"></path><path d="M816.27 397.72L946.16 409.92" stroke="hsl(19.399999999999977, 100%, 74.7%)" stroke-width="1.5"></path><path d="M816.27 397.72L694.57 558.02" stroke="hsl(19.399999999999977, 100%, 74.7%)" stroke-width="1.5"></path><path d="M816.27 397.72L1006.55 511.41" stroke="hsl(19.399999999999977, 100%, 74.7%)" stroke-width="1.5"></path><path d="M816.27 397.72L1098.34 383.84" stroke="hsl(19.399999999999977, 100%, 74.7%)" stroke-width="1.5"></path><path d="M849.39 496.15L849.39 496.15" stroke="hsl(19.399999999999977, 100%, 74.7%)" stroke-width="1.5"></path><path d="M849.39 496.15L946.16 409.92" stroke="hsl(19.399999999999977, 100%, 74.7%)" stroke-width="1.5"></path><path d="M849.39 496.15L694.57 558.02" stroke="hsl(19.399999999999977, 100%, 74.7%)" stroke-width="1.5"></path><path d="M790.23 690.98L790.23 690.98" stroke="hsl(19.399999999999977, 100%, 74.7%)" stroke-width="1.5"></path><path d="M790.23 690.98L694.57 558.02" stroke="hsl(19.399999999999977, 100%, 74.7%)" stroke-width="1.5"></path><path d="M946.16 409.92L946.16 409.92" stroke="hsl(19.399999999999977, 100%, 74.7%)" stroke-width="1.5"></path><path d="M946.16 409.92L1098.34 383.84" stroke="hsl(19.399999999999977, 100%, 74.7%)" stroke-width="1.5"></path><path d="M946.16 409.92L1129.16 542.22" stroke="hsl(19.399999999999977, 100%, 74.7%)" stroke-width="1.5"></path><path d="M946.16 409.92L1117.81 227.83" stroke="hsl(19.399999999999977, 100%, 74.7%)" stroke-width="1.5"></path><path d="M962.37 677.76L962.37 677.76" stroke="hsl(19.399999999999977, 100%, 74.7%)" stroke-width="1.5"></path><path d="M962.37 677.76L790.23 690.98" stroke="hsl(19.399999999999977, 100%, 74.7%)" stroke-width="1.5"></path><path d="M962.37 677.76L1158.84 652.81" stroke="hsl(19.399999999999977, 100%, 74.7%)" stroke-width="1.5"></path><path d="M962.37 677.76L849.39 496.15" stroke="hsl(19.399999999999977, 100%, 74.7%)" stroke-width="1.5"></path><path d="M962.37 677.76L1129.16 542.22" stroke="hsl(19.399999999999977, 100%, 74.7%)" stroke-width="1.5"></path><path d="M962.37 677.76L946.16 409.92" stroke="hsl(19.399999999999977, 100%, 74.7%)" stroke-width="1.5"></path><path d="M1152.38 102.84L1152.38 102.84" stroke="hsl(19.399999999999977, 100%, 74.7%)" stroke-width="1.5"></path><path d="M1152.38 102.84L1117.81 227.83" stroke="hsl(19.399999999999977, 100%, 74.7%)" stroke-width="1.5"></path><path d="M1152.38 102.84L1306.02 191.29" stroke="hsl(19.399999999999977, 100%, 74.7%)" stroke-width="1.5"></path><path d="M1152.38 102.84L1292.42 -46.56" stroke="hsl(19.399999999999977, 100%, 74.7%)" stroke-width="1.5"></path><path d="M1152.38 102.84L1429.37 93.93" stroke="hsl(19.399999999999977, 100%, 74.7%)" stroke-width="1.5"></path><path d="M1117.81 227.83L1117.81 227.83" stroke="hsl(19.399999999999977, 100%, 74.7%)" stroke-width="1.5"></path><path d="M1117.81 227.83L1098.34 383.84" stroke="hsl(19.399999999999977, 100%, 74.7%)" stroke-width="1.5"></path><path d="M1117.81 227.83L1255.76 111.31" stroke="hsl(19.399999999999977, 100%, 74.7%)" stroke-width="1.5"></path><path d="M1117.81 227.83L1306.02 191.29" stroke="hsl(19.399999999999977, 100%, 74.7%)" stroke-width="1.5"></path><path d="M1098.34 383.84L1098.34 383.84" stroke="hsl(19.399999999999977, 100%, 74.7%)" stroke-width="1.5"></path><path d="M1098.34 383.84L1129.16 542.22" stroke="hsl(19.399999999999977, 100%, 74.7%)" stroke-width="1.5"></path><path d="M1129.16 542.22L1129.16 542.22" stroke="hsl(19.399999999999977, 100%, 74.7%)" stroke-width="1.5"></path><path d="M1129.16 542.22L1158.84 652.81" stroke="hsl(19.399999999999977, 100%, 74.7%)" stroke-width="1.5"></path><path d="M1129.16 542.22L1310.62 505.32" stroke="hsl(19.399999999999977, 100%, 74.7%)" stroke-width="1.5"></path><path d="M1129.16 542.22L1243.68 691.84" stroke="hsl(19.399999999999977, 100%, 74.7%)" stroke-width="1.5"></path><path d="M1158.84 652.81L1158.84 652.81" stroke="hsl(19.399999999999977, 100%, 74.7%)" stroke-width="1.5"></path><path d="M1158.84 652.81L1243.68 691.84" stroke="hsl(19.399999999999977, 100%, 74.7%)" stroke-width="1.5"></path><path d="M1292.42 -46.56L1292.42 -46.56" stroke="hsl(19.399999999999977, 100%, 74.7%)" stroke-width="1.5"></path><path d="M1292.42 -46.56L1395.87 -106.58" stroke="hsl(19.399999999999977, 100%, 74.7%)" stroke-width="1.5"></path><path d="M1292.42 -46.56L1429.37 93.93" stroke="hsl(19.399999999999977, 100%, 74.7%)" stroke-width="1.5"></path><path d="M1292.42 -46.56L1306.02 191.29" stroke="hsl(19.399999999999977, 100%, 74.7%)" stroke-width="1.5"></path><path d="M1292.42 -46.56L1558.2 -102.9" stroke="hsl(19.399999999999977, 100%, 74.7%)" stroke-width="1.5"></path><path d="M1306.02 191.29L1306.02 191.29" stroke="hsl(19.399999999999977, 100%, 74.7%)" stroke-width="1.5"></path><path d="M1306.02 191.29L1440.87 224.16" stroke="hsl(19.399999999999977, 100%, 74.7%)" stroke-width="1.5"></path><path d="M1306.02 191.29L1429.37 93.93" stroke="hsl(19.399999999999977, 100%, 74.7%)" stroke-width="1.5"></path><path d="M1306.02 191.29L1295.24 356.51" stroke="hsl(19.399999999999977, 100%, 74.7%)" stroke-width="1.5"></path><path d="M1310.62 505.32L1310.62 505.32" stroke="hsl(19.399999999999977, 100%, 74.7%)" stroke-width="1.5"></path><path d="M1310.62 505.32L1435.3 511.21" stroke="hsl(19.399999999999977, 100%, 74.7%)" stroke-width="1.5"></path><path d="M1310.62 505.32L1400.2 398.87" stroke="hsl(19.399999999999977, 100%, 74.7%)" stroke-width="1.5"></path><path d="M1310.62 505.32L1243.68 691.84" stroke="hsl(19.399999999999977, 100%, 74.7%)" stroke-width="1.5"></path><path d="M1243.68 691.84L1243.68 691.84" stroke="hsl(19.399999999999977, 100%, 74.7%)" stroke-width="1.5"></path><path d="M1243.68 691.84L1427.56 682.79" stroke="hsl(19.399999999999977, 100%, 74.7%)" stroke-width="1.5"></path><path d="M1395.87 -106.58L1395.87 -106.58" stroke="hsl(19.399999999999977, 100%, 74.7%)" stroke-width="1.5"></path><path d="M1395.87 -106.58L1558.2 -102.9" stroke="hsl(19.399999999999977, 100%, 74.7%)" stroke-width="1.5"></path><path d="M1395.87 -106.58L1429.37 93.93" stroke="hsl(19.399999999999977, 100%, 74.7%)" stroke-width="1.5"></path><path d="M1395.87 -106.58L1255.76 111.31" stroke="hsl(19.399999999999977, 100%, 74.7%)" stroke-width="1.5"></path><path d="M1440.87 224.16L1440.87 224.16" stroke="hsl(19.399999999999977, 100%, 74.7%)" stroke-width="1.5"></path><path d="M1440.87 224.16L1573.42 198.99" stroke="hsl(19.399999999999977, 100%, 74.7%)" stroke-width="1.5"></path><path d="M1440.87 224.16L1400.2 398.87" stroke="hsl(19.399999999999977, 100%, 74.7%)" stroke-width="1.5"></path><path d="M1440.87 224.16L1541.43 381.42" stroke="hsl(19.399999999999977, 100%, 74.7%)" stroke-width="1.5"></path><path d="M1440.87 224.16L1295.24 356.51" stroke="hsl(19.399999999999977, 100%, 74.7%)" stroke-width="1.5"></path><path d="M1400.2 398.87L1400.2 398.87" stroke="hsl(19.399999999999977, 100%, 74.7%)" stroke-width="1.5"></path><path d="M1400.2 398.87L1435.3 511.21" stroke="hsl(19.399999999999977, 100%, 74.7%)" stroke-width="1.5"></path><path d="M1400.2 398.87L1541.43 381.42" stroke="hsl(19.399999999999977, 100%, 74.7%)" stroke-width="1.5"></path><path d="M1435.3 511.21L1435.3 511.21" stroke="hsl(19.399999999999977, 100%, 74.7%)" stroke-width="1.5"></path><path d="M1435.3 511.21L1577.2 530.15" stroke="hsl(19.399999999999977, 100%, 74.7%)" stroke-width="1.5"></path><path d="M1427.56 682.79L1427.56 682.79" stroke="hsl(19.399999999999977, 100%, 74.7%)" stroke-width="1.5"></path><path d="M1427.56 682.79L1586.14 708.49" stroke="hsl(19.399999999999977, 100%, 74.7%)" stroke-width="1.5"></path><path d="M1427.56 682.79L1435.3 511.21" stroke="hsl(19.399999999999977, 100%, 74.7%)" stroke-width="1.5"></path><path d="M1427.56 682.79L1310.62 505.32" stroke="hsl(19.399999999999977, 100%, 74.7%)" stroke-width="1.5"></path><path d="M1427.56 682.79L1577.2 530.15" stroke="hsl(19.399999999999977, 100%, 74.7%)" stroke-width="1.5"></path><path d="M1558.2 -102.9L1558.2 -102.9" stroke="hsl(19.399999999999977, 100%, 74.7%)" stroke-width="1.5"></path><path d="M1558.2 -102.9L1578.36 80.09" stroke="hsl(19.399999999999977, 100%, 74.7%)" stroke-width="1.5"></path><path d="M1558.2 -102.9L1429.37 93.93" stroke="hsl(19.399999999999977, 100%, 74.7%)" stroke-width="1.5"></path><path d="M1578.36 80.09L1578.36 80.09" stroke="hsl(19.399999999999977, 100%, 74.7%)" stroke-width="1.5"></path><path d="M1578.36 80.09L1573.42 198.99" stroke="hsl(19.399999999999977, 100%, 74.7%)" stroke-width="1.5"></path><path d="M1578.36 80.09L1440.87 224.16" stroke="hsl(19.399999999999977, 100%, 74.7%)" stroke-width="1.5"></path><path d="M1578.36 80.09L1395.87 -106.58" stroke="hsl(19.399999999999977, 100%, 74.7%)" stroke-width="1.5"></path><path d="M1573.42 198.99L1573.42 198.99" stroke="hsl(19.399999999999977, 100%, 74.7%)" stroke-width="1.5"></path><path d="M1573.42 198.99L1429.37 93.93" stroke="hsl(19.399999999999977, 100%, 74.7%)" stroke-width="1.5"></path><path d="M1573.42 198.99L1541.43 381.42" stroke="hsl(19.399999999999977, 100%, 74.7%)" stroke-width="1.5"></path><path d="M1573.42 198.99L1400.2 398.87" stroke="hsl(19.399999999999977, 100%, 74.7%)" stroke-width="1.5"></path><path d="M1541.43 381.42L1541.43 381.42" stroke="hsl(19.399999999999977, 100%, 74.7%)" stroke-width="1.5"></path><path d="M1541.43 381.42L1577.2 530.15" stroke="hsl(19.399999999999977, 100%, 74.7%)" stroke-width="1.5"></path><path d="M1577.2 530.15L1577.2 530.15" stroke="hsl(19.399999999999977, 100%, 74.7%)" stroke-width="1.5"></path><path d="M1586.14 708.49L1586.14 708.49" stroke="hsl(19.399999999999977, 100%, 74.7%)" stroke-width="1.5"></path><path d="M1586.14 708.49L1577.2 530.15" stroke="hsl(19.399999999999977, 100%, 74.7%)" stroke-width="1.5"></path><path d="M1586.14 708.49L1435.3 511.21" stroke="hsl(19.399999999999977, 100%, 74.7%)" stroke-width="1.5"></path><path d="M1586.14 708.49L1541.43 381.42" stroke="hsl(19.399999999999977, 100%, 74.7%)" stroke-width="1.5"></path><path d="M1586.14 708.49L1310.62 505.32" stroke="hsl(19.399999999999977, 100%, 74.7%)" stroke-width="1.5"></path><circle r="25" cx="343.12" cy="500.74" fill="url(#SvgjsRadialGradient1031)"></circle><circle r="25" cx="538.92" cy="711.44" fill="url(#SvgjsRadialGradient1031)"></circle><circle r="25" cx="666.91" cy="658.9" fill="url(#SvgjsRadialGradient1031)"></circle><circle r="25" cx="1006.55" cy="511.41" fill="url(#SvgjsRadialGradient1031)"></circle><circle r="25" cx="1255.76" cy="111.31" fill="url(#SvgjsRadialGradient1031)"></circle><circle r="25" cx="1295.24" cy="356.51" fill="url(#SvgjsRadialGradient1031)"></circle><circle r="25" cx="1429.37" cy="93.93" fill="url(#SvgjsRadialGradient1031)"></circle><circle r="5" cx="-88.43" cy="556.88" fill="#ffb693"></circle><circle r="5" cx="-47.41" cy="664.55" fill="#ffb693"></circle><circle r="5" cx="59.78" cy="542.92" fill="#ffb693"></circle><circle r="5" cx="46.14" cy="685.14" fill="#ffb693"></circle><circle r="5" cx="232.8" cy="537.59" fill="#ffb693"></circle><circle r="5" cx="396.86" cy="706.41" fill="#ffb693"></circle><circle r="5" cx="678.52" cy="375.08" fill="#ffb693"></circle><circle r="5" cx="694.57" cy="558.02" fill="#ffb693"></circle><circle r="5" cx="816.27" cy="397.72" fill="#ffb693"></circle><circle r="5" cx="849.39" cy="496.15" fill="#ffb693"></circle><circle r="5" cx="790.23" cy="690.98" fill="#ffb693"></circle><circle r="5" cx="946.16" cy="409.92" fill="#ffb693"></circle><circle r="5" cx="962.37" cy="677.76" fill="#ffb693"></circle><circle r="5" cx="1152.38" cy="102.84" fill="#ffb693"></circle><circle r="5" cx="1117.81" cy="227.83" fill="#ffb693"></circle><circle r="5" cx="1098.34" cy="383.84" fill="#ffb693"></circle><circle r="5" cx="1129.16" cy="542.22" fill="#ffb693"></circle><circle r="5" cx="1158.84" cy="652.81" fill="#ffb693"></circle><circle r="5" cx="1292.42" cy="-46.56" fill="#ffb693"></circle><circle r="5" cx="1306.02" cy="191.29" fill="#ffb693"></circle><circle r="5" cx="1310.62" cy="505.32" fill="#ffb693"></circle><circle r="5" cx="1243.68" cy="691.84" fill="#ffb693"></circle><circle r="5" cx="1395.87" cy="-106.58" fill="#ffb693"></circle><circle r="5" cx="1440.87" cy="224.16" fill="#ffb693"></circle><circle r="5" cx="1400.2" cy="398.87" fill="#ffb693"></circle><circle r="5" cx="1435.3" cy="511.21" fill="#ffb693"></circle><circle r="5" cx="1427.56" cy="682.79" fill="#ffb693"></circle><circle r="5" cx="1558.2" cy="-102.9" fill="#ffb693"></circle><circle r="5" cx="1578.36" cy="80.09" fill="#ffb693"></circle><circle r="5" cx="1573.42" cy="198.99" fill="#ffb693"></circle><circle r="5" cx="1541.43" cy="381.42" fill="#ffb693"></circle><circle r="5" cx="1577.2" cy="530.15" fill="#ffb693"></circle><circle r="5" cx="1586.14" cy="708.49" fill="#ffb693"></circle></g><defs><mask id="SvgjsMask1030"><rect width="1440" height="560" fill="#ffffff"></rect></mask><radialGradient id="SvgjsRadialGradient1031"><stop stop-color="#ffffff" offset="0.1"></stop><stop stop-color="rgba(255, 108, 38, 1)" offset="0.2"></stop><stop stop-color="rgba(255, 108, 38, 0)" offset="1"></stop></radialGradient></defs></svg>