<svg xmlns="http://www.w3.org/2000/svg" version="1.1" xmlns:xlink="http://www.w3.org/1999/xlink" xmlns:svgjs="http://svgjs.com/svgjs" width="1800" height="600" preserveAspectRatio="none" viewBox="0 0 1800 600"><g mask="url(&quot;#SvgjsMask1151&quot;)" fill="none"><rect width="1800" height="600" x="0" y="0" fill="rgba(255, 108, 38, 1)"></rect><path d="M0,754.513C145.375,765.174,301.798,737.242,413.988,644.178C522.394,554.253,524.202,394.164,586.621,267.901C651.667,136.324,796.606,33.184,788.489,-113.368C780.328,-260.723,651.92,-370.412,545.599,-472.764C446.748,-567.925,334.389,-653.903,199.713,-680.161C70.897,-705.276,-55.411,-654.407,-180.377,-614.308C-302.323,-575.178,-438.15,-549.031,-518.854,-449.589C-598.819,-351.058,-606.939,-214.308,-607.987,-87.415C-608.935,27.388,-561.823,130.965,-524.543,239.551C-482.911,360.815,-468.215,496.374,-376.724,586.194C-276.548,684.54,-140.006,744.246,0,754.513" fill="#ea4c00"></path><path d="M1800 1388.3139999999999C1947.5819999999999 1399.824 2093.111 1327.454 2205.873 1231.55 2311.376 1141.819 2343.497 1000.448 2403.063 875.4100000000001 2463.758 748.004 2550.562 631.805 2558.701 490.915 2567.883 331.974 2560.139 151.856 2451.5879999999997 35.39499999999998 2343.449-80.62400000000002 2164.665-98.106 2006.109-101.94299999999998 1871.566-105.19899999999996 1751.215-39.48900000000003 1628.368 15.474000000000046 1521.3319999999999 63.361999999999966 1422.705 119.01100000000002 1335.945 197.894 1239.1570000000002 285.895 1136.694 374.33299999999997 1096.692 498.88 1053.134 634.499 1041.132 790.067 1104.8319999999999 917.472 1167.9360000000001 1043.685 1316.038 1092.132 1432.871 1171.2640000000001 1553.01 1252.635 1655.337 1377.0320000000002 1800 1388.3139999999999" fill="#ff9461"></path></g><defs><mask id="SvgjsMask1151"><rect width="1800" height="600" fill="#ffffff"></rect></mask></defs></svg>