<svg xmlns="http://www.w3.org/2000/svg" xmlns:xlink="http://www.w3.org/1999/xlink" width="80" zoomAndPan="magnify" viewBox="0 0 60 37.5" height="50" preserveAspectRatio="xMidYMid meet" version="1.0"><defs><clipPath id="3a2c3c0781"><path d="M 5.566406 0.867188 L 54.414062 0.867188 L 54.414062 36.394531 L 5.566406 36.394531 Z M 5.566406 0.867188 " clip-rule="nonzero"/></clipPath><clipPath id="67d0808e85"><path d="M 5.566406 3 L 54.414062 3 L 54.414062 34 L 5.566406 34 Z M 5.566406 3 " clip-rule="nonzero"/></clipPath><clipPath id="9cd484dce9"><path d="M 5.566406 0.867188 L 30 0.867188 L 30 20 L 5.566406 20 Z M 5.566406 0.867188 " clip-rule="nonzero"/></clipPath></defs><g clip-path="url(#3a2c3c0781)"><path fill="#b22334" d="M 53.652344 3.601562 C 52.710938 1.972656 50.980469 0.867188 48.980469 0.867188 L 29.992188 0.867188 L 29.992188 3.601562 Z M 5.578125 28.195312 L 54.402344 28.195312 L 54.402344 30.925781 L 5.578125 30.925781 Z M 29.992188 17.261719 L 54.402344 17.261719 L 54.402344 19.996094 L 29.992188 19.996094 Z M 29.992188 11.796875 L 54.402344 11.796875 L 54.402344 14.53125 L 29.992188 14.53125 Z M 5.578125 22.730469 L 54.402344 22.730469 L 54.402344 25.460938 L 5.578125 25.460938 Z M 11.003906 36.394531 L 48.980469 36.394531 C 50.980469 36.394531 52.710938 35.289062 53.652344 33.660156 L 6.332031 33.660156 C 7.269531 35.289062 9 36.394531 11.003906 36.394531 Z M 29.992188 6.332031 L 54.402344 6.332031 L 54.402344 9.066406 L 29.992188 9.066406 Z M 29.992188 6.332031 " fill-opacity="1" fill-rule="nonzero"/></g><g clip-path="url(#67d0808e85)"><path fill="#eeeeee" d="M 5.671875 31.855469 C 5.691406 31.984375 5.71875 32.109375 5.75 32.234375 C 5.785156 32.371094 5.828125 32.503906 5.875 32.636719 C 5.996094 32.992188 6.140625 33.332031 6.328125 33.652344 L 6.332031 33.660156 L 53.652344 33.660156 L 53.652344 33.65625 C 53.835938 33.335938 53.984375 32.996094 54.105469 32.640625 C 54.152344 32.507812 54.195312 32.371094 54.230469 32.230469 C 54.261719 32.109375 54.289062 31.984375 54.3125 31.855469 C 54.367188 31.554688 54.402344 31.246094 54.402344 30.925781 L 5.578125 30.925781 C 5.578125 31.246094 5.617188 31.554688 5.671875 31.855469 Z M 5.578125 25.460938 L 54.402344 25.460938 L 54.402344 28.195312 L 5.578125 28.195312 Z M 5.578125 19.996094 L 5.578125 22.730469 L 54.402344 22.730469 L 54.402344 19.996094 Z M 29.992188 14.53125 L 54.402344 14.53125 L 54.402344 17.261719 L 29.992188 17.261719 Z M 29.992188 9.066406 L 54.402344 9.066406 L 54.402344 11.796875 L 29.992188 11.796875 Z M 5.578125 6.332031 C 5.578125 6.015625 5.617188 5.707031 5.671875 5.40625 C 5.617188 5.707031 5.578125 6.015625 5.578125 6.332031 Z M 6.332031 3.601562 L 6.328125 3.605469 Z M 5.75 5.027344 C 5.785156 4.886719 5.832031 4.753906 5.875 4.621094 C 5.832031 4.753906 5.785156 4.886719 5.75 5.027344 Z M 29.992188 6.332031 L 54.402344 6.332031 C 54.402344 6.015625 54.367188 5.707031 54.3125 5.402344 C 54.289062 5.277344 54.261719 5.152344 54.230469 5.027344 C 54.195312 4.886719 54.152344 4.75 54.101562 4.617188 C 53.984375 4.265625 53.835938 3.921875 53.652344 3.605469 C 53.652344 3.605469 53.652344 3.601562 53.652344 3.601562 L 29.992188 3.601562 Z M 29.992188 6.332031 " fill-opacity="1" fill-rule="nonzero"/></g><g clip-path="url(#9cd484dce9)"><path fill="#3c3b6e" d="M 29.992188 0.867188 L 11.003906 0.867188 C 8.007812 0.867188 5.578125 3.3125 5.578125 6.332031 L 5.578125 19.996094 L 29.992188 19.996094 Z M 29.992188 0.867188 " fill-opacity="1" fill-rule="nonzero"/></g><path fill="#ffffff" d="M 8.292969 4.589844 L 9.128906 5.207031 L 8.808594 6.195312 L 9.648438 5.582031 L 10.484375 6.195312 L 10.164062 5.207031 L 11.003906 4.589844 L 9.964844 4.589844 L 9.648438 3.601562 L 9.328125 4.589844 Z M 11.003906 7.324219 L 11.84375 7.9375 L 11.523438 8.929688 L 12.359375 8.316406 L 13.199219 8.929688 L 12.878906 7.9375 L 13.714844 7.324219 L 12.679688 7.324219 L 12.359375 6.332031 L 12.039062 7.324219 Z M 16.429688 7.324219 L 17.269531 7.9375 L 16.949219 8.929688 L 17.785156 8.316406 L 18.621094 8.929688 L 18.300781 7.9375 L 19.140625 7.324219 L 18.105469 7.324219 L 17.785156 6.332031 L 17.464844 7.324219 Z M 21.855469 7.324219 L 22.691406 7.9375 L 22.371094 8.929688 L 23.210938 8.316406 L 24.046875 8.929688 L 23.726562 7.9375 L 24.566406 7.324219 L 23.53125 7.324219 L 23.210938 6.332031 L 22.890625 7.324219 Z M 11.003906 12.789062 L 11.84375 13.402344 L 11.523438 14.394531 L 12.359375 13.78125 L 13.199219 14.394531 L 12.878906 13.402344 L 13.714844 12.789062 L 12.679688 12.789062 L 12.359375 11.796875 L 12.039062 12.789062 Z M 16.429688 12.789062 L 17.269531 13.402344 L 16.949219 14.394531 L 17.785156 13.78125 L 18.621094 14.394531 L 18.300781 13.402344 L 19.140625 12.789062 L 18.105469 12.789062 L 17.785156 11.796875 L 17.464844 12.789062 Z M 21.855469 12.789062 L 22.691406 13.402344 L 22.371094 14.394531 L 23.210938 13.78125 L 24.046875 14.394531 L 23.726562 13.402344 L 24.566406 12.789062 L 23.53125 12.789062 L 23.210938 11.796875 L 22.890625 12.789062 Z M 13.71875 4.589844 L 14.554688 5.207031 L 14.234375 6.195312 L 15.070312 5.582031 L 15.910156 6.195312 L 15.589844 5.207031 L 16.429688 4.589844 L 15.390625 4.589844 L 15.070312 3.601562 L 14.753906 4.589844 Z M 19.140625 4.589844 L 19.980469 5.207031 L 19.660156 6.195312 L 20.496094 5.582031 L 21.335938 6.195312 L 21.015625 5.207031 L 21.851562 4.589844 L 20.816406 4.589844 L 20.496094 3.601562 L 20.179688 4.589844 Z M 24.566406 4.589844 L 25.40625 5.207031 L 25.085938 6.195312 L 25.921875 5.582031 L 26.761719 6.195312 L 26.441406 5.207031 L 27.277344 4.589844 L 26.242188 4.589844 L 25.921875 3.601562 L 25.601562 4.589844 Z M 8.292969 10.058594 L 9.128906 10.671875 L 8.808594 11.660156 L 9.648438 11.050781 L 10.484375 11.660156 L 10.164062 10.671875 L 11.003906 10.058594 L 9.964844 10.058594 L 9.648438 9.066406 L 9.328125 10.058594 Z M 14.234375 11.660156 L 15.070312 11.050781 L 15.910156 11.660156 L 15.589844 10.671875 L 16.429688 10.058594 L 15.390625 10.058594 L 15.070312 9.066406 L 14.753906 10.058594 L 13.71875 10.058594 L 14.554688 10.671875 Z M 19.140625 10.058594 L 19.980469 10.671875 L 19.660156 11.660156 L 20.496094 11.050781 L 21.335938 11.660156 L 21.015625 10.671875 L 21.851562 10.058594 L 20.816406 10.058594 L 20.496094 9.066406 L 20.179688 10.058594 Z M 24.566406 10.058594 L 25.40625 10.671875 L 25.085938 11.660156 L 25.921875 11.050781 L 26.761719 11.660156 L 26.441406 10.671875 L 27.277344 10.058594 L 26.242188 10.058594 L 25.921875 9.066406 L 25.601562 10.058594 Z M 8.292969 15.523438 L 9.128906 16.136719 L 8.808594 17.128906 L 9.648438 16.515625 L 10.484375 17.128906 L 10.164062 16.136719 L 11.003906 15.523438 L 9.964844 15.523438 L 9.648438 14.53125 L 9.328125 15.523438 Z M 14.234375 17.128906 L 15.070312 16.515625 L 15.910156 17.128906 L 15.589844 16.136719 L 16.429688 15.523438 L 15.390625 15.523438 L 15.070312 14.53125 L 14.753906 15.523438 L 13.71875 15.523438 L 14.554688 16.136719 Z M 19.140625 15.523438 L 19.980469 16.136719 L 19.660156 17.128906 L 20.496094 16.515625 L 21.335938 17.128906 L 21.015625 16.136719 L 21.851562 15.523438 L 20.816406 15.523438 L 20.496094 14.53125 L 20.179688 15.523438 Z M 24.566406 15.523438 L 25.40625 16.136719 L 25.085938 17.128906 L 25.921875 16.515625 L 26.761719 17.128906 L 26.441406 16.136719 L 27.277344 15.523438 L 26.242188 15.523438 L 25.921875 14.53125 L 25.601562 15.523438 Z M 24.566406 15.523438 " fill-opacity="1" fill-rule="nonzero"/></svg>