<svg xmlns="http://www.w3.org/2000/svg" xmlns:xlink="http://www.w3.org/1999/xlink" width="500" zoomAndPan="magnify" viewBox="0 0 375 299.999988" height="400" preserveAspectRatio="xMidYMid meet" version="1.0"><defs><clipPath id="27ab3df059"><path d="M 148 285 L 225 285 L 225 296.25 L 148 296.25 Z M 148 285 " clip-rule="nonzero"/></clipPath></defs><path fill="#bdbcbc" d="M 219.726562 285.890625 L 153.085938 285.890625 L 168.222656 244.691406 L 204.589844 244.691406 L 219.726562 285.890625 " fill-opacity="1" fill-rule="nonzero"/><path fill="#d3d2d2" d="M 313.371094 227.382812 L 313.371094 74.40625 C 313.371094 63.785156 304.761719 55.171875 294.136719 55.171875 L 78.667969 55.171875 C 68.046875 55.171875 59.433594 63.785156 59.433594 74.40625 L 59.433594 227.382812 L 313.371094 227.382812 " fill-opacity="1" fill-rule="nonzero"/><path fill="#a8e3fa" d="M 308.394531 219.96875 L 308.394531 80.40625 C 308.394531 70.199219 300.121094 61.921875 289.914062 61.921875 L 82.894531 61.921875 C 72.6875 61.921875 64.414062 70.199219 64.414062 80.40625 L 64.414062 219.96875 L 308.394531 219.96875 " fill-opacity="1" fill-rule="nonzero"/><path fill="#b5e7fa" d="M 270.335938 76.78125 L 102.472656 76.78125 C 96.59375 76.78125 91.808594 81.566406 91.808594 87.449219 L 91.808594 192.089844 C 91.808594 197.972656 96.59375 202.757812 102.472656 202.757812 L 270.335938 202.757812 C 276.21875 202.757812 281 197.972656 281 192.089844 L 281 87.449219 C 281 81.566406 276.21875 76.78125 270.335938 76.78125 " fill-opacity="1" fill-rule="nonzero"/><path fill="#ef6764" d="M 234.085938 202.273438 C 234.375 198.714844 234.527344 195.359375 234.613281 192.257812 C 234.777344 185.742188 234.644531 180.347656 234.5 176.5625 C 234.425781 174.671875 234.347656 173.183594 234.285156 172.164062 C 234.21875 171.128906 234.179688 170.574219 234.179688 170.574219 L 225.082031 171 C 225.082031 171 225.085938 171.507812 225.09375 172.457031 C 225.09375 173.421875 225.089844 174.847656 225.058594 176.667969 C 224.988281 180.300781 224.8125 185.511719 224.300781 191.699219 C 224.019531 194.976562 223.644531 198.554688 223.097656 202.273438 L 234.085938 202.273438 " fill-opacity="1" fill-rule="nonzero"/><path fill="#ef6764" d="M 223.375 169.953125 C 222.347656 168.566406 221.726562 167.222656 221.878906 165.699219 C 222.023438 164.246094 222.417969 162.816406 222.621094 161.367188 C 222.820312 159.957031 223.097656 158.285156 224.660156 157.363281 C 227.851562 155.488281 231.503906 159.695312 233.011719 161.453125 C 235.390625 164.21875 235.113281 167.636719 234.234375 170.523438 C 233.757812 172.089844 232.996094 173.8125 231.464844 174.960938 C 230.273438 175.859375 228.8125 175.792969 227.335938 175.054688 C 225.980469 174.371094 225.632812 173.574219 225.078125 172.519531 C 224.617188 171.632812 224 170.796875 223.375 169.953125 " fill-opacity="1" fill-rule="nonzero"/><path fill="#ffffff" d="M 217.484375 202.675781 C 210.933594 181.0625 203.621094 159.125 190.09375 170.949219 C 183.0625 177.089844 182.445312 186.75 187.570312 202.675781 L 217.484375 202.675781 " fill-opacity="1" fill-rule="nonzero"/><path fill="#ffffff" d="M 208.480469 202.675781 C 208.4375 200.964844 208.351562 199.496094 208.210938 198.335938 C 204.28125 165.285156 188.4375 161.449219 179.960938 161.449219 C 153.242188 161.449219 152.65625 179.632812 152.945312 202.675781 L 208.480469 202.675781 " fill-opacity="1" fill-rule="nonzero"/><path fill="#ef6764" d="M 191.453125 143.171875 L 192.652344 166.789062 C 192.3125 170.578125 194.957031 177.308594 185.4375 177.207031 C 179.300781 177.140625 172.042969 168.71875 172.65625 164.964844 C 173.613281 159.132812 178.121094 141.953125 178.121094 141.953125 L 191.453125 143.171875 " fill-opacity="1" fill-rule="nonzero"/><path fill="#151a36" d="M 176.269531 149.765625 C 179.523438 154.84375 186.191406 156.996094 192.089844 155.65625 L 191.457031 143.175781 L 178.125 141.957031 L 176.269531 149.765625 " fill-opacity="1" fill-rule="nonzero"/><path fill="#ffffff" d="M 167.683594 202.675781 C 174.875 183.421875 179.945312 165.226562 163.527344 166.160156 C 151.929688 166.816406 144.816406 177.804688 137.9375 202.675781 L 167.683594 202.675781 " fill-opacity="1" fill-rule="nonzero"/><path fill="#ef6764" d="M 169.9375 117.984375 C 169.492188 119.597656 169.25 121.300781 169.25 123.0625 L 169.25 134.976562 C 169.25 145.46875 177.753906 153.980469 188.25 153.980469 C 198.742188 153.980469 207.25 145.46875 207.25 134.976562 L 207.25 123.0625 C 207.25 121.300781 207.007812 119.597656 206.558594 117.984375 L 176.679688 107.804688 L 169.9375 117.984375 " fill-opacity="1" fill-rule="nonzero"/><path fill="#161d3a" d="M 185.152344 129.742188 C 185.152344 130.941406 185.757812 131.910156 186.503906 131.910156 C 187.253906 131.910156 187.859375 130.941406 187.859375 129.742188 C 187.859375 128.546875 187.253906 127.574219 186.503906 127.574219 C 185.757812 127.574219 185.152344 128.546875 185.152344 129.742188 " fill-opacity="1" fill-rule="nonzero"/><path fill="#161d3a" d="M 200.542969 129.742188 C 200.542969 130.941406 201.148438 131.910156 201.894531 131.910156 C 202.640625 131.910156 203.246094 130.941406 203.246094 129.742188 C 203.246094 128.546875 202.640625 127.574219 201.894531 127.574219 C 201.148438 127.574219 200.542969 128.546875 200.542969 129.742188 " fill-opacity="1" fill-rule="nonzero"/><path fill="#161d3a" d="M 194.183594 136.8125 L 197.121094 136.8125 C 197.335938 136.8125 197.511719 136.636719 197.511719 136.421875 C 197.511719 135.121094 196.089844 129.742188 196.027344 129.515625 C 195.976562 129.304688 195.757812 129.183594 195.550781 129.242188 C 195.34375 129.292969 195.21875 129.507812 195.277344 129.714844 C 195.640625 131.089844 196.527344 134.617188 196.699219 136.035156 L 194.183594 136.035156 C 193.972656 136.035156 193.792969 136.207031 193.792969 136.421875 C 193.792969 136.636719 193.972656 136.8125 194.183594 136.8125 " fill-opacity="1" fill-rule="nonzero"/><path fill="#161d3a" d="M 190.875 121.722656 C 190.851562 121.308594 190.816406 120.574219 190.320312 120.382812 C 189.425781 120.042969 188.351562 119.933594 187.46875 120.164062 C 186.398438 120.445312 185.355469 120.824219 184.359375 121.289062 C 183.777344 121.566406 183.179688 121.875 182.636719 122.226562 C 182.179688 122.515625 181.660156 122.921875 181.695312 123.523438 C 181.714844 123.820312 181.773438 124.34375 182.167969 124.332031 C 182.480469 124.320312 182.753906 124.085938 183.023438 123.96875 C 183.671875 123.6875 184.363281 123.484375 185.058594 123.34375 C 185.765625 123.203125 186.441406 123.125 187.167969 123.171875 C 187.855469 123.21875 188.507812 123.386719 189.175781 123.558594 C 189.617188 123.667969 190.113281 123.828125 190.484375 123.460938 C 190.90625 123.039062 190.910156 122.273438 190.875 121.722656 " fill-opacity="1" fill-rule="nonzero"/><path fill="#161d3a" d="M 197.523438 121.722656 C 197.550781 121.308594 197.582031 120.574219 198.078125 120.382812 C 198.972656 120.042969 200.046875 119.933594 200.929688 120.164062 C 202 120.445312 203.039062 120.824219 204.039062 121.289062 C 204.625 121.566406 205.21875 121.875 205.761719 122.226562 C 206.21875 122.515625 206.738281 122.921875 206.703125 123.523438 C 206.683594 123.820312 206.621094 124.34375 206.230469 124.332031 C 205.917969 124.320312 205.644531 124.085938 205.371094 123.96875 C 204.726562 123.6875 204.035156 123.484375 203.34375 123.34375 C 202.632812 123.203125 201.957031 123.125 201.230469 123.171875 C 200.542969 123.21875 199.886719 123.386719 199.21875 123.558594 C 198.777344 123.667969 198.289062 123.828125 197.917969 123.460938 C 197.492188 123.039062 197.492188 122.273438 197.523438 121.722656 " fill-opacity="1" fill-rule="nonzero"/><path fill="#161d3a" d="M 205.101562 129.945312 L 205.316406 129.878906 C 205.496094 129.769531 205.550781 129.527344 205.433594 129.34375 C 203.195312 125.847656 199.394531 127.660156 199.359375 127.683594 C 199.164062 127.777344 199.085938 128.007812 199.179688 128.199219 C 199.273438 128.390625 199.503906 128.472656 199.699219 128.378906 C 199.828125 128.316406 202.921875 126.859375 204.78125 129.765625 C 204.851562 129.878906 204.976562 129.945312 205.101562 129.945312 " fill-opacity="1" fill-rule="nonzero"/><path fill="#161d3a" d="M 183.296875 129.945312 C 183.421875 129.945312 183.546875 129.878906 183.621094 129.765625 C 185.480469 126.859375 188.570312 128.316406 188.703125 128.378906 C 188.890625 128.472656 189.125 128.390625 189.21875 128.199219 C 189.316406 128.007812 189.234375 127.777344 189.042969 127.683594 C 189.003906 127.660156 185.203125 125.847656 182.964844 129.34375 C 182.851562 129.527344 182.902344 129.769531 183.085938 129.878906 L 183.296875 129.945312 " fill-opacity="1" fill-rule="nonzero"/><path fill="#161d3a" d="M 185.679688 141.148438 C 185.84375 141.167969 185.980469 141.292969 186.011719 141.460938 C 186.253906 142.777344 187.507812 143.171875 187.757812 143.234375 C 188.683594 143.472656 189.863281 143.257812 190.332031 142.378906 C 190.4375 142.191406 190.671875 142.117188 190.863281 142.222656 C 191.050781 142.320312 191.121094 142.558594 191.019531 142.746094 C 190.328125 144.035156 188.742188 144.289062 187.566406 143.988281 C 186.613281 143.738281 185.5 142.980469 185.25 141.601562 C 185.210938 141.390625 185.351562 141.1875 185.5625 141.148438 L 185.679688 141.148438 " fill-opacity="1" fill-rule="nonzero"/><path fill="#161d3a" d="M 208.113281 118.628906 C 208.113281 118.628906 210.015625 118.882812 211.121094 117.617188 C 211.121094 117.617188 208.234375 117.757812 207.863281 115.175781 L 207.863281 115.171875 C 206.84375 105.949219 194.640625 89.78125 174.289062 104.941406 C 164.46875 109.9375 165.835938 119.109375 165.835938 128.453125 C 165.835938 131.789062 166.558594 134.386719 171.515625 143.988281 C 171.515625 143.988281 169.25 139.136719 172.222656 122.070312 C 172.757812 119 172.8125 114.640625 176.6875 114.15625 C 176.6875 114.15625 190.597656 124.996094 208.070312 121.378906 C 208.070312 121.378906 210.125 121.414062 212.144531 120.402344 C 212.144531 120.402344 208.96875 120.402344 208.113281 118.628906 " fill-opacity="1" fill-rule="nonzero"/><path fill="#161d3a" d="M 203.40625 134.328125 C 199.9375 134.328125 197.113281 132.148438 197.113281 129.46875 C 197.113281 127.292969 199.050781 126.324219 203.40625 126.324219 C 207.753906 126.324219 207.007812 127.292969 207.007812 129.46875 C 207.007812 132.394531 206.503906 134.328125 203.40625 134.328125 Z M 185.691406 134.328125 C 179.402344 134.328125 179.402344 132.394531 179.402344 129.46875 C 179.402344 127.292969 181.34375 126.324219 185.691406 126.324219 C 190.046875 126.324219 191.988281 127.292969 191.988281 129.46875 C 191.988281 132.148438 189.164062 134.328125 185.691406 134.328125 Z M 207.792969 125.21875 C 207.007812 125.277344 205.589844 125.300781 205.589844 125.300781 C 204.847656 125.226562 204.105469 125.203125 203.40625 125.203125 C 200.574219 125.203125 196.917969 125.558594 196.148438 128.328125 C 195.566406 127.898438 194.96875 127.683594 194.34375 127.71875 C 193.78125 127.757812 193.308594 128 192.9375 128.273438 C 192.132812 125.550781 188.507812 125.203125 185.691406 125.203125 C 185.210938 125.203125 184.703125 125.214844 184.191406 125.246094 L 171.921875 125.132812 L 171.507812 126.773438 C 172.191406 126.859375 175.949219 126.953125 177.058594 127.457031 C 177.605469 127.707031 178.089844 127.910156 178.300781 128.542969 C 178.394531 128.824219 178.269531 129.957031 178.269531 130.261719 C 178.269531 130.589844 178.28125 130.921875 178.3125 131.253906 C 178.371094 131.800781 178.507812 132.339844 178.753906 132.832031 C 179.367188 134.0625 180.472656 134.769531 181.785156 135.078125 C 183.042969 135.371094 184.40625 135.449219 185.691406 135.449219 C 189.699219 135.449219 192.960938 132.871094 193.09375 129.667969 C 193.277344 129.433594 193.773438 128.878906 194.425781 128.835938 C 194.9375 128.804688 195.464844 129.109375 196.007812 129.707031 C 196.164062 132.894531 199.417969 135.449219 203.40625 135.449219 C 207.894531 135.449219 208.125 132.542969 208.125 129.46875 C 208.125 129.34375 208.105469 129.234375 208.097656 129.117188 C 208.101562 127.550781 208.222656 128.011719 208.65625 127.8125 C 209.050781 127.628906 208.238281 125.1875 207.792969 125.21875 " fill-opacity="1" fill-rule="nonzero"/><path fill="#ef6764" d="M 168.746094 124.226562 C 166.066406 124.636719 164.367188 127.351562 166.042969 131.15625 C 167.464844 134.382812 167.789062 137.410156 170.464844 136.996094 C 173.148438 136.585938 174.933594 133.394531 174.457031 129.867188 C 173.980469 126.339844 171.421875 123.8125 168.746094 124.226562 " fill-opacity="1" fill-rule="nonzero"/><path fill="#161d3a" d="M 191.152344 202.675781 C 190.988281 196.558594 190.789062 191.460938 190.542969 189.632812 L 184.046875 189.632812 C 184.046875 189.632812 183.707031 195.300781 183.199219 202.675781 L 191.152344 202.675781 " fill-opacity="1" fill-rule="nonzero"/><path fill="#161d3a" d="M 180.378906 183.746094 L 184.046875 189.632812 L 190.542969 189.632812 L 195.003906 183.246094 C 195.003906 183.246094 192.988281 177.300781 192.820312 177.359375 C 192.652344 177.414062 188.167969 176.984375 188.167969 176.984375 L 182.683594 176.84375 L 180.378906 183.746094 " fill-opacity="1" fill-rule="nonzero"/><path fill="#f8f8f8" d="M 188.167969 176.984375 C 177.894531 173.601562 173.773438 159.578125 173.773438 159.578125 C 171.800781 160.339844 171.285156 161.261719 171.285156 161.261719 C 164.3125 176.566406 179.078125 187.46875 179.078125 187.46875 C 179.078125 187.46875 181.773438 177.488281 188.167969 176.984375 " fill-opacity="1" fill-rule="nonzero"/><path fill="#f8f8f8" d="M 188.167969 176.984375 C 188.167969 176.984375 193.300781 175.140625 192.40625 163.726562 C 192.40625 163.726562 194.105469 164.457031 194.558594 166.511719 C 194.558594 166.511719 197.429688 175.0625 194.929688 184.730469 C 194.929688 184.730469 194.148438 178.988281 188.167969 176.984375 " fill-opacity="1" fill-rule="nonzero"/><path fill="#ffffff" d="M 131.113281 89.035156 C 129.285156 89.035156 127.804688 87.554688 127.804688 85.726562 C 127.804688 83.894531 129.285156 82.414062 131.113281 82.414062 C 132.941406 82.414062 134.425781 83.894531 134.425781 85.726562 C 134.425781 87.554688 132.941406 89.035156 131.113281 89.035156 Z M 118.101562 89.035156 C 116.273438 89.035156 114.789062 87.554688 114.789062 85.726562 C 114.789062 83.894531 116.273438 82.414062 118.101562 82.414062 C 119.929688 82.414062 121.410156 83.894531 121.410156 85.726562 C 121.410156 87.554688 119.929688 89.035156 118.101562 89.035156 Z M 105.085938 89.035156 C 103.257812 89.035156 101.777344 87.554688 101.777344 85.726562 C 101.777344 83.894531 103.257812 82.414062 105.085938 82.414062 C 106.914062 82.414062 108.398438 83.894531 108.398438 85.726562 C 108.398438 87.554688 106.914062 89.035156 105.085938 89.035156 Z M 270.867188 76.980469 L 101.945312 76.980469 C 96.347656 76.980469 91.808594 81.519531 91.808594 87.117188 L 91.808594 94.46875 L 281 94.46875 L 281 87.117188 C 281 81.519531 276.460938 76.980469 270.867188 76.980469 " fill-opacity="1" fill-rule="nonzero"/><path fill="#ffffff" d="M 230.449219 177.6875 L 228.890625 178.621094 L 228.890625 177.113281 C 228.890625 175.996094 227.976562 175.078125 226.859375 175.078125 L 219.171875 175.078125 C 218.050781 175.078125 217.140625 175.996094 217.140625 177.113281 L 217.140625 183.273438 C 217.140625 184.394531 218.050781 185.308594 219.171875 185.308594 L 226.859375 185.308594 C 227.976562 185.308594 228.890625 184.394531 228.890625 183.273438 L 228.890625 181.765625 L 230.449219 182.699219 C 231.285156 183.445312 231.96875 183.136719 231.96875 182.019531 L 231.96875 178.371094 C 231.96875 177.253906 231.285156 176.945312 230.449219 177.6875 " fill-opacity="1" fill-rule="nonzero"/><path fill="#ffffff" d="M 224.554688 169.964844 C 218.914062 169.964844 214.324219 174.550781 214.324219 180.195312 C 214.324219 185.835938 218.914062 190.425781 224.554688 190.425781 C 230.191406 190.425781 234.78125 185.835938 234.78125 180.195312 C 234.78125 174.550781 230.191406 169.964844 224.554688 169.964844 Z M 224.554688 191.144531 C 218.519531 191.144531 213.605469 186.230469 213.605469 180.195312 C 213.605469 174.15625 218.519531 169.246094 224.554688 169.246094 C 230.589844 169.246094 235.5 174.15625 235.5 180.195312 C 235.5 186.230469 230.589844 191.144531 224.554688 191.144531 " fill-opacity="1" fill-rule="nonzero"/><path fill="#ffffff" d="M 259.425781 183.335938 C 260.996094 183.335938 262.273438 182.0625 262.273438 180.488281 L 262.273438 175.382812 C 262.273438 173.8125 260.996094 172.535156 259.425781 172.535156 C 257.855469 172.535156 256.578125 173.8125 256.578125 175.382812 L 256.578125 180.488281 C 256.578125 182.0625 257.855469 183.335938 259.425781 183.335938 " fill-opacity="1" fill-rule="nonzero"/><path fill="#ffffff" d="M 263.152344 178.023438 C 262.988281 178.023438 262.855469 178.15625 262.855469 178.316406 L 262.855469 180.933594 C 262.855469 182.832031 261.320312 184.367188 259.425781 184.367188 C 257.535156 184.367188 255.992188 182.832031 255.992188 180.933594 L 255.992188 178.316406 C 255.992188 178.15625 255.863281 178.023438 255.699219 178.023438 C 255.539062 178.023438 255.40625 178.15625 255.40625 178.316406 L 255.40625 180.933594 C 255.40625 183.054688 257.054688 184.773438 259.128906 184.929688 L 259.128906 187.558594 C 259.128906 187.722656 259.261719 187.851562 259.425781 187.851562 C 259.585938 187.851562 259.71875 187.722656 259.71875 187.558594 L 259.71875 184.929688 C 261.796875 184.773438 263.449219 183.054688 263.449219 180.933594 L 263.449219 178.316406 C 263.449219 178.15625 263.316406 178.023438 263.152344 178.023438 " fill-opacity="1" fill-rule="nonzero"/><path fill="#ffffff" d="M 259.425781 169.964844 C 253.785156 169.964844 249.195312 174.550781 249.195312 180.195312 C 249.195312 185.835938 253.785156 190.425781 259.425781 190.425781 C 265.066406 190.425781 269.65625 185.835938 269.65625 180.195312 C 269.65625 174.550781 265.066406 169.964844 259.425781 169.964844 Z M 259.425781 191.144531 C 253.390625 191.144531 248.476562 186.230469 248.476562 180.195312 C 248.476562 174.15625 253.390625 169.246094 259.425781 169.246094 C 265.464844 169.246094 270.375 174.15625 270.375 180.195312 C 270.375 186.230469 265.464844 191.144531 259.425781 191.144531 " fill-opacity="1" fill-rule="nonzero"/><path fill="#ffffff" d="M 101.945312 77.578125 C 96.683594 77.578125 92.40625 81.855469 92.40625 87.117188 L 92.40625 192.421875 C 92.40625 197.679688 96.683594 201.960938 101.945312 201.960938 L 270.867188 201.960938 C 276.125 201.960938 280.40625 197.679688 280.40625 192.421875 L 280.40625 87.117188 C 280.40625 81.855469 276.125 77.578125 270.867188 77.578125 Z M 270.867188 203.152344 L 101.945312 203.152344 C 96.027344 203.152344 91.210938 198.339844 91.210938 192.421875 L 91.210938 87.117188 C 91.210938 81.203125 96.027344 76.386719 101.945312 76.386719 L 270.867188 76.386719 C 276.78125 76.386719 281.597656 81.203125 281.597656 87.117188 L 281.597656 192.421875 C 281.597656 198.339844 276.78125 203.152344 270.867188 203.152344 " fill-opacity="1" fill-rule="nonzero"/><path fill="#d3d2d2" d="M 59.433594 224.820312 L 59.433594 236.207031 C 59.433594 246.832031 68.046875 255.445312 78.667969 255.445312 L 294.136719 255.445312 C 304.761719 255.445312 313.371094 246.832031 313.371094 236.207031 L 313.371094 224.820312 L 59.433594 224.820312 " fill-opacity="1" fill-rule="nonzero"/><g clip-path="url(#27ab3df059)"><path fill="#d3d2d2" d="M 224.582031 290.863281 C 224.582031 293.84375 222.164062 296.257812 219.191406 296.257812 L 153.617188 296.257812 C 150.644531 296.257812 148.230469 293.84375 148.230469 290.863281 C 148.230469 287.886719 150.644531 285.476562 153.617188 285.476562 L 219.191406 285.476562 C 222.164062 285.476562 224.582031 287.886719 224.582031 290.863281 " fill-opacity="1" fill-rule="nonzero"/></g><path fill="#161d3a" d="M 166.894531 256.332031 C 176.066406 256.332031 185.238281 256.332031 194.410156 256.332031 C 195.734375 256.332031 197.058594 256.332031 198.382812 256.332031 C 199.527344 256.332031 199.527344 254.554688 198.382812 254.554688 C 189.210938 254.554688 180.039062 254.554688 170.867188 254.554688 C 169.542969 254.554688 168.21875 254.554688 166.894531 254.554688 C 165.75 254.554688 165.75 256.332031 166.894531 256.332031 " fill-opacity="1" fill-rule="nonzero"/><path fill="#161d3a" d="M 192.46875 286.363281 C 199.164062 286.363281 205.851562 286.363281 212.546875 286.363281 C 213.492188 286.363281 214.4375 286.363281 215.386719 286.363281 C 216.527344 286.363281 216.527344 284.589844 215.386719 284.589844 C 208.691406 284.589844 202 284.589844 195.308594 284.589844 C 194.363281 284.589844 193.417969 284.589844 192.46875 284.589844 C 191.328125 284.589844 191.324219 286.363281 192.46875 286.363281 " fill-opacity="1" fill-rule="nonzero"/><path fill="#4b6ebe" d="M 108.648438 86.707031 L 108.648438 152.070312 L 10.042969 152.070312 L 10.042969 86.707031 L 108.648438 86.707031 " fill-opacity="1" fill-rule="nonzero"/><path fill="#5679c5" d="M 22.097656 136.585938 C 22.097656 142.121094 23.292969 147.367188 25.464844 152.089844 L 93.230469 152.089844 C 95.394531 147.367188 96.597656 142.121094 96.597656 136.585938 C 96.597656 116.007812 79.921875 99.332031 59.347656 99.332031 C 38.769531 99.332031 22.097656 116.007812 22.097656 136.585938 " fill-opacity="1" fill-rule="nonzero"/><path fill="#faba26" d="M 85.839844 151.902344 C 84.269531 144.699219 78.675781 138.539062 72.433594 136.570312 L 70.953125 151.902344 L 85.839844 151.902344 " fill-opacity="1" fill-rule="nonzero"/><path fill="#faba26" d="M 48.214844 151.902344 L 46.582031 134.980469 C 40.265625 136.976562 34.59375 143.257812 33.101562 150.574219 C 33.015625 151 32.929688 151.449219 32.851562 151.902344 L 48.214844 151.902344 " fill-opacity="1" fill-rule="nonzero"/><path fill="#faba26" d="M 79.359375 151.902344 C 79.351562 149.015625 79.132812 146.351562 78.640625 144.292969 C 77 137.378906 72.773438 135.671875 66.644531 136.039062 C 60.835938 136.386719 55.53125 134.71875 49.816406 134.566406 C 43.1875 134.394531 39.777344 139.824219 38.96875 146.378906 C 38.773438 147.933594 38.722656 149.835938 38.777344 151.902344 L 79.359375 151.902344 " fill-opacity="1" fill-rule="nonzero"/><path fill="#fbd033" d="M 59.503906 144.820312 C 68.636719 144.820312 67.222656 139.296875 67.222656 137.113281 L 67.015625 136.019531 C 66.890625 136.023438 66.769531 136.03125 66.644531 136.039062 C 61.667969 136.339844 57.0625 135.15625 52.242188 134.71875 L 51.789062 137.113281 C 51.789062 139.296875 50.375 144.820312 59.503906 144.820312 " fill-opacity="1" fill-rule="nonzero"/><path fill="#ef6764" d="M 55.078125 125.144531 L 52.871094 136.710938 C 52.871094 138.589844 51.65625 143.335938 59.503906 143.335938 C 67.355469 143.335938 66.136719 138.589844 66.136719 136.710938 L 63.929688 125.144531 L 55.078125 125.144531 " fill-opacity="1" fill-rule="nonzero"/><path fill="#1a3157" d="M 54.332031 129.066406 C 56.777344 131.421875 61.292969 132.179688 65.09375 131.253906 L 63.929688 125.144531 L 55.078125 125.144531 L 54.332031 129.066406 " fill-opacity="1" fill-rule="nonzero"/><path fill="#ef6764" d="M 49.117188 114.617188 C 47.691406 114.835938 46.78125 116.285156 47.675781 118.308594 C 48.433594 120.027344 48.609375 121.640625 50.035156 121.421875 C 51.460938 121.203125 52.414062 119.503906 52.160156 117.625 C 51.902344 115.746094 50.542969 114.398438 49.117188 114.617188 " fill-opacity="1" fill-rule="nonzero"/><path fill="#ef6764" d="M 69.890625 114.617188 C 68.464844 114.398438 67.105469 115.746094 66.851562 117.625 C 66.597656 119.503906 67.546875 121.203125 68.972656 121.421875 C 70.402344 121.640625 70.578125 120.027344 71.332031 118.308594 C 72.226562 116.285156 71.320312 114.835938 69.890625 114.617188 " fill-opacity="1" fill-rule="nonzero"/><path fill="#ef6764" d="M 49.753906 111.289062 C 49.515625 112.152344 49.382812 113.0625 49.382812 114 L 49.382812 120.34375 C 49.382812 125.933594 53.914062 130.464844 59.503906 130.464844 C 65.09375 130.464844 69.625 125.933594 69.625 120.34375 L 69.625 114 C 69.625 113.0625 69.496094 112.152344 69.257812 111.289062 L 53.34375 105.871094 L 49.753906 111.289062 " fill-opacity="1" fill-rule="nonzero"/><path fill="#1c264c" d="M 69.625 118.015625 C 69.625 118.015625 68.269531 116.535156 68.539062 114.054688 C 68.8125 111.574219 65.757812 108.445312 65.757812 108.445312 L 69.96875 111.09375 C 69.96875 111.09375 69.824219 114.609375 69.625 118.015625 " fill-opacity="1" fill-rule="nonzero"/><path fill="#161d3a" d="M 52.191406 109.777344 C 54.957031 108.453125 57.207031 110.84375 59.488281 112.117188 C 62.265625 113.664062 65.925781 114.964844 69.121094 114.144531 C 72.121094 113.371094 74.34375 110.492188 74.050781 107.351562 C 73.933594 106.144531 73.390625 104.8125 72.199219 104.308594 C 71.226562 103.894531 70.234375 104.226562 69.277344 104.476562 C 66.6875 105.160156 65.414062 102.949219 63.726562 101.355469 C 62.730469 100.414062 61.546875 99.496094 60.132812 99.382812 C 58.851562 99.277344 57.679688 99.875 56.640625 100.550781 C 55.667969 101.191406 54.757812 101.914062 53.804688 102.574219 C 53.246094 102.964844 52.527344 103.332031 52.117188 103.898438 C 51.382812 104.921875 52.019531 106.511719 52.308594 107.597656 C 52.402344 107.949219 52.496094 108.300781 52.59375 108.652344 L 52.191406 109.777344 " fill-opacity="1" fill-rule="nonzero"/><path fill="#1c264c" d="M 51.964844 104.167969 C 48.820312 104.710938 49.382812 107.945312 49.382812 112.835938 C 49.382812 114.609375 49.25 115.910156 49.382812 118.132812 C 49.382812 118.132812 50.941406 116.683594 50.96875 113.472656 C 50.988281 111.808594 51.382812 109.667969 53.445312 109.410156 C 53.445312 109.410156 51.859375 105.964844 51.964844 104.167969 " fill-opacity="1" fill-rule="nonzero"/><path fill="#161d3a" d="M 20.910156 143.078125 L 20.203125 143.5 L 20.203125 142.816406 C 20.203125 142.3125 19.789062 141.894531 19.28125 141.894531 L 15.804688 141.894531 C 15.296875 141.894531 14.882812 142.3125 14.882812 142.816406 L 14.882812 145.605469 C 14.882812 146.113281 15.296875 146.527344 15.804688 146.527344 L 19.28125 146.527344 C 19.789062 146.527344 20.203125 146.113281 20.203125 145.605469 L 20.203125 144.925781 L 20.910156 145.347656 C 21.289062 145.683594 21.597656 145.542969 21.597656 145.035156 L 21.597656 143.386719 C 21.597656 142.878906 21.289062 142.738281 20.910156 143.078125 " fill-opacity="1" fill-rule="nonzero"/><path fill="#161d3a" d="M 18.238281 139.578125 C 15.6875 139.578125 13.609375 141.65625 13.609375 144.210938 C 13.609375 146.765625 15.6875 148.84375 18.238281 148.84375 C 20.792969 148.84375 22.871094 146.765625 22.871094 144.210938 C 22.871094 141.65625 20.792969 139.578125 18.238281 139.578125 Z M 18.238281 149.167969 C 15.507812 149.167969 13.285156 146.945312 13.285156 144.210938 C 13.285156 141.476562 15.507812 139.253906 18.238281 139.253906 C 20.972656 139.253906 23.195312 141.476562 23.195312 144.210938 C 23.195312 146.945312 20.972656 149.167969 18.238281 149.167969 " fill-opacity="1" fill-rule="nonzero"/><path fill="#161d3a" d="M 34.027344 145.632812 C 34.742188 145.632812 35.316406 145.058594 35.316406 144.34375 L 35.316406 142.035156 C 35.316406 141.320312 34.742188 140.746094 34.027344 140.746094 C 33.316406 140.746094 32.742188 141.320312 32.742188 142.035156 L 32.742188 144.34375 C 32.742188 145.058594 33.316406 145.632812 34.027344 145.632812 " fill-opacity="1" fill-rule="nonzero"/><path fill="#161d3a" d="M 35.714844 143.230469 L 35.582031 143.363281 L 35.582031 144.546875 C 35.582031 145.40625 34.886719 146.101562 34.027344 146.101562 C 33.171875 146.101562 32.472656 145.40625 32.472656 144.546875 L 32.472656 143.363281 L 32.339844 143.230469 L 32.210938 143.363281 L 32.210938 144.546875 C 32.210938 145.507812 32.953125 146.285156 33.894531 146.355469 L 33.894531 147.542969 L 34.027344 147.675781 L 34.164062 147.542969 L 34.164062 146.355469 C 35.105469 146.285156 35.851562 145.507812 35.851562 144.546875 L 35.851562 143.363281 L 35.714844 143.230469 " fill-opacity="1" fill-rule="nonzero"/><path fill="#161d3a" d="M 34.027344 139.578125 C 31.476562 139.578125 29.394531 141.65625 29.394531 144.210938 C 29.394531 146.765625 31.476562 148.84375 34.027344 148.84375 C 36.582031 148.84375 38.660156 146.765625 38.660156 144.210938 C 38.660156 141.65625 36.582031 139.578125 34.027344 139.578125 Z M 34.027344 149.167969 C 31.296875 149.167969 29.074219 146.945312 29.074219 144.210938 C 29.074219 141.476562 31.296875 139.253906 34.027344 139.253906 C 36.761719 139.253906 38.984375 141.476562 38.984375 144.210938 C 38.984375 146.945312 36.761719 149.167969 34.027344 149.167969 " fill-opacity="1" fill-rule="nonzero"/><path fill="#ffffff" d="M 26.566406 91.527344 C 25.738281 91.527344 25.066406 90.859375 25.066406 90.03125 C 25.066406 89.203125 25.738281 88.53125 26.566406 88.53125 C 27.394531 88.53125 28.066406 89.203125 28.066406 90.03125 C 28.066406 90.859375 27.394531 91.527344 26.566406 91.527344 Z M 20.675781 91.527344 C 19.847656 91.527344 19.175781 90.859375 19.175781 90.03125 C 19.175781 89.203125 19.847656 88.53125 20.675781 88.53125 C 21.503906 88.53125 22.171875 89.203125 22.171875 90.03125 C 22.171875 90.859375 21.503906 91.527344 20.675781 91.527344 Z M 14.78125 91.527344 C 13.953125 91.527344 13.285156 90.859375 13.285156 90.03125 C 13.285156 89.203125 13.953125 88.53125 14.78125 88.53125 C 15.609375 88.53125 16.28125 89.203125 16.28125 90.03125 C 16.28125 90.859375 15.609375 91.527344 14.78125 91.527344 Z M 24.578125 86.707031 L 10.042969 86.707031 L 10.042969 93.351562 L 108.648438 93.351562 L 108.648438 86.707031 L 24.578125 86.707031 " fill-opacity="1" fill-rule="nonzero"/><path fill="#f47093" d="M 362.765625 86.671875 L 362.765625 152.035156 L 264.160156 152.035156 L 264.160156 86.671875 L 362.765625 86.671875 " fill-opacity="1" fill-rule="nonzero"/><path fill="#f68ca5" d="M 276.210938 136.554688 C 276.210938 142.089844 277.410156 147.332031 279.578125 152.054688 L 347.347656 152.054688 C 349.511719 147.332031 350.710938 142.089844 350.710938 136.554688 C 350.710938 115.976562 334.035156 99.296875 313.460938 99.296875 C 292.886719 99.296875 276.210938 115.976562 276.210938 136.554688 " fill-opacity="1" fill-rule="nonzero"/><path fill="#3f5264" d="M 337.082031 152.125 L 337.050781 151.949219 C 335.71875 144.949219 330.683594 138.941406 325.074219 137.039062 L 323.722656 152.125 L 337.082031 152.125 " fill-opacity="1" fill-rule="nonzero"/><path fill="#3f5264" d="M 303.59375 152.125 L 302.105469 135.519531 C 296.492188 137.421875 291.457031 143.429688 290.132812 150.433594 C 290.027344 150.96875 289.929688 151.539062 289.839844 152.125 L 303.59375 152.125 " fill-opacity="1" fill-rule="nonzero"/><path fill="#9c57b1" d="M 323.566406 152.125 L 323.566406 136.664062 C 322.457031 136.476562 321.242188 136.441406 319.929688 136.527344 C 314.769531 136.859375 310.058594 135.265625 304.984375 135.121094 C 304.363281 135.101562 303.78125 135.148438 303.226562 135.242188 L 303.226562 152.125 L 323.566406 152.125 " fill-opacity="1" fill-rule="nonzero"/><path fill="#3f5264" d="M 308.277344 152.125 C 307.011719 145.671875 305.742188 138.320312 305.78125 135.15625 C 305.515625 135.140625 305.25 135.128906 304.984375 135.121094 C 299.09375 134.953125 296.0625 140.144531 295.339844 146.414062 C 295.160156 148.007812 295.117188 149.976562 295.183594 152.125 L 308.277344 152.125 " fill-opacity="1" fill-rule="nonzero"/><path fill="#32404d" d="M 304.582031 148.238281 C 305.230469 148.683594 305.636719 149.480469 305.394531 150.265625 C 305.171875 150.976562 304.777344 151.558594 304.34375 152.125 L 308.277344 152.125 C 307.011719 145.671875 305.742188 138.320312 305.78125 135.15625 L 305.574219 135.148438 C 304.882812 136.617188 304.480469 138.261719 303.8125 139.757812 C 303.097656 141.355469 302.300781 143.144531 302.027344 144.886719 C 301.714844 146.839844 303.246094 147.324219 304.582031 148.238281 " fill-opacity="1" fill-rule="nonzero"/><path fill="#3f5264" d="M 331.230469 152.121094 C 331.242188 149.195312 331.050781 146.488281 330.59375 144.421875 C 329.261719 138.390625 326.023438 136.507812 321.339844 136.484375 C 321.359375 141.6875 319.964844 146.945312 318.265625 152.121094 L 331.230469 152.121094 " fill-opacity="1" fill-rule="nonzero"/><path fill="#32404d" d="M 322.054688 152.121094 C 321.8125 151.714844 321.585938 151.304688 321.445312 150.863281 C 320.628906 148.277344 323.695312 147.917969 325.242188 146.855469 C 327.210938 145.5 325.300781 143.214844 324.578125 141.675781 C 323.773438 139.96875 323.089844 138.210938 322.265625 136.515625 C 321.960938 136.496094 321.652344 136.488281 321.339844 136.484375 C 321.359375 141.683594 319.964844 146.945312 318.265625 152.121094 L 322.054688 152.121094 " fill-opacity="1" fill-rule="nonzero"/><path fill="#161d3a" d="M 316.507812 105.984375 C 323.582031 93.734375 297.613281 98.667969 306.40625 106.535156 C 308.132812 108.078125 310.679688 107.972656 312.84375 107.960938 L 316.507812 105.984375 " fill-opacity="1" fill-rule="nonzero"/><path fill="#f47093" d="M 308.738281 106.371094 C 304.953125 101.6875 315.378906 96.019531 316.015625 105.253906 L 308.738281 106.371094 " fill-opacity="1" fill-rule="nonzero"/><path fill="#ef6764" d="M 304.023438 116.824219 C 302.710938 117.027344 301.875 118.359375 302.695312 120.226562 C 303.394531 121.808594 303.550781 123.296875 304.863281 123.09375 C 306.179688 122.890625 307.058594 121.324219 306.820312 119.59375 C 306.589844 117.863281 305.335938 116.625 304.023438 116.824219 " fill-opacity="1" fill-rule="nonzero"/><path fill="#ef6764" d="M 323.15625 116.824219 C 321.84375 116.625 320.589844 117.863281 320.355469 119.59375 C 320.121094 121.324219 320.996094 122.890625 322.3125 123.09375 C 323.625 123.292969 323.785156 121.808594 324.484375 120.230469 C 325.304688 118.359375 324.472656 117.03125 323.15625 116.824219 " fill-opacity="1" fill-rule="nonzero"/><path fill="#ef6764" d="M 309.515625 125.554688 L 307.476562 138.398438 C 307.476562 140.484375 306.359375 144.679688 313.585938 144.679688 C 320.816406 144.679688 319.699219 140.484375 319.699219 138.398438 L 317.664062 125.554688 L 309.515625 125.554688 " fill-opacity="1" fill-rule="nonzero"/><path fill="#1a3157" d="M 308.824219 129.914062 C 311.078125 132.523438 315.234375 133.367188 318.738281 132.34375 L 317.664062 125.554688 L 309.519531 125.554688 L 308.824219 129.914062 " fill-opacity="1" fill-rule="nonzero"/><path fill="#ef6764" d="M 304.609375 113.546875 C 304.386719 114.339844 304.265625 115.175781 304.265625 116.039062 L 304.265625 121.882812 C 304.265625 127.03125 308.441406 131.207031 313.589844 131.207031 C 318.734375 131.207031 322.910156 127.03125 322.910156 121.882812 L 322.910156 116.039062 C 322.910156 115.175781 322.792969 114.339844 322.574219 113.546875 L 310.355469 106.761719 L 304.609375 113.546875 " fill-opacity="1" fill-rule="nonzero"/><path fill="#161d3a" d="M 304.285156 118.214844 C 304.285156 118.214844 305.09375 115.320312 307.335938 113.824219 C 309.574219 112.324219 311.828125 109.378906 310.964844 105.488281 C 310.964844 105.488281 308.171875 104.203125 305.929688 106.667969 C 303.691406 109.132812 302.292969 113.429688 304.285156 118.214844 " fill-opacity="1" fill-rule="nonzero"/><path fill="#161d3a" d="M 310.128906 110.878906 C 310.128906 110.878906 311.640625 115.304688 316.847656 115.886719 C 322.066406 116.464844 322.921875 118.214844 322.921875 118.214844 C 322.921875 118.214844 324.421875 112.761719 321.085938 108.167969 C 317.746094 103.578125 310.300781 103.296875 309.390625 105.160156 L 310.128906 110.878906 " fill-opacity="1" fill-rule="nonzero"/><path fill="#161d3a" d="M 275.027344 143.042969 L 274.320312 143.464844 L 274.320312 142.78125 C 274.320312 142.277344 273.90625 141.859375 273.398438 141.859375 L 269.921875 141.859375 C 269.414062 141.859375 268.996094 142.277344 268.996094 142.78125 L 268.996094 145.570312 C 268.996094 146.078125 269.414062 146.496094 269.921875 146.496094 L 273.398438 146.496094 C 273.90625 146.496094 274.320312 146.078125 274.320312 145.570312 L 274.320312 144.890625 L 275.027344 145.308594 C 275.40625 145.648438 275.710938 145.511719 275.710938 145.003906 L 275.710938 143.351562 C 275.710938 142.84375 275.40625 142.707031 275.027344 143.042969 " fill-opacity="1" fill-rule="nonzero"/><path fill="#161d3a" d="M 272.355469 139.546875 C 269.800781 139.546875 267.726562 141.625 267.726562 144.179688 C 267.726562 146.730469 269.800781 148.8125 272.355469 148.8125 C 274.910156 148.8125 276.988281 146.730469 276.988281 144.179688 C 276.988281 141.625 274.910156 139.546875 272.355469 139.546875 Z M 272.355469 149.136719 C 269.621094 149.136719 267.398438 146.910156 267.398438 144.179688 C 267.398438 141.445312 269.621094 139.21875 272.355469 139.21875 C 275.089844 139.21875 277.3125 141.445312 277.3125 144.179688 C 277.3125 146.910156 275.089844 149.136719 272.355469 149.136719 " fill-opacity="1" fill-rule="nonzero"/><path fill="#161d3a" d="M 288.144531 145.601562 C 288.855469 145.601562 289.433594 145.023438 289.433594 144.3125 L 289.433594 142 C 289.433594 141.289062 288.855469 140.710938 288.144531 140.710938 C 287.433594 140.710938 286.855469 141.289062 286.855469 142 L 286.855469 144.3125 C 286.855469 145.023438 287.433594 145.601562 288.144531 145.601562 " fill-opacity="1" fill-rule="nonzero"/><path fill="#161d3a" d="M 289.832031 143.195312 L 289.699219 143.328125 L 289.699219 144.511719 C 289.699219 145.371094 289 146.070312 288.144531 146.070312 C 287.289062 146.070312 286.59375 145.371094 286.59375 144.511719 L 286.59375 143.328125 L 286.457031 143.195312 L 286.324219 143.328125 L 286.324219 144.511719 C 286.324219 145.472656 287.070312 146.25 288.011719 146.320312 L 288.011719 147.511719 L 288.144531 147.644531 L 288.28125 147.511719 L 288.28125 146.320312 C 289.21875 146.25 289.96875 145.472656 289.96875 144.511719 L 289.96875 143.328125 L 289.832031 143.195312 " fill-opacity="1" fill-rule="nonzero"/><path fill="#161d3a" d="M 288.144531 139.546875 C 285.589844 139.546875 283.515625 141.625 283.515625 144.179688 C 283.515625 146.730469 285.589844 148.8125 288.144531 148.8125 C 290.699219 148.8125 292.777344 146.730469 292.777344 144.179688 C 292.777344 141.625 290.699219 139.546875 288.144531 139.546875 Z M 288.144531 149.136719 C 285.414062 149.136719 283.191406 146.910156 283.191406 144.179688 C 283.191406 141.445312 285.414062 139.21875 288.144531 139.21875 C 290.878906 139.21875 293.101562 141.445312 293.101562 144.179688 C 293.101562 146.910156 290.878906 149.136719 288.144531 149.136719 " fill-opacity="1" fill-rule="nonzero"/><path fill="#ffffff" d="M 280.683594 91.492188 C 279.859375 91.492188 279.183594 90.824219 279.183594 89.996094 C 279.183594 89.167969 279.859375 88.496094 280.683594 88.496094 C 281.511719 88.496094 282.179688 89.167969 282.179688 89.996094 C 282.179688 90.824219 281.511719 91.492188 280.683594 91.492188 Z M 274.792969 91.492188 C 273.960938 91.492188 273.292969 90.824219 273.292969 89.996094 C 273.292969 89.167969 273.960938 88.496094 274.792969 88.496094 C 275.617188 88.496094 276.289062 89.167969 276.289062 89.996094 C 276.289062 90.824219 275.617188 91.492188 274.792969 91.492188 Z M 268.898438 91.492188 C 268.070312 91.492188 267.398438 90.824219 267.398438 89.996094 C 267.398438 89.167969 268.070312 88.496094 268.898438 88.496094 C 269.730469 88.496094 270.398438 89.167969 270.398438 89.996094 C 270.398438 90.824219 269.730469 91.492188 268.898438 91.492188 Z M 278.695312 86.671875 L 264.160156 86.671875 L 264.160156 93.316406 L 362.765625 93.316406 L 362.765625 86.671875 L 278.695312 86.671875 " fill-opacity="1" fill-rule="nonzero"/><path fill="#9c57b1" d="M 182.515625 3.015625 L 182.515625 68.378906 L 83.914062 68.378906 L 83.914062 3.015625 L 182.515625 3.015625 " fill-opacity="1" fill-rule="nonzero"/><path fill="#ad73c0" d="M 95.582031 52.714844 C 95.582031 58.308594 96.792969 63.605469 98.980469 68.375 L 167.449219 68.375 C 169.636719 63.605469 170.847656 58.308594 170.847656 52.714844 C 170.847656 31.925781 154 15.078125 133.214844 15.078125 C 112.425781 15.078125 95.582031 31.925781 95.582031 52.714844 " fill-opacity="1" fill-rule="nonzero"/><path fill="#161d3a" d="M 134.023438 14.113281 C 129.347656 13.464844 123.09375 15.972656 121.578125 20.339844 C 120.667969 22.976562 119.03125 24.84375 117.460938 27.121094 C 116.054688 29.164062 116.132812 30.855469 115.816406 33.164062 C 115.515625 35.398438 114.03125 37.222656 113.359375 39.347656 C 112.582031 41.808594 112.804688 44.4375 112.710938 46.980469 C 112.503906 52.4375 113.695312 57.382812 118.257812 61.058594 C 124.078125 65.753906 133.519531 67.066406 140.707031 65.246094 C 143.464844 64.542969 147.570312 63.84375 149.636719 61.773438 C 151.183594 60.222656 149.742188 58.667969 150.074219 56.859375 C 150.46875 54.742188 152.582031 53.429688 152.230469 51.09375 C 151.851562 48.589844 149.515625 46.761719 149.738281 44.089844 C 149.910156 42.066406 151.5625 40.4375 150.445312 38.421875 C 149.523438 36.753906 147.523438 35.726562 147.746094 33.605469 C 147.921875 31.855469 148.652344 31.230469 147.261719 29.726562 C 145.761719 28.109375 144.570312 26.992188 144.230469 24.734375 C 143.527344 20.082031 140.871094 15.054688 134.023438 14.113281 " fill-opacity="1" fill-rule="nonzero"/><path fill="#f47093" d="M 158.417969 68.378906 C 158.34375 67.898438 158.257812 67.429688 158.171875 66.980469 C 156.765625 59.566406 151.4375 53.207031 145.492188 51.191406 L 143.953125 68.378906 L 158.417969 68.378906 " fill-opacity="1" fill-rule="nonzero"/><path fill="#f47093" d="M 122.851562 68.378906 L 121.167969 49.578125 C 115.226562 51.597656 109.894531 57.957031 108.488281 65.371094 C 108.308594 66.304688 108.144531 67.320312 108.011719 68.378906 L 122.851562 68.378906 " fill-opacity="1" fill-rule="nonzero"/><path fill="#fcfefc" d="M 143.894531 68.378906 L 143.894531 50.792969 C 142.722656 50.59375 141.4375 50.5625 140.042969 50.648438 C 134.582031 51.003906 129.59375 49.3125 124.210938 49.160156 C 123.5625 49.140625 122.941406 49.1875 122.355469 49.289062 L 122.355469 68.378906 L 143.894531 68.378906 " fill-opacity="1" fill-rule="nonzero"/><path fill="#f47093" d="M 127.945312 68.378906 C 126.53125 61.277344 125.011719 52.75 125.0625 49.199219 C 124.78125 49.179688 124.5 49.167969 124.210938 49.160156 C 117.980469 48.984375 114.765625 54.484375 114.003906 61.121094 C 113.777344 63.101562 113.761719 65.636719 113.894531 68.378906 L 127.945312 68.378906 " fill-opacity="1" fill-rule="nonzero"/><path fill="#f68ca5" d="M 123.789062 63.054688 C 124.476562 63.523438 124.90625 64.367188 124.648438 65.199219 C 124.261719 66.460938 123.363281 67.351562 122.59375 68.378906 L 127.945312 68.378906 C 126.53125 61.277344 125.011719 52.75 125.0625 49.199219 L 124.835938 49.1875 C 124.113281 50.746094 123.679688 52.492188 122.976562 54.070312 C 122.21875 55.761719 121.371094 57.660156 121.082031 59.503906 C 120.753906 61.566406 122.375 62.085938 123.789062 63.054688 " fill-opacity="1" fill-rule="nonzero"/><path fill="#f47093" d="M 152.003906 68.378906 C 152.082031 64.8125 151.878906 61.488281 151.332031 59.007812 C 149.925781 52.628906 146.496094 50.628906 141.535156 50.605469 C 141.5625 56.519531 139.855469 62.503906 137.878906 68.378906 L 152.003906 68.378906 " fill-opacity="1" fill-rule="nonzero"/><path fill="#f68ca5" d="M 143.046875 68.378906 C 142.539062 67.550781 141.933594 66.742188 141.652344 65.832031 C 140.78125 63.09375 144.03125 62.710938 145.664062 61.589844 C 147.75 60.152344 145.734375 57.730469 144.964844 56.101562 C 144.113281 54.292969 143.386719 52.433594 142.511719 50.640625 C 142.195312 50.621094 141.867188 50.605469 141.535156 50.605469 C 141.5625 56.519531 139.855469 62.503906 137.878906 68.378906 L 143.046875 68.378906 " fill-opacity="1" fill-rule="nonzero"/><path fill="#ef6764" d="M 123.199219 28.339844 C 121.804688 28.554688 120.921875 29.960938 121.796875 31.941406 C 122.53125 33.613281 122.699219 35.1875 124.089844 34.976562 C 125.484375 34.761719 126.414062 33.101562 126.164062 31.269531 C 125.917969 29.4375 124.589844 28.125 123.199219 28.339844 " fill-opacity="1" fill-rule="nonzero"/><path fill="#ef6764" d="M 143.460938 28.339844 C 142.070312 28.125 140.742188 29.4375 140.496094 31.269531 C 140.25 33.101562 141.171875 34.761719 142.566406 34.976562 C 143.957031 35.1875 144.125 33.613281 144.863281 31.941406 C 145.738281 29.960938 144.855469 28.554688 143.460938 28.339844 " fill-opacity="1" fill-rule="nonzero"/><path fill="#ef6764" d="M 129.019531 37.578125 L 126.859375 51.183594 C 126.859375 53.390625 125.675781 57.832031 133.328125 57.832031 C 140.984375 57.832031 139.800781 53.390625 139.800781 51.183594 L 137.640625 37.578125 L 129.019531 37.578125 " fill-opacity="1" fill-rule="nonzero"/><path fill="#1a3157" d="M 128.285156 42.199219 C 130.671875 44.964844 135.070312 45.855469 138.785156 44.769531 L 137.640625 37.578125 L 129.019531 37.578125 L 128.285156 42.199219 " fill-opacity="1" fill-rule="nonzero"/><path fill="#ef6764" d="M 123.816406 24.863281 C 123.585938 25.703125 123.457031 26.585938 123.457031 27.503906 L 123.457031 33.691406 C 123.457031 39.144531 127.878906 43.5625 133.328125 43.5625 C 138.78125 43.5625 143.203125 39.144531 143.203125 33.691406 L 143.203125 27.503906 C 143.203125 26.585938 143.074219 25.703125 142.839844 24.863281 L 129.90625 17.679688 L 123.816406 24.863281 " fill-opacity="1" fill-rule="nonzero"/><path fill="#161d3a" d="M 123.476562 29.8125 C 123.476562 29.8125 124.335938 26.746094 126.710938 25.15625 C 129.082031 23.570312 131.464844 20.453125 130.550781 16.332031 C 130.550781 16.332031 127.59375 14.972656 125.21875 17.582031 C 122.847656 20.191406 121.367188 24.742188 123.476562 29.8125 " fill-opacity="1" fill-rule="nonzero"/><path fill="#161d3a" d="M 129.667969 22.042969 C 129.667969 22.042969 131.265625 26.726562 136.785156 27.34375 C 142.304688 27.957031 143.214844 29.808594 143.214844 29.808594 C 143.214844 29.808594 144.804688 24.03125 141.265625 19.167969 C 137.730469 14.304688 129.847656 14.015625 128.886719 15.984375 L 129.667969 22.042969 " fill-opacity="1" fill-rule="nonzero"/><path fill="#161d3a" d="M 94.777344 59.367188 L 94.074219 59.789062 L 94.074219 59.109375 C 94.074219 58.597656 93.65625 58.183594 93.152344 58.183594 L 89.671875 58.183594 C 89.164062 58.183594 88.75 58.597656 88.75 59.109375 L 88.75 61.894531 C 88.75 62.402344 89.164062 62.816406 89.671875 62.816406 L 93.152344 62.816406 C 93.65625 62.816406 94.074219 62.402344 94.074219 61.894531 L 94.074219 61.214844 L 94.777344 61.636719 C 95.15625 61.972656 95.464844 61.832031 95.464844 61.328125 L 95.464844 59.675781 C 95.464844 59.167969 95.15625 59.027344 94.777344 59.367188 " fill-opacity="1" fill-rule="nonzero"/><path fill="#161d3a" d="M 92.105469 55.867188 C 89.554688 55.867188 87.476562 57.945312 87.476562 60.5 C 87.476562 63.054688 89.554688 65.132812 92.105469 65.132812 C 94.660156 65.132812 96.738281 63.054688 96.738281 60.5 C 96.738281 57.945312 94.660156 55.867188 92.105469 55.867188 Z M 92.105469 65.457031 C 89.375 65.457031 87.148438 63.234375 87.148438 60.5 C 87.148438 57.769531 89.375 55.542969 92.105469 55.542969 C 94.839844 55.542969 97.0625 57.769531 97.0625 60.5 C 97.0625 63.234375 94.839844 65.457031 92.105469 65.457031 " fill-opacity="1" fill-rule="nonzero"/><path fill="#161d3a" d="M 107.894531 61.921875 C 108.609375 61.921875 109.183594 61.347656 109.183594 60.632812 L 109.183594 58.324219 C 109.183594 57.609375 108.609375 57.035156 107.894531 57.035156 C 107.1875 57.035156 106.605469 57.609375 106.605469 58.324219 L 106.605469 60.632812 C 106.605469 61.347656 107.1875 61.921875 107.894531 61.921875 " fill-opacity="1" fill-rule="nonzero"/><path fill="#161d3a" d="M 109.585938 59.519531 L 109.449219 59.652344 L 109.449219 60.835938 C 109.449219 61.695312 108.753906 62.390625 107.894531 62.390625 C 107.039062 62.390625 106.34375 61.695312 106.34375 60.835938 L 106.34375 59.652344 L 106.210938 59.519531 L 106.074219 59.652344 L 106.074219 60.835938 C 106.074219 61.796875 106.820312 62.574219 107.765625 62.644531 L 107.765625 63.835938 L 107.894531 63.96875 L 108.03125 63.835938 L 108.03125 62.644531 C 108.972656 62.574219 109.71875 61.796875 109.71875 60.835938 L 109.71875 59.652344 L 109.585938 59.519531 " fill-opacity="1" fill-rule="nonzero"/><path fill="#161d3a" d="M 107.894531 55.867188 C 105.34375 55.867188 103.265625 57.945312 103.265625 60.5 C 103.265625 63.054688 105.34375 65.132812 107.894531 65.132812 C 110.449219 65.132812 112.527344 63.054688 112.527344 60.5 C 112.527344 57.945312 110.449219 55.867188 107.894531 55.867188 Z M 107.894531 65.457031 C 105.164062 65.457031 102.941406 63.234375 102.941406 60.5 C 102.941406 57.769531 105.164062 55.542969 107.894531 55.542969 C 110.628906 55.542969 112.851562 57.769531 112.851562 60.5 C 112.851562 63.234375 110.628906 65.457031 107.894531 65.457031 " fill-opacity="1" fill-rule="nonzero"/><path fill="#ffffff" d="M 100.433594 7.820312 C 99.605469 7.820312 98.9375 7.148438 98.9375 6.320312 C 98.9375 5.492188 99.605469 4.820312 100.433594 4.820312 C 101.261719 4.820312 101.933594 5.492188 101.933594 6.320312 C 101.933594 7.148438 101.261719 7.820312 100.433594 7.820312 Z M 94.542969 7.820312 C 93.714844 7.820312 93.042969 7.148438 93.042969 6.320312 C 93.042969 5.492188 93.714844 4.820312 94.542969 4.820312 C 95.371094 4.820312 96.042969 5.492188 96.042969 6.320312 C 96.042969 7.148438 95.371094 7.820312 94.542969 7.820312 Z M 88.648438 7.820312 C 87.824219 7.820312 87.148438 7.148438 87.148438 6.320312 C 87.148438 5.492188 87.824219 4.820312 88.648438 4.820312 C 89.480469 4.820312 90.148438 5.492188 90.148438 6.320312 C 90.148438 7.148438 89.480469 7.820312 88.648438 7.820312 Z M 98.445312 3 L 83.910156 3 L 83.910156 9.644531 L 182.515625 9.644531 L 182.515625 3 L 98.445312 3 " fill-opacity="1" fill-rule="nonzero"/><path fill="#faba26" d="M 288.894531 3.015625 L 288.894531 68.378906 L 190.292969 68.378906 L 190.292969 3.015625 L 288.894531 3.015625 " fill-opacity="1" fill-rule="nonzero"/><path fill="#fbc64c" d="M 203.625 53.410156 C 203.625 58.753906 204.785156 63.816406 206.875 68.375 L 272.316406 68.375 C 274.414062 63.816406 275.566406 58.753906 275.566406 53.410156 C 275.566406 33.535156 259.464844 17.429688 239.597656 17.429688 C 219.726562 17.429688 203.625 33.535156 203.625 53.410156 " fill-opacity="1" fill-rule="nonzero"/><path fill="#4b6ebe" d="M 266.558594 68.378906 C 266.496094 68.039062 266.433594 67.703125 266.367188 67.382812 C 264.859375 60 259.144531 53.660156 252.769531 51.652344 L 251.15625 68.378906 L 266.558594 68.378906 " fill-opacity="1" fill-rule="nonzero"/><path fill="#4b6ebe" d="M 228.449219 68.378906 L 226.683594 50.046875 C 220.308594 52.058594 214.589844 58.394531 213.078125 65.777344 C 212.914062 66.59375 212.761719 67.472656 212.632812 68.378906 L 228.449219 68.378906 " fill-opacity="1" fill-rule="nonzero"/><path fill="#4b6ebe" d="M 259.761719 68.378906 C 259.820312 64.976562 259.597656 61.816406 259.035156 59.441406 C 257.378906 52.464844 253.113281 50.746094 246.925781 51.113281 C 241.070312 51.464844 235.714844 49.78125 229.949219 49.628906 C 223.257812 49.453125 219.8125 54.933594 218.996094 61.546875 C 218.769531 63.425781 218.742188 65.804688 218.855469 68.378906 L 259.761719 68.378906 " fill-opacity="1" fill-rule="nonzero"/><path fill="#ef6764" d="M 235.261719 39.347656 L 233.027344 51.019531 C 233.027344 52.917969 231.8125 58.527344 239.734375 58.527344 C 247.652344 58.527344 246.417969 52.917969 246.417969 51.019531 L 244.1875 39.347656 L 235.261719 39.347656 " fill-opacity="1" fill-rule="nonzero"/><path fill="#1a3157" d="M 234.503906 43.308594 C 236.972656 45.683594 241.527344 46.453125 245.363281 45.519531 L 244.1875 39.347656 L 235.261719 39.347656 L 234.503906 43.308594 " fill-opacity="1" fill-rule="nonzero"/><path fill="#ef6764" d="M 229.242188 28.730469 C 227.804688 28.949219 226.890625 30.410156 227.789062 32.457031 C 228.550781 34.1875 228.726562 35.816406 230.167969 35.59375 C 231.605469 35.375 232.570312 33.65625 232.3125 31.761719 C 232.054688 29.867188 230.683594 28.507812 229.242188 28.730469 " fill-opacity="1" fill-rule="nonzero"/><path fill="#ef6764" d="M 250.207031 28.730469 C 248.769531 28.507812 247.394531 29.867188 247.140625 31.761719 C 246.882812 33.65625 247.839844 35.375 249.28125 35.59375 C 250.71875 35.816406 250.894531 34.1875 251.660156 32.457031 C 252.558594 30.410156 251.640625 28.949219 250.207031 28.730469 " fill-opacity="1" fill-rule="nonzero"/><path fill="#ef6764" d="M 229.882812 25.375 C 229.644531 26.242188 229.511719 27.15625 229.511719 28.105469 L 229.511719 34.503906 C 229.511719 40.148438 234.082031 44.71875 239.722656 44.71875 C 245.363281 44.71875 249.933594 40.148438 249.933594 34.503906 L 249.933594 28.105469 C 249.933594 27.15625 249.804688 26.242188 249.5625 25.375 L 233.507812 19.90625 L 229.882812 25.375 " fill-opacity="1" fill-rule="nonzero"/><path fill="#1c264c" d="M 232.0625 18.398438 C 228.890625 18.945312 229.511719 21.996094 229.511719 26.929688 C 229.511719 28.722656 229.378906 30.035156 229.511719 32.273438 C 229.511719 32.273438 231.078125 30.8125 231.113281 27.570312 C 231.132812 25.898438 231.429688 23.578125 233.511719 23.320312 C 233.511719 23.320312 233.578125 23.371094 233.714844 23.464844 C 232.59375 22.007812 231.957031 20.214844 232.0625 18.398438 " fill-opacity="1" fill-rule="nonzero"/><path fill="#ef285b" d="M 235.363281 62.957031 L 237.601562 66.554688 L 241.574219 66.554688 L 244.296875 62.648438 C 244.296875 62.648438 243.066406 59.015625 242.964844 59.050781 C 242.863281 59.085938 239.734375 58.527344 239.734375 58.527344 L 236.039062 60.308594 L 235.363281 62.957031 " fill-opacity="1" fill-rule="nonzero"/><path fill="#ecf3f5" d="M 239.714844 58.527344 C 239.714844 58.527344 235.089844 62.277344 235.523438 65.265625 C 235.523438 65.265625 229.125 62.414062 231.582031 49.710938 C 231.582031 49.710938 232.195312 48.9375 233.425781 48.996094 C 233.425781 48.996094 234.300781 56.339844 239.714844 58.527344 " fill-opacity="1" fill-rule="nonzero"/><path fill="#ecf3f5" d="M 239.734375 58.527344 C 239.734375 58.527344 244.363281 62.277344 243.925781 65.265625 C 243.925781 65.265625 249.726562 63.796875 247.273438 51.097656 C 247.273438 51.097656 247.265625 49.570312 246.03125 49.625 C 246.03125 49.625 245.144531 56.339844 239.734375 58.527344 " fill-opacity="1" fill-rule="nonzero"/><path fill="#ef285b" d="M 242.898438 68.378906 L 236.292969 68.378906 L 237.601562 66.554688 L 241.589844 66.554688 L 242.898438 68.378906 " fill-opacity="1" fill-rule="nonzero"/><path fill="#1c264c" d="M 249.933594 32.160156 C 249.933594 32.160156 248.570312 30.664062 248.839844 28.164062 C 249.117188 25.660156 246.03125 22.503906 246.03125 22.503906 L 250.28125 25.175781 C 250.28125 25.175781 250.136719 28.726562 249.933594 32.160156 " fill-opacity="1" fill-rule="nonzero"/><path fill="#161d3a" d="M 250.402344 25.726562 C 250.402344 25.726562 251.421875 25.859375 252.019531 25.179688 C 252.019531 25.179688 250.46875 25.253906 250.269531 23.867188 L 250.269531 23.863281 C 249.71875 18.90625 243.160156 10.21875 232.222656 18.367188 C 228.863281 18.835938 229.511719 21.910156 229.511719 26.929688 C 229.511719 28.726562 229.378906 30.035156 229.511719 32.273438 C 229.511719 32.273438 231.078125 30.8125 231.113281 27.570312 C 231.132812 25.898438 231.433594 23.578125 233.511719 23.320312 C 233.511719 23.320312 240.984375 29.144531 250.378906 27.199219 C 250.378906 27.199219 251.480469 27.21875 252.570312 26.671875 C 252.570312 26.671875 250.859375 26.671875 250.402344 25.726562 " fill-opacity="1" fill-rule="nonzero"/><path fill="#161d3a" d="M 244.476562 34.160156 C 242.613281 34.160156 241.097656 32.988281 241.097656 31.546875 C 241.097656 30.378906 242.136719 29.855469 244.476562 29.855469 C 246.820312 29.855469 247.859375 30.378906 247.859375 31.546875 C 247.859375 33.117188 247.859375 34.160156 244.476562 34.160156 Z M 234.960938 34.160156 C 231.578125 34.160156 231.578125 33.117188 231.578125 31.546875 C 231.578125 30.378906 232.621094 29.855469 234.960938 29.855469 C 237.296875 29.855469 238.34375 30.378906 238.34375 31.546875 C 238.34375 32.988281 236.828125 34.160156 234.960938 34.160156 Z M 248.792969 29.238281 L 245.652344 29.308594 C 245.253906 29.269531 244.851562 29.253906 244.476562 29.253906 C 242.953125 29.253906 240.992188 29.445312 240.578125 30.933594 C 240.265625 30.703125 239.945312 30.585938 239.609375 30.605469 C 239.304688 30.628906 239.054688 30.757812 238.855469 30.902344 C 238.421875 29.441406 236.46875 29.253906 234.960938 29.253906 C 234.699219 29.253906 234.425781 29.261719 234.148438 29.277344 L 230.589844 29.277344 L 230.320312 30.601562 C 230.320312 30.601562 230.964844 30.539062 230.976562 31.394531 L 230.988281 31.378906 L 230.976562 31.546875 C 230.976562 33.199219 230.976562 34.761719 234.960938 34.761719 C 237.113281 34.761719 238.867188 33.375 238.9375 31.652344 C 239.035156 31.53125 239.300781 31.230469 239.652344 31.207031 C 239.925781 31.1875 240.210938 31.351562 240.5 31.675781 C 240.585938 33.386719 242.335938 34.761719 244.476562 34.761719 C 248.460938 34.761719 248.460938 33.199219 248.460938 31.546875 L 248.445312 31.359375 C 248.449219 30.515625 249.089844 30.566406 249.089844 30.566406 L 248.792969 29.238281 " fill-opacity="1" fill-rule="nonzero"/><path fill="#161d3a" d="M 201.160156 59.367188 L 200.457031 59.789062 L 200.457031 59.109375 C 200.457031 58.597656 200.039062 58.183594 199.535156 58.183594 L 196.054688 58.183594 C 195.546875 58.183594 195.132812 58.597656 195.132812 59.109375 L 195.132812 61.894531 C 195.132812 62.402344 195.546875 62.816406 196.054688 62.816406 L 199.535156 62.816406 C 200.039062 62.816406 200.457031 62.402344 200.457031 61.894531 L 200.457031 61.214844 L 201.160156 61.636719 C 201.539062 61.972656 201.847656 61.832031 201.847656 61.328125 L 201.847656 59.675781 C 201.847656 59.167969 201.539062 59.027344 201.160156 59.367188 " fill-opacity="1" fill-rule="nonzero"/><path fill="#161d3a" d="M 198.488281 55.867188 C 195.9375 55.867188 193.855469 57.945312 193.855469 60.5 C 193.855469 63.054688 195.9375 65.132812 198.488281 65.132812 C 201.046875 65.132812 203.121094 63.054688 203.121094 60.5 C 203.121094 57.945312 201.046875 55.867188 198.488281 55.867188 Z M 198.488281 65.457031 C 195.757812 65.457031 193.535156 63.234375 193.535156 60.5 C 193.535156 57.769531 195.757812 55.542969 198.488281 55.542969 C 201.222656 55.542969 203.449219 57.769531 203.449219 60.5 C 203.449219 63.234375 201.222656 65.457031 198.488281 65.457031 " fill-opacity="1" fill-rule="nonzero"/><path fill="#161d3a" d="M 214.28125 61.921875 C 214.988281 61.921875 215.570312 61.347656 215.570312 60.632812 L 215.570312 58.324219 C 215.570312 57.609375 214.988281 57.035156 214.28125 57.035156 C 213.566406 57.035156 212.992188 57.609375 212.992188 58.324219 L 212.992188 60.632812 C 212.992188 61.347656 213.566406 61.921875 214.28125 61.921875 " fill-opacity="1" fill-rule="nonzero"/><path fill="#161d3a" d="M 215.96875 59.519531 L 215.832031 59.652344 L 215.832031 60.835938 C 215.832031 61.695312 215.136719 62.390625 214.28125 62.390625 C 213.425781 62.390625 212.726562 61.695312 212.726562 60.835938 L 212.726562 59.652344 L 212.589844 59.519531 L 212.460938 59.652344 L 212.460938 60.835938 C 212.460938 61.796875 213.207031 62.574219 214.144531 62.644531 L 214.144531 63.835938 L 214.28125 63.96875 L 214.414062 63.835938 L 214.414062 62.644531 C 215.355469 62.574219 216.101562 61.796875 216.101562 60.835938 L 216.101562 59.652344 L 215.96875 59.519531 " fill-opacity="1" fill-rule="nonzero"/><path fill="#161d3a" d="M 214.28125 55.867188 C 211.726562 55.867188 209.648438 57.945312 209.648438 60.5 C 209.648438 63.054688 211.726562 65.132812 214.28125 65.132812 C 216.832031 65.132812 218.910156 63.054688 218.910156 60.5 C 218.910156 57.945312 216.832031 55.867188 214.28125 55.867188 Z M 214.28125 65.457031 C 211.546875 65.457031 209.324219 63.234375 209.324219 60.5 C 209.324219 57.769531 211.546875 55.542969 214.28125 55.542969 C 217.011719 55.542969 219.238281 57.769531 219.238281 60.5 C 219.238281 63.234375 217.011719 65.457031 214.28125 65.457031 " fill-opacity="1" fill-rule="nonzero"/><path fill="#ffffff" d="M 206.816406 7.820312 C 205.988281 7.820312 205.320312 7.148438 205.320312 6.320312 C 205.320312 5.492188 205.988281 4.820312 206.816406 4.820312 C 207.644531 4.820312 208.316406 5.492188 208.316406 6.320312 C 208.316406 7.148438 207.644531 7.820312 206.816406 7.820312 Z M 200.925781 7.820312 C 200.097656 7.820312 199.425781 7.148438 199.425781 6.320312 C 199.425781 5.492188 200.097656 4.820312 200.925781 4.820312 C 201.753906 4.820312 202.421875 5.492188 202.421875 6.320312 C 202.421875 7.148438 201.753906 7.820312 200.925781 7.820312 Z M 195.03125 7.820312 C 194.203125 7.820312 193.535156 7.148438 193.535156 6.320312 C 193.535156 5.492188 194.203125 4.820312 195.03125 4.820312 C 195.859375 4.820312 196.53125 5.492188 196.53125 6.320312 C 196.53125 7.148438 195.859375 7.820312 195.03125 7.820312 Z M 204.828125 3 L 190.292969 3 L 190.292969 9.644531 L 288.894531 9.644531 L 288.894531 3 L 204.828125 3 " fill-opacity="1" fill-rule="nonzero"/></svg>