<svg xmlns="http://www.w3.org/2000/svg" xmlns:xlink="http://www.w3.org/1999/xlink" width="200" zoomAndPan="magnify" viewBox="0 0 150 112.499997" height="150" preserveAspectRatio="xMidYMid meet" version="1.0"><defs><clipPath id="519cd5b77b"><path d="M 2.660156 52.335938 L 48 52.335938 L 48 98.1875 L 2.660156 98.1875 Z M 2.660156 52.335938 " clip-rule="nonzero"/></clipPath><clipPath id="6b58e1fcea"><path d="M 2.660156 71 L 4 71 L 4 73 L 2.660156 73 Z M 2.660156 71 " clip-rule="nonzero"/></clipPath><clipPath id="5d0e5b5654"><path d="M 2.660156 69.507812 L 13.90625 69.507812 L 13.90625 98.1875 L 2.660156 98.1875 Z M 2.660156 69.507812 " clip-rule="nonzero"/></clipPath><clipPath id="d00fe5e24f"><path d="M 2.660156 60.398438 L 23 60.398438 L 23 98.1875 L 2.660156 98.1875 Z M 2.660156 60.398438 " clip-rule="nonzero"/></clipPath><clipPath id="fa6ffaafb0"><path d="M 2.660156 60.746094 L 11.449219 60.746094 L 11.449219 98.1875 L 2.660156 98.1875 Z M 2.660156 60.746094 " clip-rule="nonzero"/></clipPath><clipPath id="432f1f96d7"><path d="M 74.511719 23.601562 L 146.757812 23.601562 L 146.757812 73.363281 L 74.511719 73.363281 Z M 74.511719 23.601562 " clip-rule="nonzero"/></clipPath><clipPath id="34ddd988f3"><path d="M 146.675781 48.433594 C 146.726562 48.367188 146.757812 48.351562 146.757812 48.351562 L 146.613281 48.351562 C 146.332031 47.925781 145.691406 46.496094 145.304688 41.917969 C 144.800781 35.90625 144.925781 36.492188 144.640625 36.347656 C 144.359375 36.492188 144.484375 35.90625 143.980469 41.917969 C 143.695312 45.285156 143.273438 46.949219 142.957031 47.761719 C 142.546875 46.664062 141.90625 44.027344 141.496094 37.824219 C 140.851562 28.085938 141.011719 29.035156 140.648438 28.796875 C 140.285156 29.035156 140.449219 28.085938 139.800781 37.824219 C 139.46875 42.859375 138.984375 45.546875 138.59375 46.964844 C 138.238281 45.871094 137.832031 44.019531 137.542969 40.902344 C 136.898438 33.964844 137.058594 34.640625 136.695312 34.472656 C 136.332031 34.640625 136.496094 33.964844 135.847656 40.902344 C 135.695312 42.566406 135.507812 43.871094 135.3125 44.894531 C 135.003906 42.976562 134.679688 40.066406 134.4375 35.660156 C 133.792969 23.945312 133.953125 25.089844 133.589844 24.804688 C 133.226562 25.089844 133.390625 23.945312 132.746094 35.660156 C 132.417969 41.570312 131.949219 44.789062 131.5625 46.527344 C 131.175781 44.734375 130.695312 41.363281 130.367188 35.085938 C 129.71875 22.847656 129.878906 24.039062 129.519531 23.742188 C 129.15625 24.039062 129.316406 22.847656 128.671875 35.085938 C 128.527344 37.851562 128.351562 40.054688 128.167969 41.808594 C 127.984375 40.054688 127.808594 37.851562 127.664062 35.085938 C 127.019531 22.847656 127.179688 24.039062 126.816406 23.742188 C 126.453125 24.039062 126.613281 22.847656 125.96875 35.085938 C 125.636719 41.363281 125.160156 44.734375 124.769531 46.527344 C 124.382812 44.789062 123.914062 41.570312 123.589844 35.660156 C 122.945312 23.945312 123.105469 25.089844 122.742188 24.804688 C 122.378906 25.089844 122.539062 23.945312 121.894531 35.660156 C 121.652344 40.066406 121.328125 42.976562 121.023438 44.894531 C 120.824219 43.871094 120.640625 42.566406 120.484375 40.902344 C 119.839844 33.964844 120 34.640625 119.636719 34.472656 C 119.273438 34.640625 119.4375 33.964844 118.789062 40.902344 C 118.5 44.019531 118.097656 45.871094 117.738281 46.964844 C 117.351562 45.546875 116.863281 42.859375 116.53125 37.824219 C 115.886719 28.085938 116.046875 29.035156 115.683594 28.796875 C 115.320312 29.035156 115.484375 28.085938 114.839844 37.824219 C 114.429688 44.027344 113.789062 46.664062 113.378906 47.761719 C 113.058594 46.949219 112.640625 45.285156 112.355469 41.917969 C 111.851562 35.90625 111.976562 36.492188 111.691406 36.347656 C 111.410156 36.492188 111.535156 35.90625 111.03125 41.917969 C 110.914062 43.277344 110.777344 44.359375 110.632812 45.21875 C 110.492188 44.359375 110.355469 43.277344 110.238281 41.917969 C 109.734375 35.90625 109.859375 36.492188 109.574219 36.347656 C 109.292969 36.492188 109.417969 35.90625 108.914062 41.917969 C 108.628906 45.285156 108.207031 46.949219 107.890625 47.761719 C 107.480469 46.664062 106.84375 44.027344 106.429688 37.824219 C 105.785156 28.085938 105.945312 29.035156 105.585938 28.796875 C 105.21875 29.035156 105.382812 28.085938 104.738281 37.824219 C 104.402344 42.859375 103.917969 45.546875 103.527344 46.964844 C 103.171875 45.871094 102.769531 44.019531 102.480469 40.902344 C 101.832031 33.964844 101.992188 34.640625 101.632812 34.472656 C 101.269531 34.640625 101.429688 33.964844 100.785156 40.902344 C 100.628906 42.566406 100.441406 43.871094 100.246094 44.894531 C 99.9375 42.976562 99.617188 40.066406 99.371094 35.660156 C 98.726562 23.945312 98.890625 25.089844 98.527344 24.804688 C 98.164062 25.089844 98.324219 23.945312 97.679688 35.660156 C 97.351562 41.570312 96.882812 44.789062 96.5 46.527344 C 96.109375 44.734375 95.632812 41.363281 95.300781 35.085938 C 94.652344 22.847656 94.816406 24.039062 94.453125 23.742188 C 94.089844 24.039062 94.25 22.847656 93.605469 35.085938 C 93.460938 37.851562 93.285156 40.054688 93.101562 41.808594 C 92.917969 40.054688 92.742188 37.851562 92.597656 35.085938 C 91.953125 22.847656 92.113281 24.039062 91.75 23.742188 C 91.386719 24.039062 91.550781 22.847656 90.902344 35.085938 C 90.574219 41.363281 90.09375 44.734375 89.703125 46.527344 C 89.320312 44.789062 88.851562 41.570312 88.523438 35.660156 C 87.878906 23.945312 88.039062 25.089844 87.679688 24.804688 C 87.316406 25.089844 87.476562 23.945312 86.832031 35.660156 C 86.585938 40.066406 86.265625 42.976562 85.957031 44.894531 C 85.761719 43.871094 85.574219 42.566406 85.417969 40.902344 C 84.773438 33.964844 84.933594 34.640625 84.570312 34.472656 C 84.210938 34.640625 84.371094 33.964844 83.726562 40.902344 C 83.433594 44.019531 83.03125 45.871094 82.675781 46.964844 C 82.285156 45.546875 81.800781 42.859375 81.464844 37.824219 C 80.824219 28.085938 80.984375 29.035156 80.621094 28.796875 C 80.257812 29.035156 80.417969 28.085938 79.773438 37.824219 C 79.363281 44.027344 78.722656 46.664062 78.3125 47.761719 C 77.996094 46.949219 77.574219 45.285156 77.292969 41.917969 C 76.785156 35.90625 76.910156 36.492188 76.628906 36.347656 C 76.34375 36.492188 76.46875 35.90625 75.964844 41.917969 C 75.578125 46.496094 74.9375 47.925781 74.652344 48.351562 L 74.511719 48.351562 C 74.511719 48.351562 74.539062 48.367188 74.59375 48.433594 C 74.539062 48.496094 74.511719 48.515625 74.511719 48.515625 L 74.652344 48.515625 C 74.9375 48.9375 75.578125 50.371094 75.964844 54.945312 C 76.46875 60.957031 76.34375 60.371094 76.628906 60.519531 C 76.910156 60.371094 76.785156 60.957031 77.292969 54.945312 C 77.574219 51.578125 77.996094 49.914062 78.3125 49.101562 C 78.722656 50.199219 79.363281 52.835938 79.773438 59.042969 C 80.417969 68.78125 80.257812 67.832031 80.621094 68.070312 C 80.984375 67.832031 80.824219 68.78125 81.464844 59.042969 C 81.800781 54.007812 82.285156 51.320312 82.675781 49.898438 C 83.03125 50.996094 83.433594 52.847656 83.726562 55.964844 C 84.371094 62.902344 84.210938 62.226562 84.570312 62.394531 C 84.933594 62.226562 84.773438 62.902344 85.417969 55.964844 C 85.574219 54.296875 85.761719 52.996094 85.957031 51.972656 C 86.265625 53.890625 86.585938 56.800781 86.832031 61.207031 C 87.476562 72.921875 87.316406 71.777344 87.679688 72.0625 C 88.039062 71.777344 87.878906 72.921875 88.523438 61.207031 C 88.851562 55.292969 89.320312 52.078125 89.703125 50.339844 C 90.09375 52.132812 90.574219 55.503906 90.902344 61.78125 C 91.550781 74.019531 91.386719 72.824219 91.75 73.125 C 92.113281 72.824219 91.953125 74.019531 92.597656 61.78125 C 92.742188 59.011719 92.917969 56.8125 93.101562 55.058594 C 93.285156 56.8125 93.460938 59.011719 93.605469 61.78125 C 94.25 74.019531 94.089844 72.824219 94.453125 73.125 C 94.816406 72.824219 94.652344 74.019531 95.300781 61.78125 C 95.632812 55.503906 96.109375 52.132812 96.5 50.339844 C 96.882812 52.078125 97.351562 55.292969 97.679688 61.207031 C 98.324219 72.921875 98.164062 71.777344 98.527344 72.0625 C 98.890625 71.777344 98.726562 72.921875 99.371094 61.207031 C 99.617188 56.800781 99.9375 53.890625 100.246094 51.972656 C 100.441406 52.996094 100.628906 54.296875 100.785156 55.964844 C 101.429688 62.902344 101.269531 62.226562 101.632812 62.394531 C 101.992188 62.226562 101.832031 62.902344 102.480469 55.964844 C 102.769531 52.847656 103.171875 50.996094 103.527344 49.898438 C 103.917969 51.320312 104.402344 54.007812 104.738281 59.042969 C 105.382812 68.78125 105.21875 67.832031 105.585938 68.070312 C 105.945312 67.832031 105.785156 68.78125 106.429688 59.042969 C 106.84375 52.835938 107.480469 50.199219 107.890625 49.101562 C 108.207031 49.914062 108.628906 51.578125 108.914062 54.945312 C 109.417969 60.957031 109.292969 60.371094 109.574219 60.519531 C 109.859375 60.371094 109.734375 60.957031 110.238281 54.945312 C 110.355469 53.585938 110.492188 52.507812 110.632812 51.644531 C 110.777344 52.507812 110.914062 53.585938 111.03125 54.945312 C 111.535156 60.957031 111.410156 60.371094 111.691406 60.519531 C 111.976562 60.371094 111.851562 60.957031 112.355469 54.945312 C 112.640625 51.578125 113.058594 49.914062 113.378906 49.101562 C 113.789062 50.199219 114.429688 52.835938 114.839844 59.042969 C 115.484375 68.78125 115.320312 67.832031 115.683594 68.070312 C 116.046875 67.832031 115.886719 68.78125 116.53125 59.042969 C 116.863281 54.007812 117.347656 51.320312 117.738281 49.898438 C 118.097656 50.996094 118.5 52.847656 118.789062 55.964844 C 119.4375 62.902344 119.273438 62.226562 119.636719 62.394531 C 120 62.226562 119.839844 62.902344 120.484375 55.964844 C 120.640625 54.296875 120.828125 52.996094 121.023438 51.972656 C 121.328125 53.890625 121.652344 56.800781 121.894531 61.207031 C 122.539062 72.921875 122.378906 71.777344 122.742188 72.0625 C 123.105469 71.777344 122.945312 72.921875 123.589844 61.207031 C 123.914062 55.292969 124.382812 52.078125 124.769531 50.339844 C 125.160156 52.132812 125.636719 55.503906 125.96875 61.78125 C 126.613281 74.019531 126.453125 72.824219 126.816406 73.125 C 127.179688 72.824219 127.019531 74.019531 127.664062 61.78125 C 127.808594 59.011719 127.984375 56.8125 128.167969 55.058594 C 128.351562 56.8125 128.527344 59.011719 128.671875 61.78125 C 129.316406 74.019531 129.15625 72.824219 129.519531 73.125 C 129.878906 72.824219 129.71875 74.019531 130.367188 61.78125 C 130.695312 55.503906 131.175781 52.132812 131.5625 50.339844 C 131.949219 52.078125 132.417969 55.292969 132.746094 61.207031 C 133.390625 72.921875 133.226562 71.777344 133.589844 72.0625 C 133.953125 71.777344 133.792969 72.921875 134.4375 61.207031 C 134.679688 56.800781 135.003906 53.890625 135.3125 51.972656 C 135.507812 52.996094 135.695312 54.296875 135.847656 55.964844 C 136.496094 62.902344 136.332031 62.226562 136.695312 62.394531 C 137.058594 62.226562 136.898438 62.902344 137.542969 55.964844 C 137.832031 52.847656 138.238281 50.996094 138.59375 49.898438 C 138.984375 51.320312 139.46875 54.007812 139.800781 59.042969 C 140.449219 68.78125 140.285156 67.832031 140.648438 68.070312 C 141.011719 67.832031 140.851562 68.78125 141.496094 59.042969 C 141.90625 52.835938 142.546875 50.199219 142.957031 49.101562 C 143.273438 49.914062 143.695312 51.578125 143.980469 54.945312 C 144.484375 60.957031 144.359375 60.371094 144.640625 60.519531 C 144.925781 60.371094 144.800781 60.957031 145.304688 54.945312 C 145.691406 50.371094 146.332031 48.9375 146.613281 48.515625 L 146.757812 48.515625 C 146.757812 48.515625 146.726562 48.496094 146.675781 48.433594 Z M 146.675781 48.433594 " clip-rule="nonzero"/></clipPath><clipPath id="26ec7b9dc5"><path d="M 146.675781 48.433594 C 146.726562 48.367188 146.757812 48.351562 146.757812 48.351562 L 146.613281 48.351562 C 146.332031 47.925781 145.691406 46.496094 145.304688 41.917969 C 144.800781 35.90625 144.925781 36.492188 144.640625 36.347656 C 144.359375 36.492188 144.484375 35.90625 143.980469 41.917969 C 143.695312 45.285156 143.273438 46.949219 142.957031 47.761719 C 142.546875 46.664062 141.90625 44.027344 141.496094 37.824219 C 140.851562 28.085938 141.011719 29.035156 140.648438 28.796875 C 140.285156 29.035156 140.449219 28.085938 139.800781 37.824219 C 139.46875 42.859375 138.984375 45.546875 138.59375 46.964844 C 138.238281 45.871094 137.832031 44.019531 137.542969 40.902344 C 136.898438 33.964844 137.058594 34.640625 136.695312 34.472656 C 136.332031 34.640625 136.496094 33.964844 135.847656 40.902344 C 135.695312 42.566406 135.507812 43.871094 135.3125 44.894531 C 135.003906 42.976562 134.679688 40.066406 134.4375 35.660156 C 133.792969 23.945312 133.953125 25.089844 133.589844 24.804688 C 133.226562 25.089844 133.390625 23.945312 132.746094 35.660156 C 132.417969 41.570312 131.949219 44.789062 131.5625 46.527344 C 131.175781 44.734375 130.695312 41.363281 130.367188 35.085938 C 129.71875 22.847656 129.878906 24.039062 129.519531 23.742188 C 129.15625 24.039062 129.316406 22.847656 128.671875 35.085938 C 128.527344 37.851562 128.351562 40.054688 128.167969 41.808594 C 127.984375 40.054688 127.808594 37.851562 127.664062 35.085938 C 127.019531 22.847656 127.179688 24.039062 126.816406 23.742188 C 126.453125 24.039062 126.613281 22.847656 125.96875 35.085938 C 125.636719 41.363281 125.160156 44.734375 124.769531 46.527344 C 124.382812 44.789062 123.914062 41.570312 123.589844 35.660156 C 122.945312 23.945312 123.105469 25.089844 122.742188 24.804688 C 122.378906 25.089844 122.539062 23.945312 121.894531 35.660156 C 121.652344 40.066406 121.328125 42.976562 121.023438 44.894531 C 120.824219 43.871094 120.640625 42.566406 120.484375 40.902344 C 119.839844 33.964844 120 34.640625 119.636719 34.472656 C 119.273438 34.640625 119.4375 33.964844 118.789062 40.902344 C 118.5 44.019531 118.097656 45.871094 117.738281 46.964844 C 117.351562 45.546875 116.863281 42.859375 116.53125 37.824219 C 115.886719 28.085938 116.046875 29.035156 115.683594 28.796875 C 115.320312 29.035156 115.484375 28.085938 114.839844 37.824219 C 114.429688 44.027344 113.789062 46.664062 113.378906 47.761719 C 113.058594 46.949219 112.640625 45.285156 112.355469 41.917969 C 111.851562 35.90625 111.976562 36.492188 111.691406 36.347656 C 111.410156 36.492188 111.535156 35.90625 111.03125 41.917969 C 110.914062 43.277344 110.777344 44.359375 110.632812 45.21875 C 110.492188 44.359375 110.355469 43.277344 110.238281 41.917969 C 109.734375 35.90625 109.859375 36.492188 109.574219 36.347656 C 109.292969 36.492188 109.417969 35.90625 108.914062 41.917969 C 108.628906 45.285156 108.207031 46.949219 107.890625 47.761719 C 107.480469 46.664062 106.84375 44.027344 106.429688 37.824219 C 105.785156 28.085938 105.945312 29.035156 105.585938 28.796875 C 105.21875 29.035156 105.382812 28.085938 104.738281 37.824219 C 104.402344 42.859375 103.917969 45.546875 103.527344 46.964844 C 103.171875 45.871094 102.769531 44.019531 102.480469 40.902344 C 101.832031 33.964844 101.992188 34.640625 101.632812 34.472656 C 101.269531 34.640625 101.429688 33.964844 100.785156 40.902344 C 100.628906 42.566406 100.441406 43.871094 100.246094 44.894531 C 99.9375 42.976562 99.617188 40.066406 99.371094 35.660156 C 98.726562 23.945312 98.890625 25.089844 98.527344 24.804688 C 98.164062 25.089844 98.324219 23.945312 97.679688 35.660156 C 97.351562 41.570312 96.882812 44.789062 96.5 46.527344 C 96.109375 44.734375 95.632812 41.363281 95.300781 35.085938 C 94.652344 22.847656 94.816406 24.039062 94.453125 23.742188 C 94.089844 24.039062 94.25 22.847656 93.605469 35.085938 C 93.460938 37.851562 93.285156 40.054688 93.101562 41.808594 C 92.917969 40.054688 92.742188 37.851562 92.597656 35.085938 C 91.953125 22.847656 92.113281 24.039062 91.75 23.742188 C 91.386719 24.039062 91.550781 22.847656 90.902344 35.085938 C 90.574219 41.363281 90.09375 44.734375 89.703125 46.527344 C 89.320312 44.789062 88.851562 41.570312 88.523438 35.660156 C 87.878906 23.945312 88.039062 25.089844 87.679688 24.804688 C 87.316406 25.089844 87.476562 23.945312 86.832031 35.660156 C 86.585938 40.066406 86.265625 42.976562 85.957031 44.894531 C 85.761719 43.871094 85.574219 42.566406 85.417969 40.902344 C 84.773438 33.964844 84.933594 34.640625 84.570312 34.472656 C 84.210938 34.640625 84.371094 33.964844 83.726562 40.902344 C 83.433594 44.019531 83.03125 45.871094 82.675781 46.964844 C 82.285156 45.546875 81.800781 42.859375 81.464844 37.824219 C 80.824219 28.085938 80.984375 29.035156 80.621094 28.796875 C 80.257812 29.035156 80.417969 28.085938 79.773438 37.824219 C 79.363281 44.027344 78.722656 46.664062 78.3125 47.761719 C 77.996094 46.949219 77.574219 45.285156 77.292969 41.917969 C 76.785156 35.90625 76.910156 36.492188 76.628906 36.347656 C 76.34375 36.492188 76.46875 35.90625 75.964844 41.917969 C 75.578125 46.496094 74.9375 47.925781 74.652344 48.351562 L 74.511719 48.351562 C 74.511719 48.351562 74.539062 48.367188 74.59375 48.433594 C 74.539062 48.496094 74.511719 48.515625 74.511719 48.515625 L 74.652344 48.515625 C 74.9375 48.9375 75.578125 50.371094 75.964844 54.945312 C 76.46875 60.957031 76.34375 60.371094 76.628906 60.519531 C 76.910156 60.371094 76.785156 60.957031 77.292969 54.945312 C 77.574219 51.578125 77.996094 49.914062 78.3125 49.101562 C 78.722656 50.199219 79.363281 52.835938 79.773438 59.042969 C 80.417969 68.78125 80.257812 67.832031 80.621094 68.070312 C 80.984375 67.832031 80.824219 68.78125 81.464844 59.042969 C 81.800781 54.007812 82.285156 51.320312 82.675781 49.898438 C 83.03125 50.996094 83.433594 52.847656 83.726562 55.964844 C 84.371094 62.902344 84.210938 62.226562 84.570312 62.394531 C 84.933594 62.226562 84.773438 62.902344 85.417969 55.964844 C 85.574219 54.296875 85.761719 52.996094 85.957031 51.972656 C 86.265625 53.890625 86.585938 56.800781 86.832031 61.207031 C 87.476562 72.921875 87.316406 71.777344 87.679688 72.0625 C 88.039062 71.777344 87.878906 72.921875 88.523438 61.207031 C 88.851562 55.292969 89.320312 52.078125 89.703125 50.339844 C 90.09375 52.132812 90.574219 55.503906 90.902344 61.78125 C 91.550781 74.019531 91.386719 72.824219 91.75 73.125 C 92.113281 72.824219 91.953125 74.019531 92.597656 61.78125 C 92.742188 59.011719 92.917969 56.8125 93.101562 55.058594 C 93.285156 56.8125 93.460938 59.011719 93.605469 61.78125 C 94.25 74.019531 94.089844 72.824219 94.453125 73.125 C 94.816406 72.824219 94.652344 74.019531 95.300781 61.78125 C 95.632812 55.503906 96.109375 52.132812 96.5 50.339844 C 96.882812 52.078125 97.351562 55.292969 97.679688 61.207031 C 98.324219 72.921875 98.164062 71.777344 98.527344 72.0625 C 98.890625 71.777344 98.726562 72.921875 99.371094 61.207031 C 99.617188 56.800781 99.9375 53.890625 100.246094 51.972656 C 100.441406 52.996094 100.628906 54.296875 100.785156 55.964844 C 101.429688 62.902344 101.269531 62.226562 101.632812 62.394531 C 101.992188 62.226562 101.832031 62.902344 102.480469 55.964844 C 102.769531 52.847656 103.171875 50.996094 103.527344 49.898438 C 103.917969 51.320312 104.402344 54.007812 104.738281 59.042969 C 105.382812 68.78125 105.21875 67.832031 105.585938 68.070312 C 105.945312 67.832031 105.785156 68.78125 106.429688 59.042969 C 106.84375 52.835938 107.480469 50.199219 107.890625 49.101562 C 108.207031 49.914062 108.628906 51.578125 108.914062 54.945312 C 109.417969 60.957031 109.292969 60.371094 109.574219 60.519531 C 109.859375 60.371094 109.734375 60.957031 110.238281 54.945312 C 110.355469 53.585938 110.492188 52.507812 110.632812 51.644531 C 110.777344 52.507812 110.914062 53.585938 111.03125 54.945312 C 111.535156 60.957031 111.410156 60.371094 111.691406 60.519531 C 111.976562 60.371094 111.851562 60.957031 112.355469 54.945312 C 112.640625 51.578125 113.058594 49.914062 113.378906 49.101562 C 113.789062 50.199219 114.429688 52.835938 114.839844 59.042969 C 115.484375 68.78125 115.320312 67.832031 115.683594 68.070312 C 116.046875 67.832031 115.886719 68.78125 116.53125 59.042969 C 116.863281 54.007812 117.347656 51.320312 117.738281 49.898438 C 118.097656 50.996094 118.5 52.847656 118.789062 55.964844 C 119.4375 62.902344 119.273438 62.226562 119.636719 62.394531 C 120 62.226562 119.839844 62.902344 120.484375 55.964844 C 120.640625 54.296875 120.828125 52.996094 121.023438 51.972656 C 121.328125 53.890625 121.652344 56.800781 121.894531 61.207031 C 122.539062 72.921875 122.378906 71.777344 122.742188 72.0625 C 123.105469 71.777344 122.945312 72.921875 123.589844 61.207031 C 123.914062 55.292969 124.382812 52.078125 124.769531 50.339844 C 125.160156 52.132812 125.636719 55.503906 125.96875 61.78125 C 126.613281 74.019531 126.453125 72.824219 126.816406 73.125 C 127.179688 72.824219 127.019531 74.019531 127.664062 61.78125 C 127.808594 59.011719 127.984375 56.8125 128.167969 55.058594 C 128.351562 56.8125 128.527344 59.011719 128.671875 61.78125 C 129.316406 74.019531 129.15625 72.824219 129.519531 73.125 C 129.878906 72.824219 129.71875 74.019531 130.367188 61.78125 C 130.695312 55.503906 131.175781 52.132812 131.5625 50.339844 C 131.949219 52.078125 132.417969 55.292969 132.746094 61.207031 C 133.390625 72.921875 133.226562 71.777344 133.589844 72.0625 C 133.953125 71.777344 133.792969 72.921875 134.4375 61.207031 C 134.679688 56.800781 135.003906 53.890625 135.3125 51.972656 C 135.507812 52.996094 135.695312 54.296875 135.847656 55.964844 C 136.496094 62.902344 136.332031 62.226562 136.695312 62.394531 C 137.058594 62.226562 136.898438 62.902344 137.542969 55.964844 C 137.832031 52.847656 138.238281 50.996094 138.59375 49.898438 C 138.984375 51.320312 139.46875 54.007812 139.800781 59.042969 C 140.449219 68.78125 140.285156 67.832031 140.648438 68.070312 C 141.011719 67.832031 140.851562 68.78125 141.496094 59.042969 C 141.90625 52.835938 142.546875 50.199219 142.957031 49.101562 C 143.273438 49.914062 143.695312 51.578125 143.980469 54.945312 C 144.484375 60.957031 144.359375 60.371094 144.640625 60.519531 C 144.925781 60.371094 144.800781 60.957031 145.304688 54.945312 C 145.691406 50.371094 146.332031 48.9375 146.613281 48.515625 L 146.757812 48.515625 C 146.757812 48.515625 146.726562 48.496094 146.675781 48.433594 " clip-rule="nonzero"/></clipPath><linearGradient x1="-0.0652868" gradientTransform="matrix(0.000000000000002806, 45.693982, -45.831744, 0.000000000000002798, 110.634781, 26.584634)" y1="0" x2="1.02372" gradientUnits="userSpaceOnUse" y2="0" id="a28cb4f932"><stop stop-opacity="1" stop-color="rgb(34.899902%, 78.399658%, 95.698547%)" offset="0"/><stop stop-opacity="1" stop-color="rgb(34.899902%, 78.399658%, 95.698547%)" offset="0.03125"/><stop stop-opacity="1" stop-color="rgb(34.899902%, 78.399658%, 95.698547%)" offset="0.046875"/><stop stop-opacity="1" stop-color="rgb(34.899902%, 78.399658%, 95.698547%)" offset="0.0546875"/><stop stop-opacity="1" stop-color="rgb(35.099792%, 78.399658%, 95.613098%)" offset="0.0585938"/><stop stop-opacity="1" stop-color="rgb(35.299683%, 78.399658%, 95.529175%)" offset="0.0625"/><stop stop-opacity="1" stop-color="rgb(35.499573%, 78.134155%, 95.349121%)" offset="0.0664062"/><stop stop-opacity="1" stop-color="rgb(35.699463%, 77.870178%, 95.170593%)" offset="0.0703125"/><stop stop-opacity="1" stop-color="rgb(35.943604%, 77.734375%, 95.03479%)" offset="0.0742187"/><stop stop-opacity="1" stop-color="rgb(36.187744%, 77.598572%, 94.898987%)" offset="0.078125"/><stop stop-opacity="1" stop-color="rgb(36.367798%, 77.449036%, 94.874573%)" offset="0.0859375"/><stop stop-opacity="1" stop-color="rgb(36.776733%, 77.044678%, 94.621277%)" offset="0.0898437"/><stop stop-opacity="1" stop-color="rgb(37.007141%, 76.791382%, 94.390869%)" offset="0.09375"/><stop stop-opacity="1" stop-color="rgb(37.1521%, 76.611328%, 94.244385%)" offset="0.101562"/><stop stop-opacity="1" stop-color="rgb(37.461853%, 76.251221%, 93.899536%)" offset="0.105469"/><stop stop-opacity="1" stop-color="rgb(37.626648%, 76.072693%, 93.699646%)" offset="0.109375"/><stop stop-opacity="1" stop-color="rgb(37.812805%, 75.88501%, 93.699646%)" offset="0.117188"/><stop stop-opacity="1" stop-color="rgb(38.198853%, 75.524902%, 93.499756%)" offset="0.121094"/><stop stop-opacity="1" stop-color="rgb(38.398743%, 75.352478%, 93.299866%)" offset="0.125"/><stop stop-opacity="1" stop-color="rgb(38.751221%, 75.125122%, 93.145752%)" offset="0.128906"/><stop stop-opacity="1" stop-color="rgb(39.105225%, 74.899292%, 92.993164%)" offset="0.132812"/><stop stop-opacity="1" stop-color="rgb(39.334106%, 74.699402%, 92.945862%)" offset="0.136719"/><stop stop-opacity="1" stop-color="rgb(39.564514%, 74.499512%, 92.89856%)" offset="0.140625"/><stop stop-opacity="1" stop-color="rgb(39.781189%, 74.336243%, 92.698669%)" offset="0.144531"/><stop stop-opacity="1" stop-color="rgb(39.99939%, 74.1745%, 92.498779%)" offset="0.148437"/><stop stop-opacity="1" stop-color="rgb(40.19928%, 73.936462%, 92.349243%)" offset="0.152344"/><stop stop-opacity="1" stop-color="rgb(40.39917%, 73.699951%, 92.199707%)" offset="0.15625"/><stop stop-opacity="1" stop-color="rgb(40.72113%, 73.498535%, 92.076111%)" offset="0.160156"/><stop stop-opacity="1" stop-color="rgb(41.043091%, 73.298645%, 91.954041%)" offset="0.164062"/><stop stop-opacity="1" stop-color="rgb(41.223145%, 73.098755%, 91.876221%)" offset="0.167969"/><stop stop-opacity="1" stop-color="rgb(41.403198%, 72.898865%, 91.799927%)" offset="0.171875"/><stop stop-opacity="1" stop-color="rgb(41.610718%, 72.698975%, 91.598511%)" offset="0.175781"/><stop stop-opacity="1" stop-color="rgb(41.818237%, 72.499084%, 91.398621%)" offset="0.179687"/><stop stop-opacity="1" stop-color="rgb(42.019653%, 72.236633%, 91.287231%)" offset="0.183594"/><stop stop-opacity="1" stop-color="rgb(42.222595%, 71.975708%, 91.175842%)" offset="0.1875"/><stop stop-opacity="1" stop-color="rgb(42.379761%, 71.795654%, 90.995789%)" offset="0.195312"/><stop stop-opacity="1" stop-color="rgb(42.689514%, 71.435547%, 90.707397%)" offset="0.203125"/><stop stop-opacity="1" stop-color="rgb(43.022156%, 71.076965%, 90.39917%)" offset="0.207031"/><stop stop-opacity="1" stop-color="rgb(43.202209%, 70.896912%, 90.19928%)" offset="0.210938"/><stop stop-opacity="1" stop-color="rgb(43.55011%, 70.706177%, 90.158081%)" offset="0.214844"/><stop stop-opacity="1" stop-color="rgb(43.899536%, 70.516968%, 90.116882%)" offset="0.21875"/><stop stop-opacity="1" stop-color="rgb(44.099426%, 70.158386%, 89.958191%)" offset="0.222656"/><stop stop-opacity="1" stop-color="rgb(44.299316%, 69.799805%, 89.7995%)" offset="0.226562"/><stop stop-opacity="1" stop-color="rgb(44.538879%, 69.758606%, 89.599609%)" offset="0.230469"/><stop stop-opacity="1" stop-color="rgb(44.779968%, 69.717407%, 89.399719%)" offset="0.234375"/><stop stop-opacity="1" stop-color="rgb(44.960022%, 69.537354%, 89.378357%)" offset="0.242188"/><stop stop-opacity="1" stop-color="rgb(45.320129%, 69.178772%, 89.178467%)" offset="0.25"/><stop stop-opacity="1" stop-color="rgb(45.700073%, 68.618774%, 88.819885%)" offset="0.253906"/><stop stop-opacity="1" stop-color="rgb(45.899963%, 68.238831%, 88.639832%)" offset="0.257812"/><stop stop-opacity="1" stop-color="rgb(46.299744%, 68.019104%, 88.418579%)" offset="0.261719"/><stop stop-opacity="1" stop-color="rgb(46.699524%, 67.799377%, 88.198853%)" offset="0.265625"/><stop stop-opacity="1" stop-color="rgb(46.888733%, 67.655945%, 88.198853%)" offset="0.273438"/><stop stop-opacity="1" stop-color="rgb(47.257996%, 67.337036%, 87.998962%)" offset="0.277344"/><stop stop-opacity="1" stop-color="rgb(47.438049%, 67.160034%, 87.799072%)" offset="0.28125"/><stop stop-opacity="1" stop-color="rgb(47.468567%, 66.929626%, 87.686157%)" offset="0.285156"/><stop stop-opacity="1" stop-color="rgb(47.499084%, 66.699219%, 87.574768%)" offset="0.289062"/><stop stop-opacity="1" stop-color="rgb(47.648621%, 66.369629%, 87.536621%)" offset="0.292969"/><stop stop-opacity="1" stop-color="rgb(47.799683%, 66.041565%, 87.5%)" offset="0.296875"/><stop stop-opacity="1" stop-color="rgb(47.999573%, 65.861511%, 87.298584%)" offset="0.300781"/><stop stop-opacity="1" stop-color="rgb(48.199463%, 65.681458%, 87.098694%)" offset="0.304687"/><stop stop-opacity="1" stop-color="rgb(48.538208%, 65.45105%, 86.959839%)" offset="0.308594"/><stop stop-opacity="1" stop-color="rgb(48.876953%, 65.222168%, 86.820984%)" offset="0.3125"/><stop stop-opacity="1" stop-color="rgb(49.057007%, 64.959717%, 86.64093%)" offset="0.316406"/><stop stop-opacity="1" stop-color="rgb(49.237061%, 64.698792%, 86.462402%)" offset="0.320312"/><stop stop-opacity="1" stop-color="rgb(49.415588%, 64.498901%, 86.380005%)" offset="0.324219"/><stop stop-opacity="1" stop-color="rgb(49.595642%, 64.299011%, 86.299133%)" offset="0.328125"/><stop stop-opacity="1" stop-color="rgb(49.775696%, 64.099121%, 86.099243%)" offset="0.332031"/><stop stop-opacity="1" stop-color="rgb(49.95575%, 63.899231%, 85.899353%)" offset="0.335937"/><stop stop-opacity="1" stop-color="rgb(50.27771%, 63.641357%, 85.84137%)" offset="0.339844"/><stop stop-opacity="1" stop-color="rgb(50.59967%, 63.383484%, 85.783386%)" offset="0.34375"/><stop stop-opacity="1" stop-color="rgb(50.799561%, 63.041687%, 85.552979%)" offset="0.347656"/><stop stop-opacity="1" stop-color="rgb(50.999451%, 62.69989%, 85.324097%)" offset="0.351562"/><stop stop-opacity="1" stop-color="rgb(51.199341%, 62.548828%, 85.211182%)" offset="0.355469"/><stop stop-opacity="1" stop-color="rgb(51.399231%, 62.399292%, 85.099792%)" offset="0.359375"/><stop stop-opacity="1" stop-color="rgb(51.599121%, 62.1521%, 84.898376%)" offset="0.363281"/><stop stop-opacity="1" stop-color="rgb(51.799011%, 61.904907%, 84.698486%)" offset="0.367187"/><stop stop-opacity="1" stop-color="rgb(51.998901%, 61.724854%, 84.671021%)" offset="0.371094"/><stop stop-opacity="1" stop-color="rgb(52.198792%, 61.5448%, 84.645081%)" offset="0.375"/><stop stop-opacity="1" stop-color="rgb(52.203369%, 61.170959%, 84.465027%)" offset="0.378906"/><stop stop-opacity="1" stop-color="rgb(52.209473%, 60.798645%, 84.284973%)" offset="0.382812"/><stop stop-opacity="1" stop-color="rgb(52.354431%, 60.610962%, 84.091187%)" offset="0.390625"/><stop stop-opacity="1" stop-color="rgb(52.89917%, 60.194397%, 83.699036%)" offset="0.394531"/><stop stop-opacity="1" stop-color="rgb(53.29895%, 59.965515%, 83.499146%)" offset="0.398437"/><stop stop-opacity="1" stop-color="rgb(53.495789%, 59.78241%, 83.302307%)" offset="0.402344"/><stop stop-opacity="1" stop-color="rgb(53.692627%, 59.599304%, 83.105469%)" offset="0.40625"/><stop stop-opacity="1" stop-color="rgb(53.871155%, 59.222412%, 83.102417%)" offset="0.410156"/><stop stop-opacity="1" stop-color="rgb(54.051208%, 58.847046%, 83.099365%)" offset="0.414062"/><stop stop-opacity="1" stop-color="rgb(54.231262%, 58.666992%, 82.899475%)" offset="0.417969"/><stop stop-opacity="1" stop-color="rgb(54.411316%, 58.486938%, 82.699585%)" offset="0.421875"/><stop stop-opacity="1" stop-color="rgb(54.59137%, 58.306885%, 82.597351%)" offset="0.429687"/><stop stop-opacity="1" stop-color="rgb(54.989624%, 57.862854%, 82.446289%)" offset="0.433594"/><stop stop-opacity="1" stop-color="rgb(55.207825%, 57.598877%, 82.398987%)" offset="0.4375"/><stop stop-opacity="1" stop-color="rgb(55.453491%, 57.302856%, 82.199097%)" offset="0.441406"/><stop stop-opacity="1" stop-color="rgb(55.699158%, 57.008362%, 81.999207%)" offset="0.445312"/><stop stop-opacity="1" stop-color="rgb(55.899048%, 56.828308%, 81.799316%)" offset="0.449219"/><stop stop-opacity="1" stop-color="rgb(56.098938%, 56.648254%, 81.599426%)" offset="0.453125"/><stop stop-opacity="1" stop-color="rgb(56.204224%, 56.373596%, 81.494141%)" offset="0.457031"/><stop stop-opacity="1" stop-color="rgb(56.309509%, 56.098938%, 81.388855%)" offset="0.460937"/><stop stop-opacity="1" stop-color="rgb(56.404114%, 55.813599%, 81.29425%)" offset="0.464844"/><stop stop-opacity="1" stop-color="rgb(56.498718%, 55.529785%, 81.199646%)" offset="0.46875"/><stop stop-opacity="1" stop-color="rgb(56.698608%, 55.328369%, 80.999756%)" offset="0.472656"/><stop stop-opacity="1" stop-color="rgb(56.898499%, 55.126953%, 80.799866%)" offset="0.476562"/><stop stop-opacity="1" stop-color="rgb(57.170105%, 54.718018%, 80.59845%)" offset="0.480469"/><stop stop-opacity="1" stop-color="rgb(57.441711%, 54.310608%, 80.39856%)" offset="0.484375"/><stop stop-opacity="1" stop-color="rgb(57.594299%, 54.130554%, 80.323792%)" offset="0.492187"/><stop stop-opacity="1" stop-color="rgb(57.928467%, 53.770447%, 80.123901%)" offset="0.5"/><stop stop-opacity="1" stop-color="rgb(58.287048%, 53.210449%, 79.798889%)" offset="0.503906"/><stop stop-opacity="1" stop-color="rgb(58.467102%, 52.830505%, 79.598999%)" offset="0.507812"/><stop stop-opacity="1" stop-color="rgb(58.647156%, 52.653503%, 79.399109%)" offset="0.511719"/><stop stop-opacity="1" stop-color="rgb(58.827209%, 52.478027%, 79.199219%)" offset="0.515625"/><stop stop-opacity="1" stop-color="rgb(59.056091%, 52.137756%, 79.154968%)" offset="0.519531"/><stop stop-opacity="1" stop-color="rgb(59.286499%, 51.799011%, 79.112244%)" offset="0.523438"/><stop stop-opacity="1" stop-color="rgb(59.466553%, 51.574707%, 78.93219%)" offset="0.527344"/><stop stop-opacity="1" stop-color="rgb(59.646606%, 51.351929%, 78.752136%)" offset="0.53125"/><stop stop-opacity="1" stop-color="rgb(59.82666%, 50.975037%, 78.575134%)" offset="0.535156"/><stop stop-opacity="1" stop-color="rgb(60.006714%, 50.59967%, 78.399658%)" offset="0.539062"/><stop stop-opacity="1" stop-color="rgb(60.202026%, 50.416565%, 78.216553%)" offset="0.542969"/><stop stop-opacity="1" stop-color="rgb(60.398865%, 50.233459%, 78.033447%)" offset="0.546875"/><stop stop-opacity="1" stop-color="rgb(60.562134%, 50.015259%, 78.016663%)" offset="0.550781"/><stop stop-opacity="1" stop-color="rgb(60.725403%, 49.798584%, 77.999878%)" offset="0.554688"/><stop stop-opacity="1" stop-color="rgb(60.905457%, 49.455261%, 77.798462%)" offset="0.558594"/><stop stop-opacity="1" stop-color="rgb(61.08551%, 49.113464%, 77.598572%)" offset="0.5625"/><stop stop-opacity="1" stop-color="rgb(61.314392%, 48.683167%, 77.449036%)" offset="0.566406"/><stop stop-opacity="1" stop-color="rgb(61.5448%, 48.254395%, 77.2995%)" offset="0.570312"/><stop stop-opacity="1" stop-color="rgb(61.724854%, 48.074341%, 77.146912%)" offset="0.578125"/><stop stop-opacity="1" stop-color="rgb(62.083435%, 47.747803%, 76.81427%)" offset="0.585938"/><stop stop-opacity="1" stop-color="rgb(62.414551%, 47.238159%, 76.567078%)" offset="0.589844"/><stop stop-opacity="1" stop-color="rgb(62.567139%, 46.875%, 76.499939%)" offset="0.59375"/><stop stop-opacity="1" stop-color="rgb(62.724304%, 46.586609%, 76.298523%)" offset="0.597656"/><stop stop-opacity="1" stop-color="rgb(62.882996%, 46.299744%, 76.098633%)" offset="0.601562"/><stop stop-opacity="1" stop-color="rgb(63.111877%, 45.977783%, 75.898743%)" offset="0.605469"/><stop stop-opacity="1" stop-color="rgb(63.342285%, 45.655823%, 75.698853%)" offset="0.609375"/><stop stop-opacity="1" stop-color="rgb(63.522339%, 45.475769%, 75.596619%)" offset="0.617188"/><stop stop-opacity="1" stop-color="rgb(63.882446%, 44.996643%, 75.396729%)" offset="0.621094"/><stop stop-opacity="1" stop-color="rgb(64.0625%, 44.699097%, 75.299072%)" offset="0.625"/><stop stop-opacity="1" stop-color="rgb(64.179993%, 44.438171%, 75.099182%)" offset="0.628906"/><stop stop-opacity="1" stop-color="rgb(64.299011%, 44.177246%, 74.899292%)" offset="0.632813"/><stop stop-opacity="1" stop-color="rgb(64.34021%, 43.797302%, 74.699402%)" offset="0.636719"/><stop stop-opacity="1" stop-color="rgb(64.381409%, 43.417358%, 74.499512%)" offset="0.640625"/><stop stop-opacity="1" stop-color="rgb(64.567566%, 43.229675%, 74.47052%)" offset="0.648438"/><stop stop-opacity="1" stop-color="rgb(64.978027%, 42.721558%, 74.27063%)" offset="0.652344"/><stop stop-opacity="1" stop-color="rgb(65.200806%, 42.399597%, 74.099731%)" offset="0.65625"/><stop stop-opacity="1" stop-color="rgb(65.379333%, 42.169189%, 73.899841%)" offset="0.660156"/><stop stop-opacity="1" stop-color="rgb(65.559387%, 41.938782%, 73.699951%)" offset="0.664063"/><stop stop-opacity="1" stop-color="rgb(65.739441%, 41.558838%, 73.498535%)" offset="0.667969"/><stop stop-opacity="1" stop-color="rgb(65.919495%, 41.178894%, 73.298645%)" offset="0.671875"/><stop stop-opacity="1" stop-color="rgb(66.108704%, 40.988159%, 73.10791%)" offset="0.679688"/><stop stop-opacity="1" stop-color="rgb(66.499329%, 40.428162%, 72.90802%)" offset="0.683594"/><stop stop-opacity="1" stop-color="rgb(66.699219%, 40.058899%, 72.898865%)" offset="0.6875"/><stop stop-opacity="1" stop-color="rgb(66.899109%, 39.628601%, 72.698975%)" offset="0.691406"/><stop stop-opacity="1" stop-color="rgb(67.098999%, 39.199829%, 72.499084%)" offset="0.695313"/><stop stop-opacity="1" stop-color="rgb(67.277527%, 39.019775%, 72.348022%)" offset="0.703125"/><stop stop-opacity="1" stop-color="rgb(67.597961%, 38.459778%, 72.039795%)" offset="0.707031"/><stop stop-opacity="1" stop-color="rgb(67.738342%, 38.079834%, 71.881104%)" offset="0.710938"/><stop stop-opacity="1" stop-color="rgb(67.907715%, 37.89978%, 71.70105%)" offset="0.71875"/><stop stop-opacity="1" stop-color="rgb(68.138123%, 37.390137%, 71.459961%)" offset="0.722656"/><stop stop-opacity="1" stop-color="rgb(68.199158%, 37.060547%, 71.398926%)" offset="0.726563"/><stop stop-opacity="1" stop-color="rgb(68.330383%, 36.647034%, 71.199036%)" offset="0.730469"/><stop stop-opacity="1" stop-color="rgb(68.463135%, 36.235046%, 70.999146%)" offset="0.734375"/><stop stop-opacity="1" stop-color="rgb(68.659973%, 36.038208%, 70.799255%)" offset="0.738281"/><stop stop-opacity="1" stop-color="rgb(68.856812%, 35.84137%, 70.599365%)" offset="0.742188"/><stop stop-opacity="1" stop-color="rgb(69.035339%, 35.461426%, 70.491028%)" offset="0.746094"/><stop stop-opacity="1" stop-color="rgb(69.215393%, 35.083008%, 70.38269%)" offset="0.75"/><stop stop-opacity="1" stop-color="rgb(69.395447%, 34.703064%, 70.202637%)" offset="0.753906"/><stop stop-opacity="1" stop-color="rgb(69.5755%, 34.32312%, 70.022583%)" offset="0.757813"/><stop stop-opacity="1" stop-color="rgb(69.755554%, 34.143066%, 69.911194%)" offset="0.765625"/><stop stop-opacity="1" stop-color="rgb(70.066833%, 33.583069%, 69.598389%)" offset="0.769531"/><stop stop-opacity="1" stop-color="rgb(70.199585%, 33.203125%, 69.398499%)" offset="0.773438"/><stop stop-opacity="1" stop-color="rgb(70.399475%, 32.850647%, 69.198608%)" offset="0.777344"/><stop stop-opacity="1" stop-color="rgb(70.599365%, 32.499695%, 68.998718%)" offset="0.78125"/><stop stop-opacity="1" stop-color="rgb(70.799255%, 32.292175%, 68.798828%)" offset="0.785156"/><stop stop-opacity="1" stop-color="rgb(70.999146%, 32.084656%, 68.598938%)" offset="0.789063"/><stop stop-opacity="1" stop-color="rgb(71.199036%, 31.704712%, 68.560791%)" offset="0.792969"/><stop stop-opacity="1" stop-color="rgb(71.398926%, 31.324768%, 68.52417%)" offset="0.796875"/><stop stop-opacity="1" stop-color="rgb(71.598816%, 31.144714%, 68.360901%)" offset="0.800781"/><stop stop-opacity="1" stop-color="rgb(71.798706%, 30.964661%, 68.199158%)" offset="0.804688"/><stop stop-opacity="1" stop-color="rgb(71.798706%, 30.584717%, 68.002319%)" offset="0.808594"/><stop stop-opacity="1" stop-color="rgb(71.798706%, 30.204773%, 67.805481%)" offset="0.8125"/><stop stop-opacity="1" stop-color="rgb(71.975708%, 30.001831%, 67.802429%)" offset="0.816406"/><stop stop-opacity="1" stop-color="rgb(72.15271%, 29.798889%, 67.799377%)" offset="0.820313"/><stop stop-opacity="1" stop-color="rgb(72.325134%, 29.391479%, 67.642212%)" offset="0.824219"/><stop stop-opacity="1" stop-color="rgb(72.499084%, 28.985596%, 67.486572%)" offset="0.828125"/><stop stop-opacity="1" stop-color="rgb(72.499084%, 28.605652%, 67.292786%)" offset="0.832031"/><stop stop-opacity="1" stop-color="rgb(72.499084%, 28.225708%, 67.098999%)" offset="0.835938"/><stop stop-opacity="1" stop-color="rgb(72.698975%, 27.886963%, 66.899109%)" offset="0.839844"/><stop stop-opacity="1" stop-color="rgb(72.898865%, 27.549744%, 66.699219%)" offset="0.84375"/><stop stop-opacity="1" stop-color="rgb(73.098755%, 27.378845%, 66.552734%)" offset="0.847656"/><stop stop-opacity="1" stop-color="rgb(73.298645%, 27.207947%, 66.407776%)" offset="0.851563"/><stop stop-opacity="1" stop-color="rgb(73.498535%, 26.828003%, 66.227722%)" offset="0.855469"/><stop stop-opacity="1" stop-color="rgb(73.699951%, 26.448059%, 66.047668%)" offset="0.859375"/><stop stop-opacity="1" stop-color="rgb(73.855591%, 26.017761%, 65.9729%)" offset="0.863281"/><stop stop-opacity="1" stop-color="rgb(74.01123%, 25.587463%, 65.899658%)" offset="0.867188"/><stop stop-opacity="1" stop-color="rgb(74.189758%, 25.343323%, 65.699768%)" offset="0.871094"/><stop stop-opacity="1" stop-color="rgb(74.369812%, 25.099182%, 65.499878%)" offset="0.875"/><stop stop-opacity="1" stop-color="rgb(74.549866%, 24.783325%, 65.298462%)" offset="0.878906"/><stop stop-opacity="1" stop-color="rgb(74.729919%, 24.468994%, 65.098572%)" offset="0.882813"/><stop stop-opacity="1" stop-color="rgb(74.813843%, 24.08905%, 64.898682%)" offset="0.886719"/><stop stop-opacity="1" stop-color="rgb(74.899292%, 23.709106%, 64.698792%)" offset="0.890625"/><stop stop-opacity="1" stop-color="rgb(75.099182%, 23.329163%, 64.624023%)" offset="0.894531"/><stop stop-opacity="1" stop-color="rgb(75.299072%, 22.949219%, 64.549255%)" offset="0.898438"/><stop stop-opacity="1" stop-color="rgb(75.299072%, 22.601318%, 64.350891%)" offset="0.902344"/><stop stop-opacity="1" stop-color="rgb(75.299072%, 22.253418%, 64.154053%)" offset="0.90625"/><stop stop-opacity="1" stop-color="rgb(75.498962%, 21.841431%, 63.941956%)" offset="0.910156"/><stop stop-opacity="1" stop-color="rgb(75.698853%, 21.429443%, 63.729858%)" offset="0.914063"/><stop stop-opacity="1" stop-color="rgb(75.898743%, 21.113586%, 63.613892%)" offset="0.917969"/><stop stop-opacity="1" stop-color="rgb(76.098633%, 20.799255%, 63.499451%)" offset="0.921875"/><stop stop-opacity="1" stop-color="rgb(76.298523%, 20.555115%, 63.299561%)" offset="0.925781"/><stop stop-opacity="1" stop-color="rgb(76.499939%, 20.310974%, 63.09967%)" offset="0.929688"/><stop stop-opacity="1" stop-color="rgb(76.522827%, 19.93103%, 62.89978%)" offset="0.933594"/><stop stop-opacity="1" stop-color="rgb(76.547241%, 19.551086%, 62.69989%)" offset="0.9375"/><stop stop-opacity="1" stop-color="rgb(76.727295%, 19.171143%, 62.696838%)" offset="0.941406"/><stop stop-opacity="1" stop-color="rgb(76.907349%, 18.791199%, 62.693787%)" offset="0.945312"/><stop stop-opacity="1" stop-color="rgb(77.102661%, 18.360901%, 62.512207%)" offset="0.949219"/><stop stop-opacity="1" stop-color="rgb(77.2995%, 17.932129%, 62.332153%)" offset="0.953125"/><stop stop-opacity="1" stop-color="rgb(77.449036%, 17.755127%, 62.165833%)" offset="0.960938"/><stop stop-opacity="1" stop-color="rgb(77.792358%, 17.245483%, 61.805725%)" offset="0.964844"/><stop stop-opacity="1" stop-color="rgb(77.986145%, 16.912842%, 61.613464%)" offset="0.96875"/><stop stop-opacity="1" stop-color="rgb(77.992249%, 16.532898%, 61.433411%)" offset="0.972656"/><stop stop-opacity="1" stop-color="rgb(77.999878%, 16.152954%, 61.253357%)" offset="0.976562"/><stop stop-opacity="1" stop-color="rgb(78.199768%, 15.925598%, 61.225891%)" offset="0.980469"/><stop stop-opacity="1" stop-color="rgb(78.399658%, 15.699768%, 61.199951%)" offset="0.984375"/><stop stop-opacity="1" stop-color="rgb(78.399658%, 15.699768%, 61.199951%)" offset="1"/></linearGradient></defs><g clip-path="url(#519cd5b77b)"><path fill="#a0e0f6" d="M 36.171875 58.332031 L 18.890625 52.515625 C 18.890625 52.515625 4.910156 59.804688 2.742188 72.371094 C 2.714844 72.535156 2.6875 72.703125 2.660156 72.878906 L 2.660156 98.1875 L 45.445312 98.1875 C 46.699219 92.332031 47.570312 88.324219 47.570312 88.324219 C 49.34375 73.894531 36.171875 58.332031 36.171875 58.332031 " fill-opacity="1" fill-rule="nonzero"/></g><path fill="#e8755d" d="M 40.121094 18.835938 C 35.585938 16.050781 21.390625 17.867188 21.390625 17.867188 C 21.390625 17.867188 20.597656 38.921875 20.742188 42.457031 C 20.890625 45.992188 18.523438 53.792969 18.523438 53.792969 C 27.089844 58.332031 36.171875 58.332031 36.171875 58.332031 C 36.171875 58.332031 37.132812 51.855469 38.683594 50.089844 C 40.234375 48.320312 44.101562 47.117188 44.101562 47.117188 L 40.121094 18.835938 " fill-opacity="1" fill-rule="nonzero"/><path fill="#da5e4c" d="M 27.519531 37.820312 C 27.402344 50.078125 33.765625 54.402344 36.570312 56.128906 C 36.992188 54.078125 37.722656 51.179688 38.683594 50.089844 C 40.234375 48.320312 44.101562 47.117188 44.101562 47.117188 L 42.460938 34.941406 C 36.65625 31.28125 27.621094 27.28125 27.519531 37.820312 " fill-opacity="1" fill-rule="nonzero"/><path fill="#f79070" d="M 40.121094 18.835938 L 43.835938 27.410156 C 43.835938 27.410156 44.378906 28.640625 44.132812 29.574219 L 46.570312 34.875 C 46.570312 34.875 46.71875 35.980469 43.988281 36.492188 L 44.664062 46.480469 C 44.664062 46.480469 44.824219 47.5 41.503906 47.484375 C 38.839844 47.472656 32.269531 47.308594 30.449219 45.9375 C 29.40625 45.15625 28.367188 39.632812 28.367188 39.632812 C 28.367188 39.632812 27.03125 40.671875 25.746094 37.597656 C 24.394531 34.359375 24.367188 33.445312 25.121094 32.640625 C 25.613281 32.109375 26.152344 31.828125 27.480469 32.933594 C 27.480469 32.933594 26.558594 18.972656 27.371094 18.53125 C 28.183594 18.089844 36.132812 17.144531 40.121094 18.835938 " fill-opacity="1" fill-rule="nonzero"/><path fill="#472877" d="M 25.871094 32.179688 C 25.871094 32.179688 28.144531 32.320312 29.03125 34.921875 C 29.03125 34.921875 31.542969 33.988281 30.804688 29.621094 C 30.066406 25.253906 30.511719 21.621094 31.148438 21.175781 C 31.789062 20.734375 34.289062 19.714844 41.433594 21.675781 C 41.433594 21.675781 43.929688 16.464844 41.636719 15.140625 C 38.242188 13.175781 19.234375 18.378906 16.773438 17.285156 L 20.742188 42.457031 C 20.742188 42.457031 24.601562 41.253906 24.160156 36.441406 C 23.71875 31.632812 25.871094 32.179688 25.871094 32.179688 " fill-opacity="1" fill-rule="nonzero"/><path fill="#352560" d="M 43.261719 29.101562 C 43.261719 29.101562 43.359375 30.40625 43.015625 30.601562 C 43.015625 30.601562 40.75 30.109375 40.210938 29.621094 C 40.210938 29.621094 40.863281 29.570312 41.742188 29.277344 C 42.621094 28.980469 43.261719 29.101562 43.261719 29.101562 " fill-opacity="1" fill-rule="nonzero"/><path fill="#352560" d="M 41.433594 21.675781 C 41.433594 21.675781 42.953125 16.410156 36.160156 17.285156 C 29.367188 18.160156 21.761719 19.976562 19.394531 19.429688 C 19.394531 19.429688 22.210938 32.78125 19.820312 36.0625 L 20.742188 42.457031 C 20.742188 42.457031 24.601562 41.253906 24.160156 36.441406 C 23.71875 31.632812 25.871094 32.179688 25.871094 32.179688 C 25.871094 32.179688 28.144531 32.320312 29.03125 34.921875 C 29.03125 34.921875 31.542969 33.988281 30.804688 29.621094 C 30.066406 25.253906 30.511719 21.621094 31.148438 21.175781 C 31.789062 20.734375 34.289062 19.714844 41.433594 21.675781 " fill-opacity="1" fill-rule="nonzero"/><path fill="#6cc3ef" d="M 18.890625 52.515625 C 18.890625 52.515625 26.574219 57.449219 36.171875 58.332031 C 36.171875 58.332031 31.691406 60.59375 25.191406 61.964844 L 18.523438 53.792969 L 18.890625 52.515625 " fill-opacity="1" fill-rule="nonzero"/><g clip-path="url(#6b58e1fcea)"><path fill="#afddea" d="M 2.742188 72.371094 C 2.820312 71.933594 2.910156 71.496094 3.011719 71.070312 C 2.910156 71.5 2.820312 71.933594 2.742188 72.371094 " fill-opacity="1" fill-rule="nonzero"/></g><g clip-path="url(#5d0e5b5654)"><path fill="#89d2e7" d="M 13.714844 98.1875 L 2.660156 98.1875 L 2.660156 72.878906 C 2.6875 72.703125 2.714844 72.535156 2.742188 72.371094 C 2.820312 71.933594 2.910156 71.5 3.011719 71.070312 C 3.136719 70.5625 3.28125 70.066406 3.4375 69.582031 L 13.714844 98.1875 " fill-opacity="1" fill-rule="nonzero"/></g><g clip-path="url(#d00fe5e24f)"><path fill="#d8f2f9" d="M 17.265625 61.398438 C 11.523438 58.601562 5.152344 62.828125 2.660156 68.074219 L 2.660156 98.1875 L 14.398438 98.1875 C 17.871094 90.574219 22.488281 80.242188 22.613281 78.886719 C 22.8125 76.703125 23.464844 64.421875 17.265625 61.398438 " fill-opacity="1" fill-rule="nonzero"/></g><g clip-path="url(#fa6ffaafb0)"><path fill="#b1e2ec" d="M 2.660156 68.078125 L 2.660156 98.1875 L 3.828125 98.1875 L 3.828125 69.582031 C 3.828125 69.582031 5.382812 64.359375 11.144531 60.800781 C 7.503906 61.714844 4.269531 64.683594 2.660156 68.078125 " fill-opacity="1" fill-rule="nonzero"/></g><path fill="#a0e0f6" d="M 62.050781 76.777344 L 60.761719 76.777344 L 60.761719 67.078125 L 62.050781 67.078125 L 62.050781 76.777344 " fill-opacity="1" fill-rule="nonzero"/><path fill="#0b121d" d="M 63.082031 69.425781 C 63.082031 69.554688 62.976562 69.660156 62.847656 69.660156 L 59.964844 69.660156 C 59.835938 69.660156 59.730469 69.554688 59.730469 69.425781 L 59.730469 63.40625 C 59.730469 63.273438 59.835938 63.171875 59.964844 63.171875 L 62.847656 63.171875 C 62.976562 63.171875 63.082031 63.273438 63.082031 63.40625 L 63.082031 69.425781 " fill-opacity="1" fill-rule="nonzero"/><path fill="#0b121d" d="M 73.59375 43.621094 L 48.695312 43.621094 L 48.695312 42.878906 L 73.59375 42.878906 L 73.59375 43.621094 " fill-opacity="1" fill-rule="nonzero"/><path fill="#0b121d" d="M 68.964844 53.90625 C 68.964844 56.886719 66.363281 59.300781 63.152344 59.300781 L 58.773438 59.300781 C 55.566406 59.300781 52.964844 56.886719 52.964844 53.90625 L 52.964844 34.878906 C 52.964844 31.902344 55.566406 29.484375 58.773438 29.484375 L 63.152344 29.484375 C 66.363281 29.484375 68.964844 31.902344 68.964844 34.878906 L 68.964844 53.90625 " fill-opacity="1" fill-rule="nonzero"/><path fill="#a0e0f6" d="M 69.511719 51.246094 L 69.511719 49.761719 L 52.1875 49.761719 L 52.1875 51.246094 L 69.511719 51.246094 " fill-opacity="1" fill-rule="nonzero"/><path fill="#a0e0f6" d="M 52.1875 44.914062 L 52.1875 46.398438 L 69.511719 46.398438 L 69.511719 44.914062 L 52.1875 44.914062 " fill-opacity="1" fill-rule="nonzero"/><path fill="#a0e0f6" d="M 52.1875 47.335938 L 52.1875 48.824219 L 69.511719 48.824219 L 69.511719 47.335938 L 52.1875 47.335938 " fill-opacity="1" fill-rule="nonzero"/><path fill="#a0e0f6" d="M 52.1875 37.640625 L 52.1875 39.125 L 69.511719 39.125 L 69.511719 37.640625 L 52.1875 37.640625 " fill-opacity="1" fill-rule="nonzero"/><path fill="#a0e0f6" d="M 52.1875 42.488281 L 52.1875 43.972656 L 69.511719 43.972656 L 69.511719 42.488281 L 52.1875 42.488281 " fill-opacity="1" fill-rule="nonzero"/><path fill="#a0e0f6" d="M 52.1875 42.488281 L 52.1875 43.972656 L 69.511719 43.972656 L 69.511719 42.488281 L 52.1875 42.488281 " fill-opacity="1" fill-rule="nonzero"/><path fill="#77c5dc" d="M 60.808594 42.488281 L 60.808594 43.972656 L 69.511719 43.972656 L 69.511719 42.488281 L 60.808594 42.488281 " fill-opacity="1" fill-rule="nonzero"/><path fill="#a0e0f6" d="M 52.1875 40.066406 L 52.1875 41.550781 L 69.511719 41.550781 L 69.511719 40.066406 L 52.1875 40.066406 " fill-opacity="1" fill-rule="nonzero"/><path fill="#a0e0f6" d="M 66.644531 30.007812 L 66.644531 33.066406 C 66.644531 33.378906 66.386719 33.632812 66.074219 33.632812 C 65.757812 33.632812 65.503906 33.378906 65.503906 33.066406 L 65.503906 29.449219 C 65.199219 29.339844 64.878906 29.25 64.554688 29.1875 L 64.554688 34.007812 C 64.554688 34.324219 64.300781 34.578125 63.984375 34.578125 C 63.667969 34.578125 63.414062 34.324219 63.414062 34.007812 L 63.414062 29.078125 L 62.464844 29.078125 L 62.464844 34.953125 C 62.464844 35.265625 62.207031 35.523438 61.894531 35.523438 C 61.578125 35.523438 61.324219 35.265625 61.324219 34.953125 L 61.324219 29.078125 L 60.375 29.078125 L 60.375 34.953125 C 60.375 35.265625 60.121094 35.523438 59.804688 35.523438 C 59.488281 35.523438 59.234375 35.265625 59.234375 34.953125 L 59.234375 29.078125 L 58.285156 29.078125 L 58.285156 34.007812 C 58.285156 34.324219 58.03125 34.578125 57.714844 34.578125 C 57.402344 34.578125 57.144531 34.324219 57.144531 34.007812 L 57.144531 29.1875 C 56.820312 29.25 56.503906 29.339844 56.195312 29.449219 L 56.195312 33.066406 C 56.195312 33.378906 55.941406 33.632812 55.625 33.632812 C 55.3125 33.632812 55.058594 33.378906 55.058594 33.066406 L 55.058594 30.007812 C 53.332031 31.085938 52.1875 33 52.1875 35.175781 L 52.1875 36.703125 L 69.511719 36.703125 L 69.511719 35.175781 C 69.511719 33 68.367188 31.085938 66.644531 30.007812 " fill-opacity="1" fill-rule="nonzero"/><path fill="#a0e0f6" d="M 52.1875 52.183594 L 52.1875 53.710938 C 52.1875 55.886719 53.332031 57.796875 55.058594 58.878906 L 55.058594 56.507812 C 55.058594 56.191406 55.3125 55.9375 55.625 55.9375 C 55.941406 55.9375 56.195312 56.191406 56.195312 56.507812 L 56.195312 59.4375 C 56.503906 59.546875 56.820312 59.636719 57.144531 59.699219 L 57.144531 55.5625 C 57.144531 55.25 57.402344 54.996094 57.714844 54.996094 C 58.03125 54.996094 58.285156 55.25 58.285156 55.5625 L 58.285156 59.808594 L 59.234375 59.808594 L 59.234375 54.617188 C 59.234375 54.304688 59.488281 54.050781 59.804688 54.050781 C 60.121094 54.050781 60.375 54.304688 60.375 54.617188 L 60.375 59.808594 L 61.324219 59.808594 L 61.324219 54.617188 C 61.324219 54.304688 61.578125 54.050781 61.894531 54.050781 C 62.207031 54.050781 62.464844 54.304688 62.464844 54.617188 L 62.464844 59.808594 L 63.414062 59.808594 L 63.414062 55.5625 C 63.414062 55.25 63.667969 54.996094 63.984375 54.996094 C 64.300781 54.996094 64.554688 55.25 64.554688 55.5625 L 64.554688 59.699219 C 64.878906 59.636719 65.199219 59.546875 65.503906 59.4375 L 65.503906 56.507812 C 65.503906 56.191406 65.757812 55.9375 66.074219 55.9375 C 66.386719 55.9375 66.644531 56.191406 66.644531 56.507812 L 66.644531 58.878906 C 68.367188 57.796875 69.511719 55.886719 69.511719 53.710938 L 69.511719 52.183594 L 52.1875 52.183594 " fill-opacity="1" fill-rule="nonzero"/><path fill="#77c5dc" d="M 60.847656 59.808594 L 61.324219 59.808594 L 61.324219 54.617188 C 61.324219 54.304688 61.578125 54.050781 61.894531 54.050781 C 62.207031 54.050781 62.464844 54.304688 62.464844 54.617188 L 62.464844 59.808594 L 63.414062 59.808594 L 63.414062 55.5625 C 63.414062 55.25 63.667969 54.996094 63.984375 54.996094 C 64.300781 54.996094 64.554688 55.25 64.554688 55.5625 L 64.554688 59.699219 C 64.878906 59.636719 65.199219 59.546875 65.503906 59.4375 L 65.503906 56.507812 C 65.503906 56.191406 65.757812 55.9375 66.074219 55.9375 C 66.386719 55.9375 66.644531 56.191406 66.644531 56.507812 L 66.644531 58.878906 C 68.367188 57.796875 69.511719 55.886719 69.511719 53.710938 L 69.511719 52.183594 L 60.847656 52.183594 L 60.847656 59.808594 " fill-opacity="1" fill-rule="nonzero"/><path fill="#77c5dc" d="M 60.847656 51.246094 L 69.511719 51.246094 L 69.511719 49.761719 L 60.847656 49.761719 L 60.847656 51.246094 " fill-opacity="1" fill-rule="nonzero"/><path fill="#77c5dc" d="M 60.847656 48.824219 L 69.511719 48.824219 L 69.511719 47.335938 L 60.847656 47.335938 L 60.847656 48.824219 " fill-opacity="1" fill-rule="nonzero"/><path fill="#77c5dc" d="M 60.847656 46.398438 L 69.511719 46.398438 L 69.511719 44.914062 L 60.847656 44.914062 L 60.847656 46.398438 " fill-opacity="1" fill-rule="nonzero"/><path fill="#77c5dc" d="M 60.847656 41.550781 L 69.511719 41.550781 L 69.511719 40.066406 L 60.847656 40.066406 L 60.847656 41.550781 " fill-opacity="1" fill-rule="nonzero"/><path fill="#77c5dc" d="M 60.847656 39.125 L 69.511719 39.125 L 69.511719 37.640625 L 60.847656 37.640625 L 60.847656 39.125 " fill-opacity="1" fill-rule="nonzero"/><path fill="#77c5dc" d="M 66.644531 30.007812 L 66.644531 33.066406 C 66.644531 33.378906 66.386719 33.632812 66.074219 33.632812 C 65.757812 33.632812 65.503906 33.378906 65.503906 33.066406 L 65.503906 29.449219 C 65.199219 29.339844 64.878906 29.25 64.554688 29.1875 L 64.554688 34.007812 C 64.554688 34.324219 64.300781 34.578125 63.984375 34.578125 C 63.667969 34.578125 63.414062 34.324219 63.414062 34.007812 L 63.414062 29.078125 L 62.464844 29.078125 L 62.464844 34.953125 C 62.464844 35.265625 62.207031 35.523438 61.894531 35.523438 C 61.578125 35.523438 61.324219 35.265625 61.324219 34.953125 L 61.324219 29.078125 L 60.847656 29.078125 L 60.847656 36.703125 L 69.511719 36.703125 L 69.511719 35.175781 C 69.511719 33 68.367188 31.085938 66.644531 30.007812 " fill-opacity="1" fill-rule="nonzero"/><path fill="#5aaac0" d="M 66.644531 30.007812 L 66.644531 33.066406 C 66.644531 33.378906 66.386719 33.632812 66.074219 33.632812 C 65.757812 33.632812 65.503906 33.378906 65.503906 33.066406 L 65.503906 29.449219 C 65.199219 29.339844 64.878906 29.25 64.554688 29.1875 L 64.554688 34.007812 C 64.554688 34.324219 64.300781 34.578125 63.984375 34.578125 C 63.941406 34.578125 63.90625 34.574219 63.867188 34.566406 L 63.867188 36.703125 L 69.511719 36.703125 L 69.511719 35.175781 C 69.511719 33 68.367188 31.085938 66.644531 30.007812 " fill-opacity="1" fill-rule="nonzero"/><path fill="#5aaac0" d="M 63.867188 39.125 L 69.511719 39.125 L 69.511719 37.640625 L 63.867188 37.640625 L 63.867188 39.125 " fill-opacity="1" fill-rule="nonzero"/><path fill="#5aaac0" d="M 63.867188 41.550781 L 69.511719 41.550781 L 69.511719 40.066406 L 63.867188 40.066406 L 63.867188 41.550781 " fill-opacity="1" fill-rule="nonzero"/><path fill="#5aaac0" d="M 63.867188 43.972656 L 69.511719 43.972656 L 69.511719 42.488281 L 63.867188 42.488281 L 63.867188 43.972656 " fill-opacity="1" fill-rule="nonzero"/><path fill="#5aaac0" d="M 63.867188 46.398438 L 69.511719 46.398438 L 69.511719 44.914062 L 63.867188 44.914062 L 63.867188 46.398438 " fill-opacity="1" fill-rule="nonzero"/><path fill="#5aaac0" d="M 63.867188 48.824219 L 69.511719 48.824219 L 69.511719 47.335938 L 63.867188 47.335938 L 63.867188 48.824219 " fill-opacity="1" fill-rule="nonzero"/><path fill="#5aaac0" d="M 63.867188 51.246094 L 69.511719 51.246094 L 69.511719 49.761719 L 63.867188 49.761719 L 63.867188 51.246094 " fill-opacity="1" fill-rule="nonzero"/><path fill="#5aaac0" d="M 63.867188 55.007812 C 63.90625 55 63.941406 54.996094 63.984375 54.996094 C 64.300781 54.996094 64.554688 55.25 64.554688 55.5625 L 64.554688 59.699219 C 64.878906 59.636719 65.199219 59.546875 65.503906 59.4375 L 65.503906 56.507812 C 65.503906 56.191406 65.757812 55.9375 66.074219 55.9375 C 66.386719 55.9375 66.644531 56.191406 66.644531 56.507812 L 66.644531 58.878906 C 68.367188 57.796875 69.511719 55.886719 69.511719 53.710938 L 69.511719 52.183594 L 63.867188 52.183594 L 63.867188 55.007812 " fill-opacity="1" fill-rule="nonzero"/><path fill="#a0e0f6" d="M 62.300781 63.875 L 59.398438 63.875 C 54.082031 63.875 49.753906 59.558594 49.753906 54.257812 L 49.753906 40.417969 L 50.695312 40.417969 L 50.695312 54.257812 C 50.695312 59.042969 54.597656 62.9375 59.398438 62.9375 L 62.300781 62.9375 C 67.101562 62.9375 71.007812 59.042969 71.007812 54.257812 L 71.007812 40.417969 L 71.949219 40.417969 L 71.949219 54.257812 C 71.949219 59.558594 67.621094 63.875 62.300781 63.875 " fill-opacity="1" fill-rule="nonzero"/><path fill="#a0e0f6" d="M 49.335938 43.945312 C 49.335938 44.070312 49.238281 44.171875 49.113281 44.171875 C 48.988281 44.171875 48.886719 44.070312 48.886719 43.945312 L 48.886719 42.519531 C 48.886719 42.394531 48.988281 42.292969 49.113281 42.292969 C 49.238281 42.292969 49.335938 42.394531 49.335938 42.519531 L 49.335938 43.945312 " fill-opacity="1" fill-rule="nonzero"/><path fill="#a0e0f6" d="M 73.328125 43.964844 C 73.328125 44.089844 73.226562 44.1875 73.101562 44.1875 C 72.976562 44.1875 72.875 44.089844 72.875 43.964844 L 72.875 42.535156 C 72.875 42.414062 72.976562 42.3125 73.101562 42.3125 C 73.226562 42.3125 73.328125 42.414062 73.328125 42.535156 L 73.328125 43.964844 " fill-opacity="1" fill-rule="nonzero"/><path fill="#2d3082" d="M 64.179688 64.265625 C 64.179688 64.394531 64.074219 64.5 63.945312 64.5 L 58.847656 64.5 C 58.71875 64.5 58.613281 64.394531 58.613281 64.265625 L 58.613281 62.621094 C 58.613281 62.492188 58.71875 62.386719 58.847656 62.386719 L 63.945312 62.386719 C 64.074219 62.386719 64.179688 62.492188 64.179688 62.621094 L 64.179688 64.265625 " fill-opacity="1" fill-rule="nonzero"/><path fill="#5aaac0" d="M 65.730469 79.355469 L 65.726562 79.328125 L 65.152344 76.179688 C 65.085938 75.816406 64.730469 75.523438 64.367188 75.523438 L 58.445312 75.523438 C 58.078125 75.523438 57.722656 75.816406 57.660156 76.179688 L 57.082031 79.328125 L 57.078125 79.355469 L 65.730469 79.355469 " fill-opacity="1" fill-rule="nonzero"/><path fill="#a0e0f6" d="M 72.355469 80.058594 L 72.355469 79.550781 C 72.355469 78.386719 71.6875 77.441406 70.859375 77.441406 L 51.953125 77.441406 C 51.125 77.441406 50.457031 78.386719 50.457031 79.550781 L 50.457031 80.058594 L 72.355469 80.058594 " fill-opacity="1" fill-rule="nonzero"/><g clip-path="url(#432f1f96d7)"><g clip-path="url(#34ddd988f3)"><g clip-path="url(#26ec7b9dc5)"><path fill="url(#a28cb4f932)" d="M 146.757812 23.601562 L 74.511719 23.601562 L 74.511719 73.363281 L 146.757812 73.363281 Z M 146.757812 23.601562 " fill-rule="nonzero"/></g></g></g></svg>