<svg xmlns="http://www.w3.org/2000/svg" xmlns:xlink="http://www.w3.org/1999/xlink" width="40" zoomAndPan="magnify" viewBox="0 0 30 30.000001" height="40" preserveAspectRatio="xMidYMid meet" version="1.0"><defs><clipPath id="d749d043f5"><path d="M 1.863281 1.378906 L 27.992188 1.378906 L 27.992188 27.507812 L 1.863281 27.507812 Z M 1.863281 1.378906 " clip-rule="nonzero"/></clipPath></defs><g clip-path="url(#d749d043f5)"><path fill="#e81a00" d="M 27.992188 14.445312 C 27.992188 21.660156 22.144531 27.507812 14.925781 27.507812 C 7.710938 27.507812 1.863281 21.660156 1.863281 14.445312 C 1.863281 7.226562 7.710938 1.378906 14.925781 1.378906 C 22.144531 1.378906 27.992188 7.226562 27.992188 14.445312 " fill-opacity="1" fill-rule="nonzero"/></g><path fill="#ffffff" d="M 22.601562 9.800781 L 19.570312 6.769531 L 14.925781 11.410156 L 10.285156 6.769531 L 7.253906 9.800781 L 11.894531 14.445312 L 7.253906 19.085938 L 10.285156 22.117188 L 14.925781 17.476562 L 19.570312 22.117188 L 22.601562 19.085938 L 17.960938 14.445312 L 22.601562 9.800781 " fill-opacity="1" fill-rule="nonzero"/></svg>